<?xml version="1.0" standalone="no"?>
<!DOCTYPE svg PUBLIC "-//W3C//DTD SVG 1.1//EN" "http://www.w3.org/Graphics/SVG/1.1/DTD/svg11.dtd" >
<svg xmlns="http://www.w3.org/2000/svg">
<metadata></metadata>
<defs>
<font id="proxima_novalight_italic" horiz-adv-x="786" >
<font-face units-per-em="2048" ascent="1618" descent="-430" />
<missing-glyph horiz-adv-x="530" />
<glyph unicode="ffj" horiz-adv-x="1521" d="M90 0l199 895h-164l20 94h164l19 90q29 144 105.5 225.5t201.5 81.5q121 0 196 -75l-65 -76q-48 55 -129 55q-83 0 -130.5 -53.5t-70.5 -157.5l-20 -90h202l-22 -94h-201l-196 -895h-109zM633 0l198 895h-163l20 94h164l18 90q68 307 308 307q91 0 155 -43l-47 -86 q-41 33 -106 33q-83 0 -130.5 -53.5t-70.5 -157.5l-21 -90h203l-22 -94h-201l-197 -895h-108zM715 -313l63 82q24 -32 63 -53t81 -21q149 0 190 180l248 1114h106l-247 -1114q-31 -140 -99.5 -208t-185.5 -68q-149 0 -219 88zM1380 1217q0 39 29.5 64.5t63.5 25.5 q32 0 53.5 -21t21.5 -51q0 -39 -29.5 -64.5t-64.5 -25.5q-31 0 -52.5 21.5t-21.5 50.5z" />
<glyph unicode="fj" horiz-adv-x="978" d="M90 0l199 895h-164l20 94h164l19 90q68 307 307 307q92 0 156 -43l-48 -86q-41 33 -106 33q-83 0 -130.5 -53.5t-70.5 -157.5l-20 -90h202l-22 -94h-201l-196 -895h-109zM172 -313l64 82q25 -32 63 -53t80 -21q149 0 190 180l248 1114h107l-248 -1114 q-31 -140 -99.5 -208t-185.5 -68q-149 0 -219 88zM838 1217q0 39 29.5 64.5t62.5 25.5q32 0 54 -21t22 -51q0 -39 -30 -64.5t-65 -25.5q-31 0 -52 21.5t-21 50.5z" />
<glyph unicode="ff" horiz-adv-x="1085" d="M90 0l199 895h-164l20 94h164l19 90q72 307 307 307q121 0 196 -75l-65 -76q-48 55 -129 55q-83 0 -130.5 -53.5t-70.5 -157.5l-20 -90h202l-22 -94h-201l-196 -895h-109zM633 0l198 895h-163l20 94h164l18 90q72 307 308 307q121 0 196 -75l-65 -76q-48 55 -129 55 q-83 0 -130.5 -53.5t-70.5 -157.5l-21 -90h203l-22 -94h-201l-197 -895h-108z" />
<glyph unicode="fi" horiz-adv-x="978" d="M90 0l199 895h-164l20 94h164l19 90q68 307 307 307q92 0 156 -43l-48 -86q-41 33 -106 33q-83 0 -130.5 -53.5t-70.5 -157.5l-20 -90h202l-22 -94h-201l-196 -895h-109zM598 0l219 989h107l-219 -989h-107zM838 1217q0 39 29.5 64.5t62.5 25.5q32 0 54 -21t22 -51 q0 -39 -30 -64.5t-65 -25.5q-31 0 -52 21.5t-21 50.5z" />
<glyph unicode="fl" horiz-adv-x="978" d="M90 0l199 895h-164l20 94h164l19 90q68 307 307 307q92 0 156 -43l-48 -86q-41 33 -106 33q-83 0 -130.5 -53.5t-70.5 -157.5l-20 -90h202l-22 -94h-201l-196 -895h-109zM598 0l301 1366h107l-301 -1366h-107z" />
<glyph unicode="ffi" horiz-adv-x="1521" d="M90 0l199 895h-164l20 94h164l19 90q72 307 307 307q121 0 196 -75l-65 -76q-48 55 -129 55q-83 0 -130.5 -53.5t-70.5 -157.5l-20 -90h202l-22 -94h-201l-196 -895h-109zM633 0l198 895h-163l20 94h164l18 90q68 307 308 307q91 0 155 -43l-47 -86q-41 33 -106 33 q-83 0 -130.5 -53.5t-70.5 -157.5l-21 -90h203l-22 -94h-201l-197 -895h-108zM1141 0l219 989h106l-219 -989h-106zM1380 1217q0 39 29.5 64.5t63.5 25.5q32 0 53.5 -21t21.5 -51q0 -39 -29.5 -64.5t-64.5 -25.5q-31 0 -52.5 21.5t-21.5 50.5z" />
<glyph unicode="ffl" horiz-adv-x="1521" d="M90 0l199 895h-164l20 94h164l19 90q72 307 307 307q121 0 196 -75l-65 -76q-48 55 -129 55q-83 0 -130.5 -53.5t-70.5 -157.5l-20 -90h202l-22 -94h-201l-196 -895h-109zM633 0l198 895h-163l20 94h164l18 90q68 307 308 307q91 0 155 -43l-47 -86q-41 33 -106 33 q-83 0 -130.5 -53.5t-70.5 -157.5l-21 -90h203l-22 -94h-201l-197 -895h-108zM1141 0l301 1366h106l-301 -1366h-106z" />
<glyph unicode="fb" horiz-adv-x="1710" d="M90 0l199 895h-164l20 94h164l19 90q68 307 307 307q92 0 156 -43l-48 -86q-41 33 -106 33q-83 0 -130.5 -53.5t-70.5 -157.5l-20 -90h202l-22 -94h-201l-196 -895h-109zM598 0l301 1366h107l-115 -526q62 81 149.5 127.5t190.5 46.5q172 0 278.5 -109t106.5 -297 q0 -167 -63.5 -310.5t-183.5 -233t-271 -89.5q-119 0 -211.5 52.5t-145.5 140.5l-36 -168h-107zM760 252q39 -78 125.5 -129t201.5 -51q120 0 216 75t146 192t50 249q0 151 -81.5 240.5t-217.5 89.5q-99 0 -189.5 -54.5t-146.5 -136.5z" />
<glyph unicode="fh" horiz-adv-x="1648" d="M90 0l199 895h-164l20 94h164l19 90q68 307 307 307q92 0 156 -43l-48 -86q-41 33 -106 33q-83 0 -130.5 -53.5t-70.5 -157.5l-20 -90h202l-22 -94h-201l-196 -895h-109zM598 0l301 1366h107l-115 -526q178 174 356 174q131 0 210 -62t79 -180q0 -38 -12 -84l-152 -688 h-106l147 672q12 54 12 71q0 88 -60 131.5t-161 43.5q-86 0 -174.5 -50.5t-159.5 -124.5l-165 -743h-107z" />
<glyph unicode="fk" horiz-adv-x="1576" d="M90 0l199 895h-164l20 94h164l19 90q68 307 307 307q92 0 156 -43l-48 -86q-41 33 -106 33q-83 0 -130.5 -53.5t-70.5 -157.5l-20 -90h202l-22 -94h-201l-196 -895h-109zM598 0l301 1366h107l-207 -934l700 557h150l-562 -446l340 -543h-131l-297 477l-229 -180l-65 -297 h-107z" />
<glyph unicode=" "  horiz-adv-x="530" />
<glyph unicode="&#x09;" horiz-adv-x="530" />
<glyph unicode="&#xa0;" horiz-adv-x="530" />
<glyph unicode="!" horiz-adv-x="448" d="M39 63q0 40 29 68.5t69 28.5q35 0 58.5 -24t23.5 -58q0 -41 -29 -69.5t-69 -28.5q-35 0 -58.5 24t-23.5 59zM150 356l196 1010h137l-250 -1010h-83z" />
<glyph unicode="&#x22;" horiz-adv-x="649" d="M242 874q47 393 51 422q3 40 26.5 65t59.5 25q27 0 46 -19t19 -48q0 -1 -10 -41l-133 -404h-59zM510 874q47 393 51 422q5 41 27.5 65.5t58.5 24.5q28 0 47 -19t19 -48q0 -5 -2 -13.5t-5 -17t-4 -10.5l-133 -404h-59z" />
<glyph unicode="#" horiz-adv-x="1185" d="M23 381l43 84h229l244 436h-230l41 84h236l209 381h96l-209 -381h240l208 381h99l-213 -381h227l-41 -84h-231l-244 -436h236l-43 -84h-238l-213 -381h-96l215 381h-244l-211 -381h-96l211 381h-225zM391 465h238l245 436h-239z" />
<glyph unicode="$" horiz-adv-x="1196" d="M53 215l86 84q56 -79 140.5 -133t187.5 -74l127 567q-64 28 -103.5 47t-91 52t-80.5 65.5t-50 80.5t-21 104q0 157 134 269t327 112q23 0 47 -3l41 187h94l-45 -199q110 -22 197 -74t137 -124l-88 -82q-90 132 -269 174l-114 -514q63 -28 104.5 -48.5t92.5 -54.5t81 -68 t51 -83.5t21 -106.5q0 -62 -19.5 -122t-60 -113.5t-97 -94t-136 -64.5t-171.5 -24q-26 0 -40 2l-39 -182h-95l43 193q-132 22 -236 82.5t-155 144.5zM375 1020q0 -41 18.5 -75t56.5 -62.5t76 -48.5t97 -46l108 492q-10 2 -33 2q-134 0 -228.5 -79.5t-94.5 -182.5zM559 82h27 q87 0 156 27.5t108.5 71.5t59.5 95t20 103q0 44 -19 81t-57 67t-77 51.5t-97 46.5z" />
<glyph unicode="%" horiz-adv-x="1474" d="M152 0l1173 1366h94l-1175 -1366h-92zM184 989q0 173 106.5 285t252.5 112q125 0 210 -76t85 -196q0 -173 -107 -286t-252 -113q-125 0 -210 76.5t-85 197.5zM279 997q0 -88 57.5 -145t146.5 -57q104 0 182 90t78 219q0 88 -57.5 145.5t-146.5 57.5q-105 0 -182.5 -89.5 t-77.5 -220.5zM715 250q0 173 106.5 285t251.5 112q127 0 212 -76.5t85 -197.5q0 -173 -106.5 -285.5t-251.5 -112.5q-126 0 -211.5 77t-85.5 198zM809 258q0 -88 58.5 -145.5t146.5 -57.5q105 0 182.5 89.5t77.5 220.5q0 88 -57.5 145t-145.5 57q-105 0 -183.5 -89.5 t-78.5 -219.5z" />
<glyph unicode="&#x26;" horiz-adv-x="1308" d="M43 309q0 65 15 120.5t44.5 99.5t64.5 79.5t84.5 66.5t94 53.5t103.5 47.5q-52 132 -52 244q0 149 108.5 257.5t252.5 108.5q123 0 201.5 -60.5t78.5 -170.5q0 -49 -13 -92t-33 -76t-55 -64t-67 -52.5t-81 -46t-85.5 -40t-91.5 -37.5q-13 -5 -20 -8q40 -87 119 -217 q64 -109 143 -229q142 153 231 321l89 -51q-134 -215 -263 -350q50 -69 166 -213h-147q-26 31 -103 133q-191 -158 -387 -158q-173 0 -285 88.5t-112 245.5zM166 324q0 -121 82.5 -187.5t202.5 -66.5q152 0 319 143q-111 162 -156 242q-89 150 -131 239q-72 -33 -123 -64 t-98.5 -75t-71.5 -102t-24 -129zM512 1022q0 -91 45 -203q60 23 96.5 38.5t85.5 40t78 47.5t57 53.5t41 67t13 79.5q0 72 -48.5 111.5t-119.5 39.5q-43 0 -86 -18.5t-79.5 -51.5t-59.5 -86.5t-23 -117.5z" />
<glyph unicode="'" horiz-adv-x="382" d="M242 874q47 393 51 422q3 40 26.5 65t59.5 25q27 0 46 -19t19 -48q0 -1 -10 -41l-133 -404h-59z" />
<glyph unicode="(" horiz-adv-x="464" d="M51 172q0 317 131.5 631.5t382.5 599.5l53 -53q-220 -296 -336 -597.5t-116 -629.5q0 -212 74 -490l-74 -41q-115 269 -115 580z" />
<glyph unicode=")" horiz-adv-x="464" d="M-156 -354q221 296 337 597.5t116 628.5q0 212 -74 490l74 41q115 -269 115 -580q0 -317 -131.5 -631.5t-382.5 -599.5z" />
<glyph unicode="*" horiz-adv-x="686" d="M186 1024l236 84l-186 129l51 61l172 -149l41 237h78l-66 -241l229 104l23 -69l-236 -84l187 -129l-53 -62l-170 150l-41 -238h-80l67 244l-229 -107z" />
<glyph unicode="+" horiz-adv-x="1015" d="M92 647l19 86h403l94 432h92l-94 -432h404l-21 -86h-403l-99 -444h-90l99 444h-404z" />
<glyph unicode="," horiz-adv-x="448" d="M-37 -184q57 29 102 77t58 95h-14q-28 0 -49 21.5t-21 51.5q0 41 28.5 70t67.5 29q38 0 63 -26.5t25 -72.5q0 -85 -63 -170.5t-148 -128.5z" />
<glyph unicode="-" horiz-adv-x="614" d="M49 446l21 99h491l-20 -99h-492z" />
<glyph unicode="." horiz-adv-x="448" d="M39 63q0 40 29 68.5t69 28.5q35 0 58.5 -24t23.5 -58q0 -41 -29 -69.5t-69 -28.5q-35 0 -58.5 24t-23.5 59z" />
<glyph unicode="/" horiz-adv-x="577" d="M-121 -41l805 1448h96l-807 -1448h-94z" />
<glyph unicode="0" horiz-adv-x="1245" d="M133 500q0 120 27 244.5t81.5 239t128.5 204.5t176.5 144t217.5 54q209 0 317.5 -139.5t108.5 -382.5q0 -120 -26.5 -244.5t-80.5 -240t-127 -206t-175 -144.5t-216 -54q-209 0 -320.5 141.5t-111.5 383.5zM256 492q0 -89 17.5 -162t54.5 -129.5t99.5 -87.5t145.5 -31 q110 0 206 75t158 192t97 255t35 268q0 89 -17.5 161.5t-54.5 128.5t-99 87t-146 31q-89 0 -169 -49t-138.5 -130t-102 -183.5t-65 -212.5t-21.5 -213z" />
<glyph unicode="1" horiz-adv-x="630" d="M174 1049l371 317h106l-301 -1366h-117l265 1206l-269 -233z" />
<glyph unicode="2" horiz-adv-x="1191" d="M4 0l29 123q137 87 225 144.5t201.5 136t184.5 136t147.5 128t119 128.5t70 122t27.5 124q0 110 -87.5 174t-228.5 64q-217 0 -354 -137l-64 82q73 73 186 117t236 44q86 0 163 -20.5t139 -61t98.5 -107t36.5 -150.5q0 -54 -16.5 -109.5t-45 -107t-74 -107t-93.5 -104.5 t-115.5 -105t-129 -103t-143.5 -103t-150 -100.5t-157 -101.5h719l-23 -106h-901z" />
<glyph unicode="3" horiz-adv-x="1114" d="M2 260l94 62q45 -109 154 -174.5t242 -65.5q164 0 262 92t98 236q0 108 -89.5 174.5t-236.5 66.5q-70 0 -116 -4l26 111q18 -2 182 -2q94 0 173 30t130.5 95t51.5 155q0 104 -91.5 174t-240.5 70q-197 0 -350 -143l-58 82q76 78 187 122.5t227 44.5q197 0 321 -89.5 t124 -249.5q0 -78 -33 -144.5t-87.5 -110t-119 -69.5t-131.5 -31q106 -25 177 -101t71 -188q0 -86 -34.5 -164t-95.5 -136.5t-151 -93t-194 -34.5q-168 0 -306.5 80t-185.5 205z" />
<glyph unicode="4" horiz-adv-x="1107" d="M43 373l27 112l790 881h166l-197 -887h201l-22 -106h-201l-82 -373h-117l82 373h-647zM186 479h527l170 770z" />
<glyph unicode="5" horiz-adv-x="1191" d="M86 252l94 67q104 -237 385 -237q155 0 266 108t111 265q0 137 -92 213.5t-238 76.5q-158 0 -299 -102l-77 45l149 678h789l-23 -106h-672l-112 -506q51 40 128 67t164 27q109 0 199.5 -42t148.5 -131t58 -210q0 -131 -64 -242.5t-182 -179.5t-264 -68q-340 0 -469 277z " />
<glyph unicode="6" horiz-adv-x="1196" d="M125 467q0 93 16.5 193.5t49.5 204.5t87.5 197t123.5 165.5t164.5 115.5t205.5 43q138 0 239 -55.5t154 -156.5l-88 -76q-39 87 -119 134.5t-192 47.5q-85 0 -159 -35.5t-127 -92.5t-96.5 -136t-70.5 -157.5t-47 -166.5q-1 -3 -10 -39q64 73 178 132t232 59 q182 0 294.5 -95.5t112.5 -259.5q0 -135 -65.5 -253t-183.5 -189.5t-261 -71.5q-211 0 -324.5 128t-113.5 364zM238 436q0 -160 86 -257t243 -97q108 0 197 55.5t137.5 145t48.5 190.5q0 124 -87.5 196t-233.5 72q-212 0 -387 -196q-4 -36 -4 -109z" />
<glyph unicode="7" horiz-adv-x="1028" d="M137 0l848 1260h-749l22 106h895l-18 -82l-863 -1284h-135z" />
<glyph unicode="8" horiz-adv-x="1169" d="M76 317q0 156 117.5 261.5t310.5 140.5q-103 39 -176.5 114.5t-73.5 178.5q0 74 27.5 137t73 106t105.5 73t124.5 44t130.5 14q117 0 216 -38t161.5 -114t62.5 -177q0 -149 -110.5 -244t-290.5 -121q47 -20 90 -47t85.5 -67t67.5 -95t25 -118q0 -110 -64.5 -200 t-173.5 -140t-239 -50q-134 0 -239 38.5t-167.5 117t-62.5 186.5zM201 338q0 -121 99.5 -188.5t246.5 -67.5q89 0 169 33.5t133.5 101.5t53.5 156q0 53 -27.5 102t-71.5 83.5t-91.5 58.5t-94.5 36q-182 -12 -299.5 -98.5t-117.5 -216.5zM373 1006q0 -61 44.5 -116t103.5 -88 t120 -48q175 14 282 89t107 201q0 99 -93 166.5t-226 67.5q-139 0 -238.5 -73.5t-99.5 -198.5z" />
<glyph unicode="9" horiz-adv-x="1196" d="M111 190l86 76q39 -87 119.5 -134.5t193.5 -47.5q85 0 158.5 35.5t126 92.5t96.5 136t71.5 157.5t47.5 166.5q8 36 8 39q-64 -73 -178 -132t-232 -59q-183 0 -295 95t-112 259q0 135 66 253t184 190t260 72q211 0 324.5 -128t113.5 -364q0 -79 -11.5 -164.5t-37 -175.5 t-62 -173.5t-90 -158t-118 -129.5t-149 -87t-179.5 -32q-137 0 -237.5 56t-153.5 157zM324 891q0 -124 87.5 -196t233.5 -72q107 0 207 52t180 144q4 36 4 109q0 160 -85.5 257t-243.5 97q-162 0 -272.5 -117.5t-110.5 -273.5z" />
<glyph unicode=":" horiz-adv-x="444" d="M39 63q0 40 29 68.5t69 28.5q35 0 58.5 -24t23.5 -58q0 -41 -29 -69.5t-69 -28.5q-35 0 -58.5 24t-23.5 59zM225 907q0 40 29.5 68.5t69.5 28.5q35 0 58.5 -24t23.5 -58q0 -41 -29.5 -69t-69.5 -28q-35 0 -58.5 23.5t-23.5 58.5z" />
<glyph unicode=";" horiz-adv-x="448" d="M-37 -184q57 29 102 77t58 95h-14q-28 0 -49 21.5t-21 51.5q0 41 28.5 70t67.5 29q38 0 63 -26.5t25 -72.5q0 -85 -63 -170.5t-148 -128.5zM225 907q0 40 29.5 68.5t69.5 28.5q35 0 58.5 -24t23.5 -58q0 -41 -29.5 -69t-69.5 -28q-35 0 -58.5 23.5t-23.5 58.5z" />
<glyph unicode="&#x3c;" horiz-adv-x="1015" d="M90 647l19 76l999 465l-25 -107l-876 -401l698 -399l-20 -97z" />
<glyph unicode="=" horiz-adv-x="1015" d="M45 442l21 84h897l-19 -84h-899zM135 842l19 86h897l-19 -86h-897z" />
<glyph unicode="&#x3e;" horiz-adv-x="1015" d="M-12 184l24 107l881 397l-703 404l21 96l795 -465l-17 -76z" />
<glyph unicode="?" horiz-adv-x="950" d="M195 1212q174 174 407 174q180 0 292 -83t112 -216q0 -74 -30 -134.5t-78 -100.5t-106 -74t-116.5 -62.5t-106.5 -57.5t-78 -68t-30 -86q0 -53 39 -92l-92 -52q-54 69 -54 148q0 60 29 108.5t75 81.5t102 62.5t111.5 59.5t101.5 63t75 81.5t29 108.5q0 94 -75.5 150.5 t-207.5 56.5q-200 0 -344 -147zM270 63q0 40 29.5 68.5t69.5 28.5q35 0 58.5 -24t23.5 -58q0 -41 -29 -69.5t-70 -28.5q-34 0 -58 24t-24 59z" />
<glyph unicode="@" horiz-adv-x="1603" d="M113 500q0 163 67.5 313t179 257.5t260.5 172t306 64.5q188 0 336.5 -88.5t228.5 -238.5t80 -333q0 -112 -28 -203.5t-74.5 -149.5t-105.5 -89t-124 -31q-80 0 -129 51.5t-51 122.5l-2 12q-58 -80 -148 -133t-188 -53q-141 0 -227 89.5t-86 238.5q0 107 42 205 t110.5 166.5t157 109.5t179.5 41q97 0 165.5 -48t100.5 -122l27 133h100l-121 -577q-4 -24 -4 -39q0 -52 30 -82.5t73 -30.5q26 0 55.5 11t62.5 40t59 71t43 112t17 157q0 168 -73 302.5t-207 212t-305 77.5q-146 0 -283.5 -62t-237.5 -163t-160.5 -236.5t-60.5 -277.5 q0 -163 76 -296t212 -209.5t304 -76.5q197 0 383 117l35 -51q-200 -129 -426 -129q-183 0 -332 85t-233 232t-84 326zM514 506q0 -108 61 -177t166 -69t191 59.5t145 145.5l66 303q-23 66 -82.5 118t-151.5 52q-106 0 -198 -62t-144.5 -161.5t-52.5 -208.5z" />
<glyph unicode="A" horiz-adv-x="1325" d="M-80 0l860 1366h146l258 -1366h-129l-62 336h-723l-209 -336h-141zM332 442h647l-148 799z" />
<glyph unicode="B" horiz-adv-x="1259" d="M59 0l301 1366h527q142 0 240 -85.5t98 -223.5q0 -144 -93.5 -249t-224.5 -120q84 -22 141.5 -103.5t57.5 -178.5q0 -79 -28.5 -151t-84 -129.5t-146 -91.5t-204.5 -34h-584zM199 106h450q156 0 246 91t90 215q0 103 -67 169t-183 66h-416zM344 754h447q81 0 142.5 25.5 t95.5 68.5t50.5 92.5t16.5 103.5q0 92 -68.5 154t-167.5 62h-405z" />
<glyph unicode="C" horiz-adv-x="1374" d="M137 567q0 181 64.5 337.5t171 261t242.5 164t280 59.5q180 0 319.5 -76t217.5 -217l-113 -52q-68 122 -180.5 180t-251.5 58q-117 0 -228.5 -50.5t-199.5 -140.5t-141.5 -226t-53.5 -294q0 -221 134 -355t360 -134q206 0 387 156l82 -70q-99 -96 -223 -144.5t-252 -48.5 q-178 0 -317.5 73t-218.5 208.5t-79 310.5z" />
<glyph unicode="D" horiz-adv-x="1417" d="M59 0l301 1366h426q113 0 215 -44t177 -120t119 -185t44 -233q0 -115 -32.5 -226.5t-102 -212.5t-167 -177.5t-238.5 -122t-307 -45.5h-435zM199 106h319h-4q158 0 292 54.5t223.5 147t139.5 214.5t50 258q0 207 -130 343.5t-325 136.5h-309z" />
<glyph unicode="E" horiz-adv-x="1155" d="M59 0l301 1366h867l-23 -106h-749l-111 -506h733l-24 -107h-734l-120 -541h749l-22 -106h-867z" />
<glyph unicode="F" horiz-adv-x="1110" d="M59 0l301 1366h867l-23 -106h-749l-111 -506h733l-24 -107h-734l-143 -647h-117z" />
<glyph unicode="G" horiz-adv-x="1456" d="M137 567q0 175 61.5 329t165.5 261.5t244 169.5t293 62q178 0 313.5 -75t212.5 -206l-104 -53q-61 111 -177 169t-259 58q-120 0 -233 -53.5t-199.5 -145.5t-138.5 -226t-52 -286q0 -223 135 -356t359 -133q222 0 397 164l72 327h-516l22 107h635l-108 -490 q-221 -215 -508 -215q-278 0 -446.5 165.5t-168.5 426.5z" />
<glyph unicode="H" horiz-adv-x="1439" d="M59 0l301 1366h117l-133 -610h864l135 610h119l-301 -1366h-119l144 649h-867l-143 -649h-117z" />
<glyph unicode="I" horiz-adv-x="456" d="M59 0l301 1366h117l-301 -1366h-117z" />
<glyph unicode="J" horiz-adv-x="962" d="M-39 156l80 82q39 -74 109 -115t163 -41q136 0 221 84t117 229l215 971h117l-213 -971q-46 -210 -162 -315t-289 -105q-119 0 -213.5 46.5t-144.5 134.5z" />
<glyph unicode="K" horiz-adv-x="1200" d="M59 0l301 1366h117l-162 -733l813 733h158l-725 -651l479 -715h-139l-426 649l-192 -172l-107 -477h-117z" />
<glyph unicode="L" horiz-adv-x="991" d="M31 0l301 1366h119l-279 -1260h659l-20 -106h-780z" />
<glyph unicode="M" horiz-adv-x="1617" d="M59 0l301 1366h168l213 -1137l717 1137h180l-301 -1366h-118l268 1219l-766 -1219h-45l-230 1219l-270 -1219h-117z" />
<glyph unicode="N" horiz-adv-x="1431" d="M59 0l301 1366h119l596 -1167l260 1167h117l-301 -1366h-115l-598 1184l-262 -1184h-117z" />
<glyph unicode="O" horiz-adv-x="1564" d="M137 567q0 170 60.5 323t162.5 262t241.5 173t293.5 64q127 0 238 -39.5t194.5 -113t131.5 -187t48 -252.5q0 -226 -101.5 -415.5t-275 -298t-378.5 -108.5q-128 0 -239.5 39.5t-195.5 113t-132 187t-48 252.5zM264 571q0 -116 39 -210t107 -154.5t157 -92.5t191 -32 q123 0 236.5 53.5t198.5 146t136 226.5t51 285q0 116 -39 210t-107 154.5t-157.5 92.5t-191.5 32q-123 0 -236.5 -53.5t-198.5 -146t-135.5 -226t-50.5 -285.5z" />
<glyph unicode="P" horiz-adv-x="1169" d="M59 0l301 1366h490q148 0 248 -101.5t100 -240.5q0 -65 -17.5 -128.5t-57 -123.5t-96.5 -105t-143.5 -72.5t-191.5 -27.5h-389l-127 -567h-117zM326 674h381h-2q89 0 160.5 28t116 76t68 108.5t23.5 129.5q0 99 -72.5 171.5t-179.5 72.5h-366z" />
<glyph unicode="Q" horiz-adv-x="1564" d="M137 567q0 170 60.5 323t162.5 262t241.5 173t293.5 64q127 0 238 -39.5t194.5 -113t131.5 -187t48 -252.5q0 -205 -84.5 -381t-230.5 -289l92 -123l-94 -59l-90 121q-166 -91 -348 -91q-128 0 -239.5 39.5t-195.5 113t-132 187t-48 252.5zM264 571q0 -116 39 -210 t107 -154.5t157 -92.5t191 -32q142 0 274 74l-176 239l94 60l174 -238q119 98 187.5 247t68.5 329q0 116 -39 210t-107 154.5t-157.5 92.5t-191.5 32q-123 0 -236.5 -53.5t-198.5 -146t-135.5 -226t-50.5 -285.5z" />
<glyph unicode="R" horiz-adv-x="1216" d="M59 0l301 1366h469q70 0 136 -23.5t118.5 -66t84.5 -109t32 -145.5q0 -193 -128.5 -319t-338.5 -132l268 -571h-133l-258 565h-309l-125 -565h-117zM326 672h376h5q172 0 269 99t97 245q0 104 -78 174t-178 70h-362z" />
<glyph unicode="S" horiz-adv-x="1189" d="M49 215l86 84q72 -102 187.5 -159.5t259.5 -57.5q87 0 156 27.5t108.5 71.5t59.5 95t20 103q0 48 -23.5 88t-63 69t-90.5 55t-107.5 49t-113 47.5t-107.5 55t-90.5 66.5t-63 87t-23.5 112q0 157 134 269t327 112q155 0 281 -58t190 -155l-89 -82q-62 93 -167 140.5 t-226 47.5q-134 0 -228.5 -79.5t-94.5 -182.5q0 -49 29.5 -90t77.5 -69t109.5 -57.5t125.5 -54t125.5 -59.5t109.5 -73.5t77.5 -96t29.5 -127.5q0 -62 -19.5 -122t-60 -113.5t-97 -94t-136 -64.5t-171.5 -24q-171 0 -314 68t-208 172z" />
<glyph unicode="T" horiz-adv-x="1155" d="M240 1260l22 106h1012l-23 -106h-446l-279 -1260h-118l278 1260h-446z" />
<glyph unicode="U" horiz-adv-x="1404" d="M166 420q0 47 10 104l184 842h119l-184 -840q-12 -48 -12 -92q0 -158 103 -255t286 -97q192 0 296.5 112t153.5 332l185 840h118l-184 -842q-30 -132 -73 -228.5t-109.5 -171t-163 -112t-223.5 -37.5q-235 0 -370.5 120t-135.5 325z" />
<glyph unicode="V" horiz-adv-x="1325" d="M221 1366h129l223 -1235l770 1235h142l-860 -1366h-146z" />
<glyph unicode="W" horiz-adv-x="1775" d="M229 1366h129l62 -1202l602 1202h106l70 -1202l594 1202h135l-690 -1366h-131l-70 1174l-585 -1174h-132z" />
<glyph unicode="X" horiz-adv-x="1320" d="M-72 0l701 709l-369 657h135l322 -580l565 580h160l-662 -672l391 -694h-133l-348 618l-604 -618h-158z" />
<glyph unicode="Y" horiz-adv-x="1265" d="M221 1366h131l314 -672l608 672h151l-714 -782l-129 -584h-119l131 584z" />
<glyph unicode="Z" horiz-adv-x="1189" d="M-8 0l22 102l1069 1158h-811l21 106h971l-21 -100l-1071 -1160h827l-22 -106h-985z" />
<glyph unicode="[" horiz-adv-x="466" d="M-121 -389l393 1778h357l-21 -89h-264l-356 -1601h264l-19 -88h-354z" />
<glyph unicode="\" horiz-adv-x="577" d="M201 1407h92l164 -1448h-92z" />
<glyph unicode="]" horiz-adv-x="466" d="M-162 -389l21 88h262l356 1601h-266l20 89h357l-395 -1778h-355z" />
<glyph unicode="^" horiz-adv-x="876" d="M78 682l508 684h86l205 -684h-93l-168 600l-434 -600h-104z" />
<glyph unicode="_" horiz-adv-x="1155" d="M-154 -170l21 88h1165l-20 -88h-1166z" />
<glyph unicode="`" horiz-adv-x="442" d="M207 1434h127l250 -295h-90z" />
<glyph unicode="a" horiz-adv-x="1169" d="M92 381q0 125 38 240t104.5 202t165 139t212.5 52q118 0 211 -52.5t146 -140.5l35 168h108l-219 -989h-109l35 150q-64 -81 -151 -128t-189 -47q-173 0 -280 109t-107 297zM209 401q0 -151 81.5 -240t217.5 -89q100 0 191 54.5t145 135.5l104 475q-39 78 -125.5 129.5 t-201.5 51.5q-119 0 -215.5 -75.5t-146.5 -193t-50 -248.5z" />
<glyph unicode="b" horiz-adv-x="1169" d="M55 0l301 1366h107l-115 -526q62 81 149.5 127.5t190.5 46.5q172 0 278.5 -109t106.5 -297q0 -167 -63.5 -310.5t-183.5 -233t-271 -89.5q-119 0 -211 52.5t-145 140.5l-37 -168h-107zM217 252q39 -78 126 -129t202 -51q91 0 169.5 44t130.5 116.5t81.5 165t29.5 190.5 q0 151 -81.5 240.5t-217.5 89.5q-99 0 -189 -54.5t-146 -136.5z" />
<glyph unicode="c" horiz-adv-x="1011" d="M94 414q0 161 72 299t199 219.5t278 81.5q248 0 354 -180l-82 -62q-41 73 -112 109.5t-156 36.5q-131 0 -233.5 -73t-154.5 -187t-52 -246q0 -163 94.5 -251.5t243.5 -88.5q81 0 150 34t118 93l61 -74q-147 -150 -339 -150q-196 0 -318.5 116.5t-122.5 322.5z" />
<glyph unicode="d" horiz-adv-x="1169" d="M92 381q0 125 38 240t104.5 202t165 139t212.5 52q118 0 211 -52.5t146 -140.5l118 545h109l-303 -1366h-109l35 150q-64 -81 -151 -128t-189 -47q-173 0 -280 109t-107 297zM209 401q0 -151 81.5 -240t217.5 -89q100 0 191 54.5t145 135.5l104 475q-39 78 -125.5 129.5 t-201.5 51.5q-119 0 -215.5 -75.5t-146.5 -193t-50 -248.5z" />
<glyph unicode="e" horiz-adv-x="1161" d="M94 412q0 122 43 233t116 192t175 129t215 48q193 0 306.5 -121t113.5 -307q0 -58 -16 -125h-836q-4 -24 -4 -58q0 -144 94 -239.5t268 -95.5q78 0 157.5 27t141.5 79l41 -78q-70 -54 -160.5 -87.5t-183.5 -33.5q-219 0 -345 120t-126 317zM221 545h731h6q3 15 3 45 q0 149 -87 240.5t-243 91.5q-147 0 -265 -111t-145 -266z" />
<glyph unicode="f" horiz-adv-x="542" d="M90 0l199 895h-164l20 94h164l19 90q29 144 105.5 225.5t201.5 81.5q121 0 196 -75l-65 -76q-48 55 -129 55q-83 0 -130.5 -53.5t-70.5 -157.5l-20 -90h202l-22 -94h-201l-196 -895h-109z" />
<glyph unicode="g" horiz-adv-x="1167" d="M8 -233l76 79q100 -151 350 -151q61 0 115.5 17t102 53t82.5 98t52 145l31 150q-63 -80 -153.5 -127t-196.5 -47q-165 0 -270 105t-105 306q0 95 23 186t67.5 169t106 137t143.5 93t174 34q104 0 204 -55t155 -138l39 168h108l-219 -981q-25 -110 -70 -190.5 t-105.5 -127.5t-130.5 -69t-153 -22q-148 0 -251.5 37.5t-174.5 130.5zM207 410q0 -154 80.5 -242t218.5 -88q91 0 182.5 50.5t151.5 125.5l108 479q-44 83 -137.5 133t-200.5 50q-120 0 -214 -76.5t-141.5 -191t-47.5 -240.5z" />
<glyph unicode="h" horiz-adv-x="1105" d="M55 0l301 1366h107l-115 -526q76 75 168.5 124.5t188.5 49.5q131 0 209.5 -62t78.5 -180q0 -38 -12 -84l-152 -688h-106l147 672q13 58 13 71q0 88 -60 131.5t-161 43.5q-86 0 -174.5 -50.5t-159.5 -124.5l-166 -743h-107z" />
<glyph unicode="i" horiz-adv-x="438" d="M55 0l219 989h107l-219 -989h-107zM295 1217q0 39 29.5 64.5t62.5 25.5q32 0 54 -21t22 -51q0 -39 -29.5 -64.5t-64.5 -25.5q-31 0 -52.5 21.5t-21.5 50.5z" />
<glyph unicode="j" horiz-adv-x="438" d="M-371 -313l64 82q25 -32 63 -53t80 -21q150 0 191 180l247 1114h107l-248 -1114q-31 -140 -99.5 -208t-185.5 -68q-149 0 -219 88zM295 1217q0 39 29.5 64.5t62.5 25.5q32 0 54 -21t22 -51q0 -39 -29.5 -64.5t-64.5 -25.5q-31 0 -52.5 21.5t-21.5 50.5z" />
<glyph unicode="k" horiz-adv-x="1034" d="M55 0l301 1366h107l-207 -934l700 557h150l-561 -446l340 -543h-131l-297 477l-230 -180l-65 -297h-107z" />
<glyph unicode="l" horiz-adv-x="438" d="M55 0l301 1366h107l-301 -1366h-107z" />
<glyph unicode="m" horiz-adv-x="1615" d="M55 0l219 989h107l-33 -149q35 40 75 74.5t107.5 67t133.5 32.5q59 0 108.5 -19.5t79 -50t45.5 -63.5t16 -64v-4q70 86 157.5 143.5t182.5 57.5q105 0 177.5 -64t72.5 -178q0 -26 -12 -84l-152 -688h-106l151 688q9 36 9 55q0 81 -52.5 128t-128.5 47q-74 0 -154.5 -50 t-142.5 -123l-163 -745h-109l154 688q8 62 8 68q-2 72 -50 117t-134 45q-72 0 -150.5 -49.5t-142.5 -123.5l-166 -745h-107z" />
<glyph unicode="n" horiz-adv-x="1105" d="M55 0l219 989h107l-33 -149q76 75 168.5 124.5t188.5 49.5q131 0 209.5 -62t78.5 -180q0 -38 -12 -84l-152 -688h-106l147 672q13 58 13 71q0 88 -60 131.5t-161 43.5q-86 0 -175 -50t-159 -123l-166 -745h-107z" />
<glyph unicode="o" horiz-adv-x="1169" d="M92 410q0 156 70 294.5t196.5 224t278.5 85.5q199 0 317.5 -118.5t118.5 -315.5q0 -156 -70 -294.5t-196.5 -224.5t-278.5 -86q-199 0 -317.5 119t-118.5 316zM209 414q0 -157 85 -249.5t236 -92.5q120 0 219 72.5t153 187.5t54 243q0 157 -85 250t-236 93 q-120 0 -219 -72.5t-153 -188t-54 -243.5z" />
<glyph unicode="p" horiz-adv-x="1161" d="M-29 -377l303 1366h107l-33 -149q62 81 149.5 127.5t190.5 46.5q172 0 278.5 -109t106.5 -297q0 -167 -63.5 -310.5t-183.5 -233t-271 -89.5q-119 0 -211 52.5t-145 140.5l-121 -545h-107zM217 252q39 -78 126 -129t202 -51q91 0 169.5 44t130.5 116.5t81.5 165 t29.5 190.5q0 151 -81.5 240.5t-217.5 89.5q-99 0 -189 -54.5t-146 -136.5z" />
<glyph unicode="q" horiz-adv-x="1161" d="M92 381q0 125 38 240t104.5 202t165 139t212.5 52q118 0 211 -52.5t146 -140.5l35 168h108l-303 -1366h-109l119 527q-64 -81 -151 -128t-189 -47q-173 0 -280 109t-107 297zM209 401q0 -151 81.5 -240t217.5 -89q100 0 191 54.5t145 135.5l104 475q-39 78 -125.5 129.5 t-201.5 51.5q-119 0 -215.5 -75.5t-146.5 -193t-50 -248.5z" />
<glyph unicode="r" horiz-adv-x="649" d="M55 0l219 989h107l-37 -160q81 95 165 138t212 43l-27 -115q-36 6 -71 6q-85 0 -167 -53t-134 -127l-160 -721h-107z" />
<glyph unicode="s" horiz-adv-x="940" d="M16 150l76 73q41 -66 128.5 -111.5t195.5 -45.5q118 0 190 60.5t72 143.5q0 43 -29 77t-75.5 58.5t-103 46.5t-113 46.5t-103 53t-75.5 72t-29 97.5q0 125 97 209t263 84q122 0 219 -46.5t141 -115.5l-69 -70q-33 60 -117.5 101t-181.5 41q-110 0 -177 -51t-67 -128 q0 -41 29 -73.5t75.5 -55t103 -44t113 -46.5t103 -54.5t75.5 -75.5t29 -103q0 -131 -100 -224.5t-272 -93.5q-273 0 -398 175z" />
<glyph unicode="t" horiz-adv-x="563" d="M111 139q0 30 8 54l155 702h-163l20 94h164l59 271h109l-60 -271h201l-22 -94h-201l-152 -686q-4 -24 -4 -43q0 -94 101 -94q53 0 104 37l21 -86q-66 -48 -142 -48q-95 0 -146.5 40.5t-51.5 123.5z" />
<glyph unicode="u" horiz-adv-x="1105" d="M111 217q0 38 12 84l149 688h109l-150 -670q-10 -45 -10 -73q0 -88 59.5 -131t159.5 -43q88 0 177.5 50t158.5 124l166 743h107l-220 -989h-106l33 150q-179 -175 -357 -175q-131 0 -209.5 62t-78.5 180z" />
<glyph unicode="v" horiz-adv-x="985" d="M123 989h115l165 -864l551 864h125l-637 -989h-120z" />
<glyph unicode="w" horiz-adv-x="1472" d="M143 989h109l78 -839l465 839h90l92 -839l450 839h119l-540 -989h-103l-90 846l-465 -846h-102z" />
<glyph unicode="x" horiz-adv-x="980" d="M-76 0l502 508l-260 481h121l215 -407l395 407h135l-477 -481l281 -508h-121l-232 436l-424 -436h-135z" />
<glyph unicode="y" horiz-adv-x="985" d="M-94 -381l41 102q36 -18 96 -18q42 0 77.5 24.5t78.5 88.5l118 178l-194 995h115l165 -864l551 864h125l-780 -1206q-59 -94 -125.5 -139t-150.5 -45q-62 0 -117 20z" />
<glyph unicode="z" horiz-adv-x="960" d="M4 0l19 88l757 807h-577l20 94h723l-18 -86l-764 -809h590l-19 -94h-731z" />
<glyph unicode="{" horiz-adv-x="509" d="M-31 -190q0 34 8 55l101 448q4 24 4 37q0 46 -22 77.5t-58 31.5l18 82q57 0 92 40.5t48 104.5l100 449q29 124 103.5 189t181.5 65h127l-21 -89h-127q-67 0 -112 -43t-62 -122l-104 -465q-30 -141 -131 -178q59 -32 59 -111q0 -37 -8 -70l-98 -446q-5 -30 -5 -43 q0 -54 34 -88.5t85 -34.5h115l-21 -88h-100q-82 0 -144.5 55.5t-62.5 143.5z" />
<glyph unicode="|" horiz-adv-x="425" d="M211 -41v1448h88v-1448h-88z" />
<glyph unicode="}" horiz-adv-x="509" d="M-164 -389l21 88h125q68 0 113.5 43.5t62.5 122.5l102 465q33 141 133 180q-59 27 -59 108q0 37 8 70l98 447q4 24 4 43q0 54 -33.5 88t-84.5 34h-115l20 89h101q82 0 143.5 -55t61.5 -144q0 -34 -7 -55l-100 -449q-4 -24 -4 -37q0 -46 22 -77t58 -31l-19 -82 q-57 0 -91.5 -41t-47.5 -105l-100 -448q-29 -124 -103.5 -189t-181.5 -65h-127z" />
<glyph unicode="~" horiz-adv-x="1021" d="M141 887q23 99 54 180.5t74 150t101 106.5t126 38q56 0 93.5 -22.5t55.5 -58t28.5 -78.5t17.5 -86t17.5 -78.5t34.5 -58t62 -22.5q81 0 149.5 107.5t114.5 300.5l86 -10q-23 -99 -53.5 -180.5t-73 -151t-101 -108.5t-128.5 -39q-56 0 -93 22t-54.5 57.5t-28 78.5 t-17.5 85.5t-17.5 78t-34.5 57.5t-62 22q-81 0 -151 -107.5t-114 -298.5z" />
<glyph unicode="&#xa1;" horiz-adv-x="448" d="M-39 -377l250 1010h84l-197 -1010h-137zM225 911q0 41 29.5 70t69.5 29q35 0 58.5 -24.5t23.5 -59.5q0 -40 -29.5 -68.5t-69.5 -28.5q-35 0 -58.5 24t-23.5 58z" />
<glyph unicode="&#xa2;" horiz-adv-x="1011" d="M94 414q0 160 71.5 297.5t197.5 219.5t276 83l33 143h90l-35 -149q184 -26 270 -174l-82 -62q-68 118 -208 141l-187 -841h25q81 0 150 34t118 93l61 -74q-147 -150 -339 -150q-25 0 -37 2l-39 -182h-90l43 195q-146 31 -232 142t-86 282zM207 412q0 -131 60.5 -214 t164.5 -112l186 829q-124 -8 -219 -81.5t-143.5 -184t-48.5 -237.5z" />
<glyph unicode="&#xa3;" horiz-adv-x="1032" d="M2 84q158 62 265.5 176.5t107.5 231.5q0 28 -6 55h-322l19 86h270q-11 21 -53.5 85.5t-62 115t-19.5 112.5q0 83 37.5 163.5t101 141t153.5 98t189 37.5q136 0 250.5 -65t144.5 -166l-108 -49q-20 77 -99.5 127.5t-183.5 50.5q-147 0 -252.5 -94.5t-105.5 -247.5 q0 -61 20.5 -112.5t59 -110t51.5 -86.5h301l-19 -86h-258q4 -28 4 -41q0 -102 -73 -197.5t-166 -154.5q56 16 98 16q70 0 176 -45t166 -45q109 0 197 84l33 -96q-116 -97 -234 -97q-62 0 -118.5 15t-93 33.5t-92 33.5t-116.5 15q-96 0 -237 -82z" />
<glyph unicode="&#xa4;" horiz-adv-x="1069" d="M23 283l157 129q-35 64 -49 109.5t-14 111.5q0 193 164 354l-76 100l65 54l80 -99q122 88 273 88q167 0 292 -116l160 131l51 -62l-159 -131q63 -104 63 -221q0 -187 -164 -354l78 -98l-70 -56l-75 101q-126 -91 -271 -91q-170 0 -297 121l-161 -135zM217 645 q0 -139 89 -226t229 -87q157 0 276 115.5t119 271.5q0 139 -89 226t-229 87q-157 0 -276 -115.5t-119 -271.5z" />
<glyph unicode="&#xa5;" horiz-adv-x="1265" d="M-10 258l18 84h537l55 242h-537l17 86h479l-332 696h131l314 -672l608 672h152l-637 -696h465l-19 -86h-524l-53 -242h522l-19 -84h-522l-57 -258h-119l57 258h-536z" />
<glyph unicode="&#xa6;" horiz-adv-x="425" d="M211 -41v647h88v-647h-88zM211 760v647h88v-647h-88z" />
<glyph unicode="&#xa7;" horiz-adv-x="944" d="M-33 -2l78 68q47 -69 138 -108.5t200 -39.5q114 0 187 62t73 153q0 45 -29 79.5t-75 58t-101.5 45t-111 45.5t-101.5 53.5t-75 76t-29 105.5q0 102 82 179.5t231 96.5q-203 73 -203 228q0 113 96 199.5t257 86.5q129 0 228 -40.5t159 -112.5l-74 -62q-49 66 -132.5 99 t-174.5 33q-107 0 -179.5 -55t-72.5 -132q0 -45 29 -80t75.5 -58t103 -43.5t113 -44t103 -53.5t75.5 -78t29 -110q0 -96 -66 -174t-196 -115q84 -44 117 -95t33 -120q0 -59 -25 -114.5t-70.5 -99.5t-116.5 -70.5t-155 -26.5q-281 0 -420 164zM229 612q0 -33 14 -59.5 t34.5 -46t61.5 -39.5t75.5 -33.5t95.5 -34.5q127 36 186.5 98t59.5 132q0 72 -55 116t-160 82q-155 -21 -233.5 -79.5t-78.5 -135.5z" />
<glyph unicode="&#xa8;" horiz-adv-x="536" d="M143 1223q0 34 26 59t60 25q29 0 48.5 -19.5t19.5 -48.5q0 -34 -25.5 -59t-60.5 -25q-28 0 -48 19.5t-20 48.5zM561 1223q0 34 26 59t60 25q29 0 48.5 -19.5t19.5 -48.5q0 -34 -25 -59t-59 -25q-29 0 -49.5 19.5t-20.5 48.5z" />
<glyph unicode="&#xa9;" horiz-adv-x="1593" d="M131 684q0 192 94.5 355t257 257.5t353.5 94.5q192 0 355 -94.5t258 -257.5t95 -355q0 -143 -56 -274t-151 -226t-226 -151t-275 -56q-191 0 -353.5 95t-257 258t-94.5 354zM188 684q0 -175 87 -324.5t236.5 -237t324.5 -87.5q176 0 326 87.5t237.5 237t87.5 324.5 q0 176 -87.5 325.5t-237.5 236.5t-326 87q-131 0 -251 -51.5t-207 -138.5t-138.5 -207t-51.5 -252zM403 629q0 103 41.5 196t109 158t155 103t178.5 38q220 0 317 -163l-55 -39q-36 68 -104.5 104.5t-157.5 36.5q-101 0 -196 -55t-157.5 -156.5t-62.5 -222.5 q0 -134 91.5 -228t234.5 -94q64 0 128.5 27t108.5 69l35 -51q-129 -106 -272 -106q-181 0 -287.5 109.5t-106.5 273.5z" />
<glyph unicode="&#xaa;" horiz-adv-x="837" d="M186 928q0 104 44.5 195.5t125.5 147.5t179 56q80 0 141.5 -31t97.5 -86l23 101h88l-144 -643h-88l23 102q-96 -119 -232 -119q-108 0 -183 72t-75 205zM279 934q0 -100 52.5 -155.5t139.5 -55.5q119 0 221 117l70 311q-26 47 -85 75.5t-130 28.5q-113 0 -190.5 -95 t-77.5 -226z" />
<glyph unicode="&#xab;" horiz-adv-x="823" d="M59 498l410 362h125l-418 -373l238 -358h-109zM315 498l410 362h125l-418 -373l238 -358h-109z" />
<glyph unicode="&#xac;" horiz-adv-x="1021" d="M135 842l19 86h897l-107 -486h-90l88 400h-807z" />
<glyph unicode="&#xad;" horiz-adv-x="614" d="M49 446l21 99h491l-20 -99h-492z" />
<glyph unicode="&#xae;" horiz-adv-x="1011" d="M172 952q0 181 127 307.5t307 126.5q119 0 219 -57.5t157.5 -157.5t57.5 -219q0 -180 -127.5 -307t-308.5 -127q-180 0 -306 127t-126 307zM227 952q0 -156 110.5 -267.5t266.5 -111.5q157 0 269 112t112 267q0 158 -112 268.5t-269 110.5t-267 -110.5t-110 -268.5z M387 702l109 498h186q58 0 99.5 -35t41.5 -96q0 -71 -51.5 -119.5t-112.5 -48.5l91 -199h-74l-86 197h-98l-43 -197h-62zM504 958h141q46 0 79.5 30t33.5 73q0 38 -24.5 60t-61.5 22h-127z" />
<glyph unicode="&#xaf;" horiz-adv-x="743" d="M158 1210l16 78h741l-16 -78h-741z" />
<glyph unicode="&#xb0;" horiz-adv-x="577" d="M193 1147q0 98 69.5 168.5t167.5 70.5t169 -70.5t71 -168.5t-70.5 -167t-169.5 -69q-98 0 -167.5 69t-69.5 167zM274 1147q0 -65 45 -110.5t109 -45.5q65 0 113.5 46t48.5 110q0 66 -47.5 113t-112.5 47q-64 0 -110 -47t-46 -113z" />
<glyph unicode="&#xb1;" horiz-adv-x="1015" d="M-51 0l18 84h897l-18 -84h-897zM94 662l21 83h401l96 435h90l-94 -435h404l-19 -83h-403l-98 -447h-93l99 447h-404z" />
<glyph unicode="&#xb2;" d="M186 862l19 80q70 42 111.5 67.5t101 63t94.5 62t80.5 58.5t72 58.5t55.5 55t44 57t25 55t10 56.5q0 69 -55.5 105t-131.5 36q-144 0 -231 -96l-45 61q107 113 276 113q51 0 98.5 -12t89.5 -36t67.5 -67t25.5 -100q0 -42 -16.5 -84t-41.5 -79t-70 -79t-85.5 -74.5 t-104.5 -75.5t-111.5 -72.5t-121.5 -74.5h436l-16 -78h-576z" />
<glyph unicode="&#xb3;" d="M213 995l66 52q77 -121 243 -121q91 0 146 52.5t55 131.5q0 60 -59.5 98.5t-153.5 38.5q-43 0 -57 -2l16 78q62 -4 121 -4q92 0 148.5 42.5t56.5 115.5q0 64 -59 101.5t-142 37.5q-120 0 -223 -90l-41 59q51 47 123 78t145 31q122 0 205.5 -53t83.5 -152 q0 -92 -64.5 -149.5t-163.5 -65.5q63 -11 110.5 -59.5t47.5 -116.5q0 -97 -81 -173.5t-212 -76.5q-107 0 -188.5 38.5t-122.5 108.5z" />
<glyph unicode="&#xb4;" horiz-adv-x="442" d="M137 1139l381 295h129l-418 -295h-92z" />
<glyph unicode="&#xb6;" horiz-adv-x="919" d="M162 981q0 97 50.5 185t143 144t203.5 56h385l-348 -1571h-78l332 1493h-191l-331 -1493h-78l192 867q-116 0 -198 91t-82 228z" />
<glyph unicode="&#xb7;" horiz-adv-x="448" d="M133 494q0 41 29 68.5t71 27.5q34 0 58 -23.5t24 -58.5q0 -40 -29 -68t-69 -28q-35 0 -59.5 24t-24.5 58z" />
<glyph unicode="&#xb8;" horiz-adv-x="405" d="M-182 -311l47 61q66 -69 170 -69q66 0 100.5 29.5t34.5 74.5q0 31 -22 50.5t-60 19.5q-46 0 -76 -37l-49 32l100 173h78l-84 -138q33 23 70 23q53 0 86 -31t33 -86q0 -79 -59.5 -128.5t-155.5 -49.5q-133 0 -213 76z" />
<glyph unicode="&#xb9;" horiz-adv-x="438" d="M250 1479l244 202h81l-180 -819h-94l152 690l-158 -135z" />
<glyph unicode="&#xba;" horiz-adv-x="829" d="M190 940q0 158 106.5 272.5t260.5 114.5q134 0 215.5 -79.5t81.5 -209.5q0 -158 -106.5 -272.5t-260.5 -114.5q-134 0 -215.5 79.5t-81.5 209.5zM283 940q0 -95 56.5 -154t149.5 -59q121 0 198 92.5t77 218.5q0 94 -57.5 152.5t-149.5 58.5q-121 0 -197.5 -91.5 t-76.5 -217.5z" />
<glyph unicode="&#xbb;" horiz-adv-x="823" d="M-23 129l418 373l-237 358h108l246 -368l-410 -363h-125zM231 129l420 373l-237 358h108l246 -368l-410 -363h-127z" />
<glyph unicode="&#xbc;" horiz-adv-x="1519" d="M86 0l1174 1366h94l-1176 -1366h-92zM180 1163l244 203h82l-180 -819h-95l152 690l-158 -135zM758 219l16 72l483 528h125l-116 -524h123l-15 -76h-123l-49 -219h-90l47 219h-401zM870 295h306l96 432z" />
<glyph unicode="&#xbd;" horiz-adv-x="1599" d="M86 0l1174 1366h94l-1176 -1366h-92zM180 1163l244 203h82l-180 -819h-95l152 690l-158 -135zM809 0l18 80q92 56 142 87t123.5 78.5t113.5 78t87.5 72t71 74t40 69.5t16.5 73q0 69 -55 105.5t-131 36.5q-144 0 -231 -97l-46 62q106 112 277 112q51 0 98.5 -12t89.5 -36 t67.5 -67t25.5 -100q0 -42 -16.5 -84t-41.5 -79t-70 -79t-85.5 -74t-105 -75.5t-111 -72.5t-121.5 -74h436l-17 -78h-575z" />
<glyph unicode="&#xbe;" horiz-adv-x="1759" d="M143 680l66 51q38 -59 101.5 -90t142.5 -31q91 0 145.5 53t54.5 132q0 60 -59.5 98.5t-153.5 38.5q-43 0 -57 -2l16 78q62 -4 121 -4q92 0 148.5 42t56.5 115q0 64 -59 101.5t-142 37.5q-120 0 -223 -90l-41 60q51 46 122.5 77t145.5 31q123 0 206 -52.5t83 -151.5 q0 -92 -64 -150t-163 -66q63 -11 110.5 -59.5t47.5 -116.5q0 -97 -81 -173.5t-212 -76.5q-107 0 -189 39t-123 109zM326 0l1173 1366h94l-1175 -1366h-92zM997 219l17 72l483 528h125l-117 -524h123l-14 -76h-123l-49 -219h-90l47 219h-402zM1110 295h305l96 432z" />
<glyph unicode="&#xbf;" horiz-adv-x="802" d="M-57 -100q0 75 30 135.5t78 101t106 74t116 62.5t106 58t78 68t30 86q0 52 -41 93l95 49q53 -64 53 -146q0 -60 -29 -108.5t-75 -81.5t-102 -63t-112 -59.5t-102 -63t-75 -82.5t-29 -109q0 -92 75.5 -148.5t208.5 -56.5q200 0 342 148l58 -80q-177 -174 -410 -174 q-180 0 -290.5 82.5t-110.5 214.5zM496 911q0 41 29 69t69 28q35 0 58.5 -23.5t23.5 -58.5q0 -40 -28.5 -68.5t-69.5 -28.5q-34 0 -58 24t-24 58z" />
<glyph unicode="&#xc0;" horiz-adv-x="1325" d="M-80 0l860 1366h146l258 -1366h-129l-62 336h-723l-209 -336h-141zM332 442h647l-148 799zM629 1786h127l250 -295h-91z" />
<glyph unicode="&#xc1;" horiz-adv-x="1325" d="M-80 0l860 1366h146l258 -1366h-129l-62 336h-723l-209 -336h-141zM332 442h647l-148 799zM758 1491l381 295h129l-418 -295h-92z" />
<glyph unicode="&#xc2;" horiz-adv-x="1325" d="M-80 0l860 1366h146l258 -1366h-129l-62 336h-723l-209 -336h-141zM332 442h647l-148 799zM629 1491l264 295h111l137 -295h-78l-127 231l-221 -231h-86z" />
<glyph unicode="&#xc3;" horiz-adv-x="1325" d="M-80 0l860 1366h146l258 -1366h-129l-62 336h-723l-209 -336h-141zM332 442h647l-148 799zM571 1499q25 123 83.5 199t146.5 76q43 0 72 -21.5t45 -52t30 -61.5t36.5 -52.5t55.5 -21.5q94 0 144 196h73q-26 -124 -84.5 -199t-146.5 -75q-43 0 -72 21.5t-45 52.5t-30 61.5 t-37 52t-56 21.5q-94 0 -141 -197h-74z" />
<glyph unicode="&#xc4;" horiz-adv-x="1325" d="M-80 0l860 1366h146l258 -1366h-129l-62 336h-723l-209 -336h-141zM332 442h647l-148 799zM616 1567q0 34 26 59t60 25q29 0 48.5 -19.5t19.5 -48.5q0 -34 -25.5 -59t-60.5 -25q-28 0 -48 19.5t-20 48.5zM1034 1567q0 34 26 59t60 25q29 0 48.5 -19.5t19.5 -48.5 q0 -34 -25 -59t-59 -25q-29 0 -49.5 19.5t-20.5 48.5z" />
<glyph unicode="&#xc5;" horiz-adv-x="1325" d="M-80 0l860 1366h146l258 -1366h-129l-62 336h-723l-209 -336h-141zM332 442h647l-148 799zM711 1595q0 87 64 151t151 64q78 0 128 -50t50 -128q0 -87 -64 -151t-151 -64q-78 0 -128 50t-50 128zM776 1602q0 -53 31.5 -86t83.5 -33q59 0 103 42.5t44 100.5q0 53 -31.5 86 t-82.5 33q-60 0 -104 -42.5t-44 -100.5z" />
<glyph unicode="&#xc6;" horiz-adv-x="1923" d="M-82 0l1163 1366h910l-23 -106h-747l-113 -506h733l-22 -107h-736l-118 -541h747l-22 -106h-867l74 336h-555l-283 -336h-141zM426 442h496l174 789z" />
<glyph unicode="&#xc7;" horiz-adv-x="1374" d="M137 567q0 181 64.5 337.5t171 261t242.5 164t280 59.5q180 0 319.5 -76t217.5 -217l-113 -52q-68 122 -180.5 180t-251.5 58q-117 0 -228.5 -50.5t-199.5 -140.5t-141.5 -226t-53.5 -294q0 -221 134 -355t360 -134q206 0 387 156l82 -70q-99 -96 -223 -144.5t-252 -48.5 q-27 0 -39 2l-56 -92q33 23 70 23q53 0 86 -31t33 -86q0 -79 -59.5 -128.5t-155.5 -49.5q-133 0 -213 76l47 61q66 -69 170 -69q66 0 100.5 29.5t34.5 74.5q0 31 -22 50.5t-60 19.5q-46 0 -76 -37l-49 32l78 134q-227 33 -365.5 190t-138.5 393z" />
<glyph unicode="&#xc8;" horiz-adv-x="1155" d="M59 0l301 1366h867l-23 -106h-749l-111 -506h733l-24 -107h-734l-120 -541h749l-22 -106h-867zM567 1786h127l250 -295h-90z" />
<glyph unicode="&#xc9;" horiz-adv-x="1155" d="M59 0l301 1366h867l-23 -106h-749l-111 -506h733l-24 -107h-734l-120 -541h749l-22 -106h-867zM696 1491l381 295h129l-418 -295h-92z" />
<glyph unicode="&#xca;" horiz-adv-x="1155" d="M59 0l301 1366h867l-23 -106h-749l-111 -506h733l-24 -107h-734l-120 -541h749l-22 -106h-867zM563 1491l264 295h111l137 -295h-78l-127 231l-221 -231h-86z" />
<glyph unicode="&#xcb;" horiz-adv-x="1155" d="M59 0l301 1366h867l-23 -106h-749l-111 -506h733l-24 -107h-734l-120 -541h749l-22 -106h-867zM551 1567q0 34 26 59t60 25q29 0 48.5 -19.5t19.5 -48.5q0 -34 -26 -59t-61 -25q-28 0 -47.5 19.5t-19.5 48.5zM969 1567q0 34 26 59t60 25q29 0 48 -19.5t19 -48.5 q0 -34 -25 -59t-59 -25q-29 0 -49 19.5t-20 48.5z" />
<glyph unicode="&#xcc;" horiz-adv-x="456" d="M59 0l301 1366h117l-301 -1366h-117zM195 1786h127l249 -295h-90z" />
<glyph unicode="&#xcd;" horiz-adv-x="456" d="M59 0l301 1366h117l-301 -1366h-117zM324 1491l381 295h129l-418 -295h-92z" />
<glyph unicode="&#xce;" horiz-adv-x="456" d="M59 0l301 1366h117l-301 -1366h-117zM195 1491l264 295h110l138 -295h-78l-127 231l-221 -231h-86z" />
<glyph unicode="&#xcf;" horiz-adv-x="456" d="M59 0l301 1366h117l-301 -1366h-117zM180 1567q0 34 26 59t60 25q29 0 48.5 -19.5t19.5 -48.5q0 -34 -25.5 -59t-60.5 -25q-28 0 -48 19.5t-20 48.5zM598 1567q0 34 26 59t60 25q29 0 48.5 -19.5t19.5 -48.5q0 -34 -25 -59t-59 -25q-29 0 -49.5 19.5t-20.5 48.5z" />
<glyph unicode="&#xd0;" horiz-adv-x="1476" d="M51 633l23 102h207l139 631h426q113 0 215 -44t177 -120t119 -185t44 -233q0 -115 -32.5 -226.5t-102 -212.5t-167.5 -177.5t-239 -122t-307 -45.5h-434l139 633h-207zM258 106h315q158 0 292 54.5t223.5 147t139.5 214.5t50 258q0 207 -130 343.5t-325 136.5h-309 l-117 -525h367l-23 -102h-366z" />
<glyph unicode="&#xd1;" horiz-adv-x="1431" d="M59 0l301 1366h119l596 -1167l260 1167h117l-301 -1366h-115l-598 1184l-262 -1184h-117zM621 1499q25 123 83 199t146 76q43 0 72 -21.5t45 -52t30.5 -61.5t37 -52.5t55.5 -21.5q93 0 143 196h74q-26 -123 -85 -198.5t-147 -75.5q-43 0 -72 21.5t-44.5 52.5t-29.5 61.5 t-37 52t-56 21.5q-95 0 -142 -197h-73z" />
<glyph unicode="&#xd2;" horiz-adv-x="1564" d="M137 567q0 170 60.5 323t162.5 262t241.5 173t293.5 64q127 0 238 -39.5t194.5 -113t131.5 -187t48 -252.5q0 -226 -101.5 -415.5t-275 -298t-378.5 -108.5q-128 0 -239.5 39.5t-195.5 113t-132 187t-48 252.5zM264 571q0 -116 39 -210t107 -154.5t157 -92.5t191 -32 q123 0 236.5 53.5t198.5 146t136 226.5t51 285q0 116 -39 210t-107 154.5t-157.5 92.5t-191.5 32q-123 0 -236.5 -53.5t-198.5 -146t-135.5 -226t-50.5 -285.5zM756 1786h127l250 -295h-91z" />
<glyph unicode="&#xd3;" horiz-adv-x="1564" d="M137 567q0 170 60.5 323t162.5 262t241.5 173t293.5 64q127 0 238 -39.5t194.5 -113t131.5 -187t48 -252.5q0 -226 -101.5 -415.5t-275 -298t-378.5 -108.5q-128 0 -239.5 39.5t-195.5 113t-132 187t-48 252.5zM264 571q0 -116 39 -210t107 -154.5t157 -92.5t191 -32 q123 0 236.5 53.5t198.5 146t136 226.5t51 285q0 116 -39 210t-107 154.5t-157.5 92.5t-191.5 32q-123 0 -236.5 -53.5t-198.5 -146t-135.5 -226t-50.5 -285.5zM879 1491l381 295h129l-418 -295h-92z" />
<glyph unicode="&#xd4;" horiz-adv-x="1564" d="M137 567q0 170 60.5 323t162.5 262t241.5 173t293.5 64q127 0 238 -39.5t194.5 -113t131.5 -187t48 -252.5q0 -226 -101.5 -415.5t-275 -298t-378.5 -108.5q-128 0 -239.5 39.5t-195.5 113t-132 187t-48 252.5zM264 571q0 -116 39 -210t107 -154.5t157 -92.5t191 -32 q123 0 236.5 53.5t198.5 146t136 226.5t51 285q0 116 -39 210t-107 154.5t-157.5 92.5t-191.5 32q-123 0 -236.5 -53.5t-198.5 -146t-135.5 -226t-50.5 -285.5zM750 1491l264 295h110l138 -295h-78l-127 231l-221 -231h-86z" />
<glyph unicode="&#xd5;" horiz-adv-x="1564" d="M137 567q0 170 60.5 323t162.5 262t241.5 173t293.5 64q127 0 238 -39.5t194.5 -113t131.5 -187t48 -252.5q0 -226 -101.5 -415.5t-275 -298t-378.5 -108.5q-128 0 -239.5 39.5t-195.5 113t-132 187t-48 252.5zM264 571q0 -116 39 -210t107 -154.5t157 -92.5t191 -32 q123 0 236.5 53.5t198.5 146t136 226.5t51 285q0 116 -39 210t-107 154.5t-157.5 92.5t-191.5 32q-123 0 -236.5 -53.5t-198.5 -146t-135.5 -226t-50.5 -285.5zM690 1499q25 123 83.5 199t146.5 76q43 0 72 -21.5t45 -52t30 -61.5t36.5 -52.5t55.5 -21.5q94 0 144 196h73 q-26 -124 -84.5 -199t-146.5 -75q-43 0 -72 21.5t-45 52.5t-30 61.5t-37 52t-56 21.5q-94 0 -141 -197h-74z" />
<glyph unicode="&#xd6;" horiz-adv-x="1564" d="M137 567q0 170 60.5 323t162.5 262t241.5 173t293.5 64q127 0 238 -39.5t194.5 -113t131.5 -187t48 -252.5q0 -226 -101.5 -415.5t-275 -298t-378.5 -108.5q-128 0 -239.5 39.5t-195.5 113t-132 187t-48 252.5zM264 571q0 -116 39 -210t107 -154.5t157 -92.5t191 -32 q123 0 236.5 53.5t198.5 146t136 226.5t51 285q0 116 -39 210t-107 154.5t-157.5 92.5t-191.5 32q-123 0 -236.5 -53.5t-198.5 -146t-135.5 -226t-50.5 -285.5zM731 1567q0 34 26 59t60 25q29 0 48.5 -19.5t19.5 -48.5q0 -34 -25.5 -59t-60.5 -25q-28 0 -48 19.5t-20 48.5z M1149 1567q0 34 26 59t60 25q29 0 48.5 -19.5t19.5 -48.5q0 -34 -25 -59t-59 -25q-29 0 -49.5 19.5t-20.5 48.5z" />
<glyph unicode="&#xd7;" horiz-adv-x="1015" d="M106 375l383 315l-239 307l67 56l238 -310l385 314l51 -64l-383 -315l238 -307l-66 -54l-239 308l-381 -314z" />
<glyph unicode="&#xd8;" horiz-adv-x="1564" d="M137 567q0 170 60.5 323t162.5 262t241.5 173t293.5 64q219 0 379 -111l76 88h106l-119 -139q170 -163 170 -430q0 -226 -101.5 -415.5t-275 -298t-378.5 -108.5q-230 0 -387 115l-78 -90h-105l121 141q-166 163 -166 426zM264 571q0 -208 117 -338l815 955 q-133 94 -311 94q-123 0 -236.5 -53.5t-198.5 -146t-135.5 -226t-50.5 -285.5zM440 180q128 -98 318 -98q123 0 236.5 53.5t198.5 146t136 226.5t51 285q0 207 -123 340z" />
<glyph unicode="&#xd9;" horiz-adv-x="1404" d="M166 420q0 47 10 104l184 842h119l-184 -840q-12 -48 -12 -92q0 -158 103 -255t286 -97q192 0 296.5 112t153.5 332l185 840h118l-184 -842q-30 -132 -73 -228.5t-109.5 -171t-163 -112t-223.5 -37.5q-235 0 -370.5 120t-135.5 325zM672 1786h127l250 -295h-91z" />
<glyph unicode="&#xda;" horiz-adv-x="1404" d="M166 420q0 47 10 104l184 842h119l-184 -840q-12 -48 -12 -92q0 -158 103 -255t286 -97q192 0 296.5 112t153.5 332l185 840h118l-184 -842q-30 -132 -73 -228.5t-109.5 -171t-163 -112t-223.5 -37.5q-235 0 -370.5 120t-135.5 325zM795 1491l381 295h129l-418 -295h-92z " />
<glyph unicode="&#xdb;" horiz-adv-x="1404" d="M166 420q0 47 10 104l184 842h119l-184 -840q-12 -48 -12 -92q0 -158 103 -255t286 -97q192 0 296.5 112t153.5 332l185 840h118l-184 -842q-30 -132 -73 -228.5t-109.5 -171t-163 -112t-223.5 -37.5q-235 0 -370.5 120t-135.5 325zM674 1491l264 295h111l137 -295h-78 l-127 231l-221 -231h-86z" />
<glyph unicode="&#xdc;" horiz-adv-x="1404" d="M166 420q0 47 10 104l184 842h119l-184 -840q-12 -48 -12 -92q0 -158 103 -255t286 -97q192 0 296.5 112t153.5 332l185 840h118l-184 -842q-30 -132 -73 -228.5t-109.5 -171t-163 -112t-223.5 -37.5q-235 0 -370.5 120t-135.5 325zM655 1567q0 34 26 59t60 25 q29 0 48.5 -19.5t19.5 -48.5q0 -34 -25.5 -59t-60.5 -25q-28 0 -48 19.5t-20 48.5zM1073 1567q0 34 26 59t60 25q29 0 48.5 -19.5t19.5 -48.5q0 -34 -25 -59t-59 -25q-29 0 -49.5 19.5t-20.5 48.5z" />
<glyph unicode="&#xdd;" horiz-adv-x="1265" d="M221 1366h131l314 -672l608 672h151l-714 -782l-129 -584h-119l131 584zM735 1491l381 295h129l-418 -295h-92z" />
<glyph unicode="&#xde;" horiz-adv-x="1169" d="M59 0l301 1366h117l-55 -254h371q146 0 248 -99.5t102 -242.5q0 -65 -18 -128.5t-58 -123.5t-97.5 -105t-144 -72.5t-190.5 -27.5h-389l-70 -313h-117zM270 420h377q91 0 163.5 28.5t116 77.5t66.5 109t23 127q0 102 -74 173t-178 71h-365z" />
<glyph unicode="&#xdf;" horiz-adv-x="1183" d="M55 0l230 1042q34 152 136.5 248t256.5 96q82 0 156 -27t122 -81t48 -123q0 -54 -23 -96t-60 -69t-81.5 -49.5t-89 -43t-81.5 -43t-60 -56t-23 -75.5q0 -40 28.5 -71.5t73.5 -52.5t100 -41t110 -42.5t100 -51t73.5 -73.5t28.5 -102q0 -59 -23.5 -114t-68 -100.5 t-116.5 -72.5t-161 -27q-138 0 -232.5 43.5t-174.5 141.5l75 67q123 -161 334 -161q120 0 190 63t70 145q0 43 -28.5 76t-74 55t-100.5 41.5t-110 42t-100.5 50t-74 71t-28.5 99.5t23 101t59.5 74t81 53.5t89 45t81 41.5t59.5 50t23 65q0 67 -68 109t-147 42 q-103 0 -181 -67t-104 -181l-231 -1042h-107z" />
<glyph unicode="&#xe0;" horiz-adv-x="1169" d="M92 381q0 125 38 240t104.5 202t165 139t212.5 52q118 0 211 -52.5t146 -140.5l35 168h108l-219 -989h-109l35 150q-64 -81 -151 -128t-189 -47q-173 0 -280 109t-107 297zM209 401q0 -151 81.5 -240t217.5 -89q100 0 191 54.5t145 135.5l104 475q-39 78 -125.5 129.5 t-201.5 51.5q-119 0 -215.5 -75.5t-146.5 -193t-50 -248.5zM440 1434h127l250 -295h-90z" />
<glyph unicode="&#xe1;" horiz-adv-x="1169" d="M92 381q0 125 38 240t104.5 202t165 139t212.5 52q118 0 211 -52.5t146 -140.5l35 168h108l-219 -989h-109l35 150q-64 -81 -151 -128t-189 -47q-173 0 -280 109t-107 297zM209 401q0 -151 81.5 -240t217.5 -89q100 0 191 54.5t145 135.5l104 475q-39 78 -125.5 129.5 t-201.5 51.5q-119 0 -215.5 -75.5t-146.5 -193t-50 -248.5zM569 1139l381 295h129l-417 -295h-93z" />
<glyph unicode="&#xe2;" horiz-adv-x="1169" d="M92 381q0 125 38 240t104.5 202t165 139t212.5 52q118 0 211 -52.5t146 -140.5l35 168h108l-219 -989h-109l35 150q-64 -81 -151 -128t-189 -47q-173 0 -280 109t-107 297zM209 401q0 -151 81.5 -240t217.5 -89q100 0 191 54.5t145 135.5l104 475q-39 78 -125.5 129.5 t-201.5 51.5q-119 0 -215.5 -75.5t-146.5 -193t-50 -248.5zM442 1139l265 295h110l137 -295h-77l-127 231l-222 -231h-86z" />
<glyph unicode="&#xe3;" horiz-adv-x="1169" d="M92 381q0 125 38 240t104.5 202t165 139t212.5 52q118 0 211 -52.5t146 -140.5l35 168h108l-219 -989h-109l35 150q-64 -81 -151 -128t-189 -47q-173 0 -280 109t-107 297zM209 401q0 -151 81.5 -240t217.5 -89q100 0 191 54.5t145 135.5l104 475q-39 78 -125.5 129.5 t-201.5 51.5q-119 0 -215.5 -75.5t-146.5 -193t-50 -248.5zM383 1147q25 123 83 198.5t146 75.5q43 0 72 -21.5t45 -52.5t30.5 -61.5t37 -52t55.5 -21.5q93 0 143 197h74q-26 -124 -84.5 -199t-146.5 -75q-43 0 -72 21.5t-45 52t-30 61t-37 52t-56 21.5q-94 0 -141 -196h-74 z" />
<glyph unicode="&#xe4;" horiz-adv-x="1169" d="M92 381q0 125 38 240t104.5 202t165 139t212.5 52q118 0 211 -52.5t146 -140.5l35 168h108l-219 -989h-109l35 150q-64 -81 -151 -128t-189 -47q-173 0 -280 109t-107 297zM209 401q0 -151 81.5 -240t217.5 -89q100 0 191 54.5t145 135.5l104 475q-39 78 -125.5 129.5 t-201.5 51.5q-119 0 -215.5 -75.5t-146.5 -193t-50 -248.5zM432 1223q0 34 26 59t60 25q29 0 48.5 -19.5t19.5 -48.5q0 -34 -25.5 -59t-60.5 -25q-28 0 -48 19.5t-20 48.5zM850 1223q0 34 26 59t60 25q29 0 48.5 -19.5t19.5 -48.5q0 -34 -25 -59t-59 -25q-29 0 -49.5 19.5 t-20.5 48.5z" />
<glyph unicode="&#xe5;" horiz-adv-x="1169" d="M92 381q0 125 38 240t104.5 202t165 139t212.5 52q118 0 211 -52.5t146 -140.5l35 168h108l-219 -989h-109l35 150q-64 -81 -151 -128t-189 -47q-173 0 -280 109t-107 297zM209 401q0 -151 81.5 -240t217.5 -89q100 0 191 54.5t145 135.5l104 475q-39 78 -125.5 129.5 t-201.5 51.5q-119 0 -215.5 -75.5t-146.5 -193t-50 -248.5zM545 1305q0 87 64 151t151 64q78 0 128 -50.5t50 -128.5q0 -87 -64 -151t-151 -64q-78 0 -128 50.5t-50 128.5zM610 1311q0 -53 31.5 -86t83.5 -33q59 0 103 42.5t44 100.5q0 53 -31.5 86t-82.5 33 q-60 0 -104 -42.5t-44 -100.5z" />
<glyph unicode="&#xe6;" horiz-adv-x="1939" d="M92 381q0 168 63.5 311.5t183.5 232.5t271 89q119 0 212.5 -52.5t144.5 -140.5l37 168h108l-41 -186q73 98 171.5 154.5t209.5 56.5q188 0 288.5 -117.5t100.5 -306.5q0 -71 -14 -129h-826q-4 -24 -4 -58q0 -144 94.5 -239.5t268.5 -95.5q159 0 289 106l41 -78 q-157 -121 -330 -121q-165 0 -269.5 80.5t-138.5 214.5l-59 -270h-109l33 150q-62 -81 -149.5 -128t-188.5 -47q-173 0 -280 109t-107 297zM209 401q0 -151 81.5 -240t217.5 -89q99 0 189.5 54.5t146.5 135.5l104 475q-39 78 -125.5 129.5t-201.5 51.5q-119 0 -215.5 -75.5 t-146.5 -193t-50 -248.5zM1012 545h725q4 20 4 45q0 150 -82.5 241t-237.5 91q-147 0 -264.5 -111t-144.5 -266z" />
<glyph unicode="&#xe7;" horiz-adv-x="1011" d="M94 414q0 161 72 299t199 219.5t278 81.5q248 0 354 -180l-82 -62q-41 73 -112 109.5t-156 36.5q-131 0 -233.5 -73t-154.5 -187t-52 -246q0 -163 94.5 -251.5t243.5 -88.5q81 0 150 34t118 93l61 -74q-147 -150 -339 -150q-5 0 -15 1t-14 1l-55 -92q33 23 69 23 q53 0 86 -31t33 -86q0 -79 -59.5 -128.5t-155.5 -49.5q-133 0 -213 76l47 61q66 -69 170 -69q66 0 100.5 29.5t34.5 74.5q0 31 -22 50.5t-60 19.5q-45 0 -75 -37l-50 32l78 134q-156 29 -248 140t-92 290z" />
<glyph unicode="&#xe8;" horiz-adv-x="1161" d="M94 412q0 122 43 233t116 192t175 129t215 48q193 0 306.5 -121t113.5 -307q0 -58 -16 -125h-836q-4 -24 -4 -58q0 -144 94 -239.5t268 -95.5q78 0 157.5 27t141.5 79l41 -78q-70 -54 -160.5 -87.5t-183.5 -33.5q-219 0 -345 120t-126 317zM221 545h731h6q3 15 3 45 q0 149 -87 240.5t-243 91.5q-147 0 -265 -111t-145 -266zM475 1434h127l250 -295h-90z" />
<glyph unicode="&#xe9;" horiz-adv-x="1161" d="M94 412q0 122 43 233t116 192t175 129t215 48q193 0 306.5 -121t113.5 -307q0 -58 -16 -125h-836q-4 -24 -4 -58q0 -144 94 -239.5t268 -95.5q78 0 157.5 27t141.5 79l41 -78q-70 -54 -160.5 -87.5t-183.5 -33.5q-219 0 -345 120t-126 317zM221 545h731h6q3 15 3 45 q0 149 -87 240.5t-243 91.5q-147 0 -265 -111t-145 -266zM604 1139l381 295h129l-418 -295h-92z" />
<glyph unicode="&#xea;" horiz-adv-x="1161" d="M94 412q0 122 43 233t116 192t175 129t215 48q193 0 306.5 -121t113.5 -307q0 -58 -16 -125h-836q-4 -24 -4 -58q0 -144 94 -239.5t268 -95.5q78 0 157.5 27t141.5 79l41 -78q-70 -54 -160.5 -87.5t-183.5 -33.5q-219 0 -345 120t-126 317zM221 545h731h6q3 15 3 45 q0 149 -87 240.5t-243 91.5q-147 0 -265 -111t-145 -266zM475 1139l264 295h111l137 -295h-78l-127 231l-221 -231h-86z" />
<glyph unicode="&#xeb;" horiz-adv-x="1161" d="M94 412q0 122 43 233t116 192t175 129t215 48q193 0 306.5 -121t113.5 -307q0 -58 -16 -125h-836q-4 -24 -4 -58q0 -144 94 -239.5t268 -95.5q78 0 157.5 27t141.5 79l41 -78q-70 -54 -160.5 -87.5t-183.5 -33.5q-219 0 -345 120t-126 317zM221 545h731h6q3 15 3 45 q0 149 -87 240.5t-243 91.5q-147 0 -265 -111t-145 -266zM463 1223q0 34 26 59t60 25q29 0 48 -19.5t19 -48.5q0 -34 -25.5 -59t-60.5 -25q-28 0 -47.5 19.5t-19.5 48.5zM881 1223q0 34 26 59t60 25q29 0 48 -19.5t19 -48.5q0 -34 -25 -59t-59 -25q-29 0 -49 19.5t-20 48.5z " />
<glyph unicode="&#xec;" horiz-adv-x="438" d="M55 0l219 989h107l-219 -989h-107zM104 1434h127l250 -295h-90z" />
<glyph unicode="&#xed;" horiz-adv-x="438" d="M55 0l219 989h107l-219 -989h-107zM236 1139l380 295h129l-417 -295h-92z" />
<glyph unicode="&#xee;" horiz-adv-x="438" d="M55 0l219 989h107l-219 -989h-107zM104 1139l265 295h110l137 -295h-77l-127 231l-222 -231h-86z" />
<glyph unicode="&#xef;" horiz-adv-x="438" d="M55 0l219 989h107l-219 -989h-107zM94 1223q0 34 26 59t60 25q29 0 48.5 -19.5t19.5 -48.5q0 -34 -25.5 -59t-60.5 -25q-28 0 -48 19.5t-20 48.5zM512 1223q0 34 26 59t60 25q29 0 48.5 -19.5t19.5 -48.5q0 -34 -25 -59t-59 -25q-29 0 -49.5 19.5t-20.5 48.5z" />
<glyph unicode="&#xf0;" horiz-adv-x="1169" d="M94 395q0 123 41 234.5t110.5 192t165.5 128t201 47.5t199.5 -52.5t144.5 -162.5q-79 210 -249 383l-320 -94l-14 68l276 82q-59 54 -143 118l80 82q107 -80 188 -164l244 74l14 -67l-205 -62q117 -134 181.5 -284t64.5 -302q0 -176 -68.5 -322.5t-192.5 -232.5t-277 -86 q-195 0 -318 119t-123 301zM209 410q0 -150 87.5 -244t240.5 -94q112 0 207.5 67.5t151.5 183t56 250.5q0 60 -19.5 116.5t-57.5 105t-103 77.5t-149 29q-169 0 -291.5 -142t-122.5 -349z" />
<glyph unicode="&#xf1;" horiz-adv-x="1105" d="M59 0l220 989h106l-33 -149q76 75 168.5 124.5t188.5 49.5q131 0 209.5 -62t78.5 -180q0 -38 -12 -84l-151 -688h-107l147 672q13 58 13 71q0 88 -60 131.5t-161 43.5q-86 0 -175 -50t-159 -123l-166 -745h-107zM383 1147q25 123 83 198.5t146 75.5q43 0 72 -21.5 t45 -52.5t30.5 -61.5t37 -52t55.5 -21.5q93 0 143 197h74q-26 -124 -84.5 -199t-146.5 -75q-43 0 -72 21.5t-45 52t-30 61t-37 52t-56 21.5q-94 0 -141 -196h-74z" />
<glyph unicode="&#xf2;" horiz-adv-x="1169" d="M92 410q0 156 70 294.5t196.5 224t278.5 85.5q199 0 317.5 -118.5t118.5 -315.5q0 -156 -70 -294.5t-196.5 -224.5t-278.5 -86q-199 0 -317.5 119t-118.5 316zM209 414q0 -157 85 -249.5t236 -92.5q120 0 219 72.5t153 187.5t54 243q0 157 -85 250t-236 93 q-120 0 -219 -72.5t-153 -188t-54 -243.5zM473 1434h127l250 -295h-90z" />
<glyph unicode="&#xf3;" horiz-adv-x="1169" d="M92 410q0 156 70 294.5t196.5 224t278.5 85.5q199 0 317.5 -118.5t118.5 -315.5q0 -156 -70 -294.5t-196.5 -224.5t-278.5 -86q-199 0 -317.5 119t-118.5 316zM209 414q0 -157 85 -249.5t236 -92.5q120 0 219 72.5t153 187.5t54 243q0 157 -85 250t-236 93 q-120 0 -219 -72.5t-153 -188t-54 -243.5zM602 1139l381 295h129l-418 -295h-92z" />
<glyph unicode="&#xf4;" horiz-adv-x="1169" d="M92 410q0 156 70 294.5t196.5 224t278.5 85.5q199 0 317.5 -118.5t118.5 -315.5q0 -156 -70 -294.5t-196.5 -224.5t-278.5 -86q-199 0 -317.5 119t-118.5 316zM209 414q0 -157 85 -249.5t236 -92.5q120 0 219 72.5t153 187.5t54 243q0 157 -85 250t-236 93 q-120 0 -219 -72.5t-153 -188t-54 -243.5zM473 1139l264 295h111l137 -295h-78l-127 231l-221 -231h-86z" />
<glyph unicode="&#xf5;" horiz-adv-x="1169" d="M92 410q0 156 70 294.5t196.5 224t278.5 85.5q199 0 317.5 -118.5t118.5 -315.5q0 -156 -70 -294.5t-196.5 -224.5t-278.5 -86q-199 0 -317.5 119t-118.5 316zM209 414q0 -157 85 -249.5t236 -92.5q120 0 219 72.5t153 187.5t54 243q0 157 -85 250t-236 93 q-120 0 -219 -72.5t-153 -188t-54 -243.5zM414 1147q25 123 83 198.5t146 75.5q43 0 72 -21.5t45 -52.5t30.5 -61.5t37 -52t55.5 -21.5q93 0 143 197h74q-26 -123 -85 -198.5t-147 -75.5q-43 0 -72 21.5t-44.5 52t-29.5 61t-37 52t-56 21.5q-95 0 -142 -196h-73z" />
<glyph unicode="&#xf6;" horiz-adv-x="1169" d="M92 410q0 156 70 294.5t196.5 224t278.5 85.5q199 0 317.5 -118.5t118.5 -315.5q0 -156 -70 -294.5t-196.5 -224.5t-278.5 -86q-199 0 -317.5 119t-118.5 316zM209 414q0 -157 85 -249.5t236 -92.5q120 0 219 72.5t153 187.5t54 243q0 157 -85 250t-236 93 q-120 0 -219 -72.5t-153 -188t-54 -243.5zM461 1223q0 34 26 59t60 25q29 0 48 -19.5t19 -48.5q0 -34 -25.5 -59t-60.5 -25q-28 0 -47.5 19.5t-19.5 48.5zM879 1223q0 34 26 59t60 25q29 0 48 -19.5t19 -48.5q0 -34 -25 -59t-59 -25q-29 0 -49 19.5t-20 48.5z" />
<glyph unicode="&#xf7;" horiz-adv-x="1046" d="M92 647l19 86h927l-18 -86h-928zM395 279q0 37 25.5 61.5t62.5 24.5q31 0 52.5 -21.5t21.5 -52.5q0 -36 -26.5 -61t-63.5 -25q-31 0 -51.5 21.5t-20.5 52.5zM571 1081q0 35 26.5 60.5t61.5 25.5q32 0 53 -21t21 -52q0 -37 -25.5 -61.5t-62.5 -24.5q-31 0 -52.5 21 t-21.5 52z" />
<glyph unicode="&#xf8;" horiz-adv-x="1169" d="M39 0l135 135q-82 111 -82 275q0 156 70 294.5t196.5 224t278.5 85.5q184 0 301 -105l78 80h94l-125 -127q88 -114 88 -282q0 -156 -70 -294.5t-196.5 -224.5t-278.5 -86q-194 0 -311 111l-84 -86h-94zM209 414q0 -120 45 -197l608 617q-87 84 -227 84q-120 0 -219 -72.5 t-153 -188t-54 -243.5zM295 164q86 -92 235 -92q120 0 219 72.5t153 187.5t54 243q0 122 -53 205z" />
<glyph unicode="&#xf9;" horiz-adv-x="1105" d="M111 217q0 38 12 84l149 688h109l-150 -670q-10 -45 -10 -73q0 -88 59.5 -131t159.5 -43q88 0 177.5 50t158.5 124l166 743h107l-220 -989h-106l33 150q-179 -175 -357 -175q-131 0 -209.5 62t-78.5 180zM444 1434h127l250 -295h-90z" />
<glyph unicode="&#xfa;" horiz-adv-x="1105" d="M111 217q0 38 12 84l149 688h109l-150 -670q-10 -45 -10 -73q0 -88 59.5 -131t159.5 -43q88 0 177.5 50t158.5 124l166 743h107l-220 -989h-106l33 150q-179 -175 -357 -175q-131 0 -209.5 62t-78.5 180zM571 1139l381 295h129l-417 -295h-93z" />
<glyph unicode="&#xfb;" horiz-adv-x="1105" d="M111 217q0 38 12 84l149 688h109l-150 -670q-10 -45 -10 -73q0 -88 59.5 -131t159.5 -43q88 0 177.5 50t158.5 124l166 743h107l-220 -989h-106l33 150q-179 -175 -357 -175q-131 0 -209.5 62t-78.5 180zM438 1139l264 295h111l137 -295h-78l-127 231l-221 -231h-86z" />
<glyph unicode="&#xfc;" horiz-adv-x="1105" d="M111 217q0 38 12 84l149 688h109l-150 -670q-10 -45 -10 -73q0 -88 59.5 -131t159.5 -43q88 0 177.5 50t158.5 124l166 743h107l-220 -989h-106l33 150q-179 -175 -357 -175q-131 0 -209.5 62t-78.5 180zM436 1223q0 34 26 59t60 25q29 0 48.5 -19.5t19.5 -48.5 q0 -34 -25.5 -59t-60.5 -25q-28 0 -48 19.5t-20 48.5zM854 1223q0 34 26 59t60 25q29 0 48.5 -19.5t19.5 -48.5q0 -34 -25 -59t-59 -25q-29 0 -49.5 19.5t-20.5 48.5z" />
<glyph unicode="&#xfd;" horiz-adv-x="985" d="M-94 -381l41 102q36 -18 96 -18q42 0 77.5 24.5t78.5 88.5l118 178l-194 995h115l165 -864l551 864h125l-780 -1206q-59 -94 -125.5 -139t-150.5 -45q-62 0 -117 20zM510 1139l381 295h129l-418 -295h-92z" />
<glyph unicode="&#xfe;" horiz-adv-x="1161" d="M-29 -377l385 1743h107l-115 -526q62 81 149.5 127.5t190.5 46.5q172 0 278.5 -109t106.5 -297q0 -167 -63.5 -310.5t-183.5 -233t-271 -89.5q-119 0 -211 52.5t-145 140.5l-121 -545h-107zM217 252q39 -78 126 -129t202 -51q91 0 169.5 44t130.5 116.5t81.5 165 t29.5 190.5q0 151 -81.5 240.5t-217.5 89.5q-99 0 -189 -54.5t-146 -136.5z" />
<glyph unicode="&#xff;" horiz-adv-x="985" d="M-94 -381l41 102q36 -18 96 -18q42 0 77.5 24.5t78.5 88.5l118 178l-194 995h115l165 -864l551 864h125l-780 -1206q-59 -94 -125.5 -139t-150.5 -45q-62 0 -117 20zM369 1223q0 34 26 59t60 25q29 0 48 -19.5t19 -48.5q0 -34 -25.5 -59t-60.5 -25q-28 0 -47.5 19.5 t-19.5 48.5zM786 1223q0 34 26 59t60 25q29 0 48.5 -19.5t19.5 -48.5q0 -34 -25 -59t-59 -25q-29 0 -49.5 19.5t-20.5 48.5z" />
<glyph unicode="&#x100;" horiz-adv-x="1325" d="M-80 0l860 1366h146l258 -1366h-129l-62 336h-723l-209 -336h-141zM332 442h647l-148 799zM518 1534l17 78h741l-16 -78h-742z" />
<glyph unicode="&#x101;" horiz-adv-x="1169" d="M92 381q0 125 38 240t104.5 202t165 139t212.5 52q118 0 211 -52.5t146 -140.5l35 168h108l-219 -989h-109l35 150q-64 -81 -151 -128t-189 -47q-173 0 -280 109t-107 297zM209 401q0 -151 81.5 -240t217.5 -89q100 0 191 54.5t145 135.5l104 475q-39 78 -125.5 129.5 t-201.5 51.5q-119 0 -215.5 -75.5t-146.5 -193t-50 -248.5zM334 1186l16 78h742l-17 -78h-741z" />
<glyph unicode="&#x102;" horiz-adv-x="1325" d="M-80 0l860 1366h146l258 -1366h-129l-62 336h-723l-209 -336h-141zM332 442h647l-148 799zM559 1665l68 51q36 -72 105 -112.5t161 -40.5q93 0 180 40.5t154 112.5l51 -51q-81 -84 -184.5 -132t-212.5 -48q-108 0 -192.5 48t-129.5 132z" />
<glyph unicode="&#x103;" horiz-adv-x="1169" d="M92 381q0 125 38 240t104.5 202t165 139t212.5 52q118 0 211 -52.5t146 -140.5l35 168h108l-219 -989h-109l35 150q-64 -81 -151 -128t-189 -47q-173 0 -280 109t-107 297zM209 401q0 -151 81.5 -240t217.5 -89q100 0 191 54.5t145 135.5l104 475q-39 78 -125.5 129.5 t-201.5 51.5q-119 0 -215.5 -75.5t-146.5 -193t-50 -248.5zM381 1339l68 52q36 -72 105 -113t161 -41q93 0 179.5 41t154.5 113l51 -52q-81 -84 -185 -132t-213 -48q-108 0 -192 48t-129 132z" />
<glyph unicode="&#x104;" horiz-adv-x="1325" d="M-80 0l860 1366h146l258 -1366q-213 -92 -213 -225q0 -43 25 -65.5t69 -22.5q71 0 121 88l53 -37q-74 -119 -184 -119q-70 0 -114 37.5t-44 105.5q0 141 158 238l-62 336h-723l-209 -336h-141zM332 442h647l-148 799z" />
<glyph unicode="&#x105;" horiz-adv-x="1169" d="M92 381q0 125 38 240t104.5 202t165 139t212.5 52q118 0 211 -52.5t146 -140.5l35 168h108l-219 -989q-213 -92 -213 -225q0 -43 25 -65.5t69 -22.5q71 0 121 88l53 -37q-74 -119 -184 -119q-70 0 -114 37.5t-44 105.5q0 155 180 252l33 136q-64 -81 -151 -128t-189 -47 q-173 0 -280 109t-107 297zM209 401q0 -151 81.5 -240t217.5 -89q100 0 191 54.5t145 135.5l104 475q-39 78 -125.5 129.5t-201.5 51.5q-119 0 -215.5 -75.5t-146.5 -193t-50 -248.5z" />
<glyph unicode="&#x106;" horiz-adv-x="1374" d="M137 567q0 181 64.5 337.5t171 261t242.5 164t280 59.5q180 0 319.5 -76t217.5 -217l-113 -52q-68 122 -180.5 180t-251.5 58q-117 0 -228.5 -50.5t-199.5 -140.5t-141.5 -226t-53.5 -294q0 -221 134 -355t360 -134q206 0 387 156l82 -70q-99 -96 -223 -144.5t-252 -48.5 q-178 0 -317.5 73t-218.5 208.5t-79 310.5zM905 1491l381 295h129l-418 -295h-92z" />
<glyph unicode="&#x107;" horiz-adv-x="1011" d="M94 414q0 161 72 299t199 219.5t278 81.5q248 0 354 -180l-82 -62q-41 73 -112 109.5t-156 36.5q-131 0 -233.5 -73t-154.5 -187t-52 -246q0 -163 94.5 -251.5t243.5 -88.5q81 0 150 34t118 93l61 -74q-147 -150 -339 -150q-196 0 -318.5 116.5t-122.5 322.5zM612 1139 l381 295h129l-417 -295h-93z" />
<glyph unicode="&#x108;" horiz-adv-x="1374" d="M137 567q0 181 64.5 337.5t171 261t242.5 164t280 59.5q180 0 319.5 -76t217.5 -217l-113 -52q-68 122 -180.5 180t-251.5 58q-117 0 -228.5 -50.5t-199.5 -140.5t-141.5 -226t-53.5 -294q0 -221 134 -355t360 -134q206 0 387 156l82 -70q-99 -96 -223 -144.5t-252 -48.5 q-178 0 -317.5 73t-218.5 208.5t-79 310.5zM774 1491l264 295h111l137 -295h-78l-127 231l-221 -231h-86z" />
<glyph unicode="&#x109;" horiz-adv-x="1011" d="M94 414q0 161 72 299t199 219.5t278 81.5q248 0 354 -180l-82 -62q-41 73 -112 109.5t-156 36.5q-131 0 -233.5 -73t-154.5 -187t-52 -246q0 -163 94.5 -251.5t243.5 -88.5q81 0 150 34t118 93l61 -74q-147 -150 -339 -150q-196 0 -318.5 116.5t-122.5 322.5zM481 1139 l264 295h111l137 -295h-78l-127 231l-221 -231h-86z" />
<glyph unicode="&#x10a;" horiz-adv-x="1374" d="M137 567q0 181 64.5 337.5t171 261t242.5 164t280 59.5q180 0 319.5 -76t217.5 -217l-113 -52q-68 122 -180.5 180t-251.5 58q-117 0 -228.5 -50.5t-199.5 -140.5t-141.5 -226t-53.5 -294q0 -221 134 -355t360 -134q206 0 387 156l82 -70q-99 -96 -223 -144.5t-252 -48.5 q-178 0 -317.5 73t-218.5 208.5t-79 310.5zM975 1569q0 34 26.5 60t61.5 26q29 0 49.5 -20.5t20.5 -49.5q0 -35 -26.5 -60.5t-62.5 -25.5q-30 0 -49.5 19.5t-19.5 50.5z" />
<glyph unicode="&#x10b;" horiz-adv-x="1011" d="M94 414q0 161 72 299t199 219.5t278 81.5q248 0 354 -180l-82 -62q-41 73 -112 109.5t-156 36.5q-131 0 -233.5 -73t-154.5 -187t-52 -246q0 -163 94.5 -251.5t243.5 -88.5q81 0 150 34t118 93l61 -74q-147 -150 -339 -150q-196 0 -318.5 116.5t-122.5 322.5zM686 1262 q0 34 26.5 60t61.5 26q29 0 49.5 -20.5t20.5 -49.5q0 -35 -26.5 -60.5t-61.5 -25.5q-30 0 -50 20t-20 50z" />
<glyph unicode="&#x10c;" horiz-adv-x="1374" d="M137 567q0 181 64.5 337.5t171 261t242.5 164t280 59.5q180 0 319.5 -76t217.5 -217l-113 -52q-68 122 -180.5 180t-251.5 58q-117 0 -228.5 -50.5t-199.5 -140.5t-141.5 -226t-53.5 -294q0 -221 134 -355t360 -134q206 0 387 156l82 -70q-99 -96 -223 -144.5t-252 -48.5 q-178 0 -317.5 73t-218.5 208.5t-79 310.5zM840 1786h78l124 -232l224 232h86l-262 -295h-111z" />
<glyph unicode="&#x10d;" horiz-adv-x="1011" d="M94 414q0 161 72 299t199 219.5t278 81.5q248 0 354 -180l-82 -62q-41 73 -112 109.5t-156 36.5q-131 0 -233.5 -73t-154.5 -187t-52 -246q0 -163 94.5 -251.5t243.5 -88.5q81 0 150 34t118 93l61 -74q-147 -150 -339 -150q-196 0 -318.5 116.5t-122.5 322.5zM547 1434 h78l125 -232l223 232h86l-262 -295h-111z" />
<glyph unicode="&#x10e;" horiz-adv-x="1417" d="M59 0l301 1366h426q113 0 215 -44t177 -120t119 -185t44 -233q0 -115 -32.5 -226.5t-102 -212.5t-167 -177.5t-238.5 -122t-307 -45.5h-435zM199 106h319h-4q158 0 292 54.5t223.5 147t139.5 214.5t50 258q0 207 -130 343.5t-325 136.5h-309zM737 1786h78l125 -232 l223 232h86l-262 -295h-110z" />
<glyph unicode="&#x10f;" horiz-adv-x="1280" d="M92 381q0 125 38 240t104.5 202t165 139t212.5 52q118 0 211 -52.5t146 -140.5l118 545h109l-303 -1366h-109l35 150q-64 -81 -151 -128t-189 -47q-173 0 -280 109t-107 297zM209 401q0 -151 81.5 -240t217.5 -89q100 0 191 54.5t145 135.5l104 475q-39 78 -125.5 129.5 t-201.5 51.5q-119 0 -215.5 -75.5t-146.5 -193t-50 -248.5zM1212 1071q56 30 98 75.5t54 90.5h-14q-25 0 -44.5 20.5t-19.5 47.5q0 36 27 62t61 26q35 0 57.5 -23.5t22.5 -66.5q0 -79 -59 -159t-138 -122z" />
<glyph unicode="&#x110;" horiz-adv-x="1476" d="M51 633l23 102h207l139 631h426q113 0 215 -44t177 -120t119 -185t44 -233q0 -115 -32.5 -226.5t-102 -212.5t-167.5 -177.5t-239 -122t-307 -45.5h-434l139 633h-207zM258 106h315q158 0 292 54.5t223.5 147t139.5 214.5t50 258q0 207 -130 343.5t-325 136.5h-309 l-117 -525h367l-23 -102h-366z" />
<glyph unicode="&#x111;" horiz-adv-x="1175" d="M92 381q0 125 38 240t104.5 202t165 139t212.5 52q118 0 211 -52.5t146 -140.5l61 281h-362l12 78h367l40 186h109l-41 -186h109l-13 -78h-114l-244 -1102h-109l35 150q-64 -81 -151 -128t-189 -47q-173 0 -280 109t-107 297zM209 401q0 -151 81.5 -240t217.5 -89 q100 0 191 54.5t145 135.5l104 475q-39 78 -125.5 129.5t-201.5 51.5q-119 0 -215.5 -75.5t-146.5 -193t-50 -248.5z" />
<glyph unicode="&#x112;" horiz-adv-x="1155" d="M59 0l301 1366h867l-23 -106h-749l-111 -506h733l-24 -107h-734l-120 -541h749l-22 -106h-867zM455 1534l16 78h741l-16 -78h-741z" />
<glyph unicode="&#x113;" horiz-adv-x="1161" d="M94 412q0 122 43 233t116 192t175 129t215 48q193 0 306.5 -121t113.5 -307q0 -58 -16 -125h-836q-4 -24 -4 -58q0 -144 94 -239.5t268 -95.5q78 0 157.5 27t141.5 79l41 -78q-70 -54 -160.5 -87.5t-183.5 -33.5q-219 0 -345 120t-126 317zM221 545h731h6q3 15 3 45 q0 149 -87 240.5t-243 91.5q-147 0 -265 -111t-145 -266zM362 1186l17 78h741l-16 -78h-742z" />
<glyph unicode="&#x114;" horiz-adv-x="1155" d="M59 0l301 1366h867l-23 -106h-749l-111 -506h733l-24 -107h-734l-120 -541h749l-22 -106h-867zM494 1665l67 51q36 -72 105 -112.5t161 -40.5q93 0 180 40.5t154 112.5l51 -51q-81 -84 -184.5 -132t-212.5 -48q-108 0 -192 48t-129 132z" />
<glyph unicode="&#x115;" horiz-adv-x="1161" d="M94 412q0 122 43 233t116 192t175 129t215 48q193 0 306.5 -121t113.5 -307q0 -58 -16 -125h-836q-4 -24 -4 -58q0 -144 94 -239.5t268 -95.5q78 0 157.5 27t141.5 79l41 -78q-70 -54 -160.5 -87.5t-183.5 -33.5q-219 0 -345 120t-126 317zM221 545h731h6q3 15 3 45 q0 149 -87 240.5t-243 91.5q-147 0 -265 -111t-145 -266zM416 1339l67 52q36 -72 105.5 -113t161.5 -41q93 0 179 41t154 113l52 -52q-81 -84 -185 -132t-213 -48q-108 0 -192 48t-129 132z" />
<glyph unicode="&#x116;" horiz-adv-x="1155" d="M59 0l301 1366h867l-23 -106h-749l-111 -506h733l-24 -107h-734l-120 -541h749l-22 -106h-867zM774 1569q0 34 26.5 60t61.5 26q29 0 49.5 -20.5t20.5 -49.5q0 -35 -26.5 -60.5t-61.5 -25.5q-30 0 -50 20t-20 50z" />
<glyph unicode="&#x117;" horiz-adv-x="1161" d="M94 412q0 122 43 233t116 192t175 129t215 48q193 0 306.5 -121t113.5 -307q0 -58 -16 -125h-836q-4 -24 -4 -58q0 -144 94 -239.5t268 -95.5q78 0 157.5 27t141.5 79l41 -78q-70 -54 -160.5 -87.5t-183.5 -33.5q-219 0 -345 120t-126 317zM221 545h731h6q3 15 3 45 q0 149 -87 240.5t-243 91.5q-147 0 -265 -111t-145 -266zM680 1262q0 34 26.5 60t61.5 26q29 0 49.5 -20.5t20.5 -49.5q0 -35 -26.5 -60.5t-61.5 -25.5q-30 0 -50 20t-20 50z" />
<glyph unicode="&#x118;" horiz-adv-x="1155" d="M59 0l301 1366h867l-23 -106h-749l-111 -506h733l-24 -107h-734l-120 -541h749l-22 -106h-2q-213 -92 -213 -225q0 -43 25 -65.5t69 -22.5q71 0 121 88l53 -37q-74 -119 -184 -119q-70 0 -114 37.5t-44 105.5q0 140 156 238h-734z" />
<glyph unicode="&#x119;" horiz-adv-x="1161" d="M94 412q0 122 43 233t116 192t175 129t215 48q193 0 306.5 -121t113.5 -307q0 -58 -16 -125h-836q-4 -24 -4 -58q0 -144 94 -239.5t268 -95.5q78 0 157.5 27t141.5 79l41 -78q-83 -66 -186 -96q-213 -92 -213 -225q0 -43 25 -65.5t69 -22.5q71 0 121 88l53 -37 q-74 -119 -184 -119q-70 0 -114 37.5t-44 105.5q0 125 119 213q-215 3 -338 122.5t-123 314.5zM221 545h737q3 15 3 45q0 149 -87 240.5t-243 91.5q-147 0 -265 -111t-145 -266z" />
<glyph unicode="&#x11a;" horiz-adv-x="1155" d="M59 0l301 1366h867l-23 -106h-749l-111 -506h733l-24 -107h-734l-120 -541h749l-22 -106h-867zM635 1786h78l125 -232l223 232h86l-262 -295h-111z" />
<glyph unicode="&#x11b;" horiz-adv-x="1161" d="M94 412q0 122 43 233t116 192t175 129t215 48q193 0 306.5 -121t113.5 -307q0 -58 -16 -125h-836q-4 -24 -4 -58q0 -144 94 -239.5t268 -95.5q78 0 157.5 27t141.5 79l41 -78q-70 -54 -160.5 -87.5t-183.5 -33.5q-219 0 -345 120t-126 317zM221 545h731h6q3 15 3 45 q0 149 -87 240.5t-243 91.5q-147 0 -265 -111t-145 -266zM539 1434h77l125 -232l224 232h86l-263 -295h-110z" />
<glyph unicode="&#x11c;" horiz-adv-x="1456" d="M137 567q0 175 61.5 329t165.5 261.5t244 169.5t293 62q178 0 313.5 -75t212.5 -206l-104 -53q-61 111 -177 169t-259 58q-120 0 -233 -53.5t-199.5 -145.5t-138.5 -226t-52 -286q0 -223 135 -356t359 -133q222 0 397 164l72 327h-516l22 107h635l-108 -490 q-221 -215 -508 -215q-278 0 -446.5 165.5t-168.5 426.5zM784 1491l265 295h110l137 -295h-77l-127 231l-222 -231h-86z" />
<glyph unicode="&#x11d;" horiz-adv-x="1167" d="M8 -233l76 79q100 -151 350 -151q61 0 115.5 17t102 53t82.5 98t52 145l31 150q-63 -80 -153.5 -127t-196.5 -47q-165 0 -270 105t-105 306q0 95 23 186t67.5 169t106 137t143.5 93t174 34q104 0 204 -55t155 -138l39 168h108l-219 -981q-25 -110 -70 -190.5 t-105.5 -127.5t-130.5 -69t-153 -22q-148 0 -251.5 37.5t-174.5 130.5zM207 410q0 -154 80.5 -242t218.5 -88q91 0 182.5 50.5t151.5 125.5l108 479q-44 83 -137.5 133t-200.5 50q-120 0 -214 -76.5t-141.5 -191t-47.5 -240.5zM475 1126l264 295h111l137 -295h-78l-127 232 l-221 -232h-86z" />
<glyph unicode="&#x11e;" horiz-adv-x="1456" d="M137 567q0 175 61.5 329t165.5 261.5t244 169.5t293 62q178 0 313.5 -75t212.5 -206l-104 -53q-61 111 -177 169t-259 58q-120 0 -233 -53.5t-199.5 -145.5t-138.5 -226t-52 -286q0 -223 135 -356t359 -133q222 0 397 164l72 327h-516l22 107h635l-108 -490 q-221 -215 -508 -215q-278 0 -446.5 165.5t-168.5 426.5zM713 1665l67 51q36 -72 105.5 -112.5t161.5 -40.5q93 0 179.5 40.5t153.5 112.5l52 -51q-81 -84 -185 -132t-213 -48q-108 0 -192 48t-129 132z" />
<glyph unicode="&#x11f;" horiz-adv-x="1167" d="M8 -233l76 79q100 -151 350 -151q61 0 115.5 17t102 53t82.5 98t52 145l31 150q-63 -80 -153.5 -127t-196.5 -47q-165 0 -270 105t-105 306q0 95 23 186t67.5 169t106 137t143.5 93t174 34q104 0 204 -55t155 -138l39 168h108l-219 -981q-25 -110 -70 -190.5 t-105.5 -127.5t-130.5 -69t-153 -22q-148 0 -251.5 37.5t-174.5 130.5zM207 410q0 -154 80.5 -242t218.5 -88q91 0 182.5 50.5t151.5 125.5l108 479q-44 83 -137.5 133t-200.5 50q-120 0 -214 -76.5t-141.5 -191t-47.5 -240.5zM408 1339l67 52q36 -72 105 -113t161 -41 q93 0 179.5 41t154.5 113l51 -52q-81 -84 -184.5 -132t-212.5 -48q-108 0 -192 48t-129 132z" />
<glyph unicode="&#x120;" horiz-adv-x="1456" d="M137 567q0 175 61.5 329t165.5 261.5t244 169.5t293 62q178 0 313.5 -75t212.5 -206l-104 -53q-61 111 -177 169t-259 58q-120 0 -233 -53.5t-199.5 -145.5t-138.5 -226t-52 -286q0 -223 135 -356t359 -133q222 0 397 164l72 327h-516l22 107h635l-108 -490 q-221 -215 -508 -215q-278 0 -446.5 165.5t-168.5 426.5zM975 1569q0 34 26.5 60t61.5 26q29 0 49.5 -20.5t20.5 -49.5q0 -35 -26.5 -60.5t-62.5 -25.5q-30 0 -49.5 19.5t-19.5 50.5z" />
<glyph unicode="&#x121;" horiz-adv-x="1167" d="M8 -233l76 79q100 -151 350 -151q61 0 115.5 17t102 53t82.5 98t52 145l31 150q-63 -80 -153.5 -127t-196.5 -47q-165 0 -270 105t-105 306q0 95 23 186t67.5 169t106 137t143.5 93t174 34q104 0 204 -55t155 -138l39 168h108l-219 -981q-25 -110 -70 -190.5 t-105.5 -127.5t-130.5 -69t-153 -22q-148 0 -251.5 37.5t-174.5 130.5zM207 410q0 -154 80.5 -242t218.5 -88q91 0 182.5 50.5t151.5 125.5l108 479q-44 83 -137.5 133t-200.5 50q-120 0 -214 -76.5t-141.5 -191t-47.5 -240.5zM674 1262q0 34 26.5 60t61.5 26q29 0 49 -20.5 t20 -49.5q0 -35 -26.5 -60.5t-61.5 -25.5q-29 0 -49 20t-20 50z" />
<glyph unicode="&#x122;" horiz-adv-x="1456" d="M137 567q0 175 61.5 329t165.5 261.5t244 169.5t293 62q178 0 313.5 -75t212.5 -206l-104 -53q-61 111 -177 169t-259 58q-120 0 -233 -53.5t-199.5 -145.5t-138.5 -226t-52 -286q0 -223 135 -356t359 -133q222 0 397 164l72 327h-516l22 107h635l-108 -490 q-221 -215 -508 -215q-278 0 -446.5 165.5t-168.5 426.5zM494 -481q56 29 97.5 75t53.5 91h-14q-25 0 -44.5 20t-19.5 47q0 36 27 62t61 26q35 0 57.5 -23.5t22.5 -66.5q0 -79 -58.5 -158.5t-137.5 -121.5z" />
<glyph unicode="&#x123;" horiz-adv-x="1167" d="M8 -233l76 79q100 -151 350 -151q61 0 115.5 17t102 53t82.5 98t52 145l31 150q-63 -80 -153.5 -127t-196.5 -47q-165 0 -270 105t-105 306q0 95 23 186t67.5 169t106 137t143.5 93t174 34q104 0 204 -55t155 -138l39 168h108l-219 -981q-25 -110 -70 -190.5 t-105.5 -127.5t-130.5 -69t-153 -22q-148 0 -251.5 37.5t-174.5 130.5zM207 410q0 -154 80.5 -242t218.5 -88q91 0 182.5 50.5t151.5 125.5l108 479q-44 83 -137.5 133t-200.5 50q-120 0 -214 -76.5t-141.5 -191t-47.5 -240.5zM649 1241q0 80 59 160.5t138 122.5l45 -49 q-55 -30 -97.5 -75.5t-54.5 -90.5h15q25 0 44 -20.5t19 -49.5q0 -36 -26 -62t-62 -26q-35 0 -57.5 23.5t-22.5 66.5z" />
<glyph unicode="&#x124;" horiz-adv-x="1439" d="M59 0l301 1366h117l-133 -610h864l135 610h119l-301 -1366h-119l144 649h-867l-143 -649h-117zM678 1491l264 295h111l137 -295h-78l-127 231l-221 -231h-86z" />
<glyph unicode="&#x125;" horiz-adv-x="1105" d="M55 0l301 1366h107l-115 -526q76 75 168.5 124.5t188.5 49.5q131 0 209.5 -62t78.5 -180q0 -38 -12 -84l-152 -688h-106l147 672q13 58 13 71q0 88 -60 131.5t-161 43.5q-86 0 -174.5 -50.5t-159.5 -124.5l-166 -743h-107zM186 1491l265 295h110l137 -295h-77l-127 231 l-222 -231h-86z" />
<glyph unicode="&#x126;" horiz-adv-x="1482" d="M82 0l225 1026h-168l19 78h168l57 262h117l-58 -262h865l59 262h119l-58 -262h162l-16 -78h-164l-225 -1026h-119l143 649h-866l-143 -649h-117zM367 756h864l59 270h-864z" />
<glyph unicode="&#x127;" horiz-adv-x="1110" d="M59 0l242 1102h-145l16 78h147l41 186h107l-41 -186h332l-19 -78h-329l-58 -262q76 75 168.5 124.5t188.5 49.5q131 0 209.5 -62t78.5 -180q0 -38 -12 -84l-151 -688h-107l147 672q13 58 13 71q0 88 -60 131.5t-161 43.5q-86 0 -174.5 -50.5t-159.5 -124.5l-166 -743 h-107z" />
<glyph unicode="&#x128;" horiz-adv-x="456" d="M59 0l301 1366h117l-301 -1366h-117zM135 1499q25 123 83.5 199t146.5 76q43 0 72 -21.5t45 -52t30 -61.5t36.5 -52.5t55.5 -21.5q94 0 144 196h73q-26 -124 -84.5 -199t-146.5 -75q-43 0 -72 21.5t-45 52.5t-30 61.5t-37 52t-56 21.5q-94 0 -141 -197h-74z" />
<glyph unicode="&#x129;" horiz-adv-x="438" d="M47 1122q25 123 83 199t146 76q43 0 72 -21.5t45 -52.5t30.5 -61.5t37 -52t55.5 -21.5q93 0 143 196h74q-26 -124 -84.5 -199t-146.5 -75q-43 0 -72 21.5t-45 52t-30 61.5t-37 52.5t-56 21.5q-94 0 -141 -197h-74zM55 0l219 989h107l-219 -989h-107z" />
<glyph unicode="&#x12a;" horiz-adv-x="456" d="M59 0l301 1366h117l-301 -1366h-117zM88 1534l16 78h742l-17 -78h-741z" />
<glyph unicode="&#x12b;" horiz-adv-x="438" d="M2 1186l16 78h742l-17 -78h-741zM55 0l219 989h107l-219 -989h-107z" />
<glyph unicode="&#x12c;" horiz-adv-x="456" d="M59 0l301 1366h117l-301 -1366h-117zM127 1665l68 51q36 -72 105 -112.5t161 -40.5q93 0 180 40.5t154 112.5l51 -51q-81 -84 -184.5 -132t-212.5 -48q-108 0 -192.5 48t-129.5 132z" />
<glyph unicode="&#x12d;" horiz-adv-x="438" d="M49 1339l68 52q36 -72 105 -113t161 -41q93 0 179.5 41t154.5 113l51 -52q-81 -84 -184.5 -132t-212.5 -48q-108 0 -192.5 48t-129.5 132zM55 0l219 989h107l-219 -989h-107z" />
<glyph unicode="&#x12e;" horiz-adv-x="456" d="M-111 -238q0 76 45.5 139t126.5 107l299 1358h117l-301 -1366q-213 -92 -213 -225q0 -43 25 -65.5t69 -22.5q71 0 121 88l53 -37q-74 -119 -184 -119q-70 0 -114 37.5t-44 105.5z" />
<glyph unicode="&#x12f;" horiz-adv-x="438" d="M-125 -238q0 153 182 252l217 975h107l-219 -989q-213 -92 -213 -225q0 -43 25 -65.5t69 -22.5q71 0 121 88l53 -37q-74 -119 -184 -119q-70 0 -114 37.5t-44 105.5zM295 1217q0 39 29.5 64.5t62.5 25.5q32 0 54 -21t22 -51q0 -39 -29.5 -64.5t-64.5 -25.5 q-31 0 -52.5 21.5t-21.5 50.5z" />
<glyph unicode="&#x130;" horiz-adv-x="456" d="M59 0l301 1366h117l-301 -1366h-117zM389 1569q0 34 26.5 60t61.5 26q29 0 49.5 -20.5t20.5 -49.5q0 -35 -26.5 -60.5t-61.5 -25.5q-30 0 -50 20t-20 50z" />
<glyph unicode="&#x131;" horiz-adv-x="438" d="M55 0l219 989h107l-219 -989h-107z" />
<glyph unicode="&#x132;" horiz-adv-x="1419" d="M59 0l301 1366h117l-301 -1366h-117zM418 156l80 82q39 -74 109 -115t163 -41q136 0 221 84t117 229l215 971h117l-213 -971q-46 -210 -162 -315t-289 -105q-119 0 -213.5 46.5t-144.5 134.5z" />
<glyph unicode="&#x133;" horiz-adv-x="874" d="M55 0l219 989h107l-219 -989h-107zM68 -313l63 82q25 -32 63 -53t80 -21q150 0 191 180l248 1114h106l-248 -1114q-31 -140 -99 -208t-185 -68q-149 0 -219 88zM295 1217q0 39 29.5 64.5t62.5 25.5q32 0 54 -21t22 -51q0 -39 -29.5 -64.5t-64.5 -25.5q-31 0 -52.5 21.5 t-21.5 50.5zM733 1217q0 39 29.5 64.5t62.5 25.5q32 0 54 -21t22 -51q0 -39 -29.5 -64.5t-64.5 -25.5q-31 0 -52.5 21.5t-21.5 50.5z" />
<glyph unicode="&#x134;" horiz-adv-x="962" d="M-39 156l80 82q39 -74 109 -115t163 -41q136 0 221 84t117 229l215 971h117l-213 -971q-46 -210 -162 -315t-289 -105q-119 0 -213.5 46.5t-144.5 134.5zM698 1491l265 295h110l137 -295h-77l-127 231l-222 -231h-86z" />
<glyph unicode="&#x135;" horiz-adv-x="438" d="M-371 -313l64 82q25 -32 63 -53t80 -21q150 0 191 180l247 1114h107l-248 -1114q-31 -140 -99.5 -208t-185.5 -68q-149 0 -219 88zM109 1139l264 295h110l138 -295h-78l-127 231l-221 -231h-86z" />
<glyph unicode="&#x136;" horiz-adv-x="1206" d="M59 0l301 1366h117l-162 -733l813 733h158l-725 -651l479 -715h-139l-426 649l-192 -172l-107 -477h-117zM291 -481q56 29 97.5 75t53.5 91h-14q-25 0 -44 20t-19 47q0 36 27 62t61 26q35 0 57 -23.5t22 -66.5q0 -79 -58.5 -158.5t-137.5 -121.5z" />
<glyph unicode="&#x137;" horiz-adv-x="1034" d="M55 0l301 1366h107l-207 -934l700 557h150l-561 -446l340 -543h-131l-297 477l-230 -180l-65 -297h-107zM207 -481q56 29 97.5 75t53.5 91h-14q-25 0 -44 20t-19 47q0 36 27 62t61 26q35 0 57.5 -23.5t22.5 -66.5q0 -78 -59 -158t-138 -122z" />
<glyph unicode="&#x138;" horiz-adv-x="1034" d="M55 0l219 989h107l-125 -557l700 557h150l-561 -446l340 -543h-131l-297 477l-230 -180l-65 -297h-107z" />
<glyph unicode="&#x139;" horiz-adv-x="991" d="M31 0l301 1366h119l-279 -1260h659l-20 -106h-780zM549 1491l381 295h129l-418 -295h-92z" />
<glyph unicode="&#x13a;" horiz-adv-x="438" d="M55 0l301 1366h107l-301 -1366h-107zM313 1491l381 295h129l-417 -295h-93z" />
<glyph unicode="&#x13b;" horiz-adv-x="991" d="M31 0l301 1366h119l-279 -1260h659l-20 -106h-780zM182 -481q56 30 98 75.5t54 90.5h-15q-25 0 -44 20t-19 47q0 36 27 62t61 26q35 0 57.5 -23.5t22.5 -66.5q0 -78 -59 -158t-138 -122z" />
<glyph unicode="&#x13c;" horiz-adv-x="438" d="M-92 -481q56 29 97.5 75t53.5 91h-14q-25 0 -44 20t-19 47q0 36 27 62t61 26q35 0 57.5 -23.5t22.5 -66.5q0 -78 -59 -158t-138 -122zM55 0l301 1366h107l-301 -1366h-107z" />
<glyph unicode="&#x13d;" horiz-adv-x="991" d="M31 0l301 1366h119l-279 -1260h659l-20 -106h-780zM567 1069q56 30 98 75.5t54 90.5h-14q-25 0 -44.5 20.5t-19.5 47.5q0 36 27 62t61 26q35 0 57.5 -24t22.5 -67q0 -78 -59 -158t-138 -122z" />
<glyph unicode="&#x13e;" horiz-adv-x="540" d="M55 0l301 1366h107l-301 -1366h-107zM510 1069q56 30 98 75.5t54 90.5h-15q-25 0 -44 20t-19 48q0 36 27 62t61 26q35 0 57.5 -24t22.5 -67q0 -78 -59 -158t-138 -122z" />
<glyph unicode="&#x13f;" horiz-adv-x="1011" d="M31 0l301 1366h119l-279 -1260h659l-20 -106h-780zM668 692q0 41 29 68.5t71 27.5q34 0 58 -23t24 -58q0 -40 -29 -68.5t-69 -28.5q-35 0 -59.5 24t-24.5 58z" />
<glyph unicode="&#x140;" horiz-adv-x="559" d="M55 0l301 1366h107l-301 -1366h-107zM408 494q0 41 29 68.5t71 27.5q34 0 58 -23.5t24 -58.5q0 -40 -29 -68t-69 -28q-35 0 -59.5 24t-24.5 58z" />
<glyph unicode="&#x141;" horiz-adv-x="1064" d="M18 479l25 107l213 110l147 670h119l-133 -602l244 127l-23 -109l-245 -125l-121 -551h659l-20 -106h-781l129 588z" />
<glyph unicode="&#x142;" horiz-adv-x="567" d="M18 487l23 95l233 118l148 666h106l-133 -604l234 119l-21 -95l-233 -118l-148 -668h-106l133 606z" />
<glyph unicode="&#x143;" horiz-adv-x="1431" d="M59 0l301 1366h119l596 -1167l260 1167h117l-301 -1366h-115l-598 1184l-262 -1184h-117zM809 1491l381 295h129l-418 -295h-92z" />
<glyph unicode="&#x144;" horiz-adv-x="1105" d="M59 0l220 989h106l-33 -149q76 75 168.5 124.5t188.5 49.5q131 0 209.5 -62t78.5 -180q0 -38 -12 -84l-151 -688h-107l147 672q13 58 13 71q0 88 -60 131.5t-161 43.5q-86 0 -175 -50t-159 -123l-166 -745h-107zM567 1139l381 295h129l-418 -295h-92z" />
<glyph unicode="&#x145;" horiz-adv-x="1431" d="M59 0l301 1366h119l596 -1167l260 1167h117l-301 -1366h-115l-598 1184l-262 -1184h-117zM406 -481q56 29 97.5 75t53.5 91h-14q-25 0 -44.5 20t-19.5 47q0 36 27 62t61 26q35 0 57.5 -23.5t22.5 -66.5q0 -79 -58.5 -158.5t-137.5 -121.5z" />
<glyph unicode="&#x146;" horiz-adv-x="1105" d="M59 0l220 989h106l-33 -149q76 75 168.5 124.5t188.5 49.5q131 0 209.5 -62t78.5 -180q0 -38 -12 -84l-151 -688h-107l147 672q13 58 13 71q0 88 -60 131.5t-161 43.5q-86 0 -175 -50t-159 -123l-166 -745h-107zM242 -481q56 29 97.5 75t53.5 91h-14q-25 0 -44.5 20 t-19.5 47q0 36 27 62t61 26q35 0 57.5 -23.5t22.5 -66.5q0 -79 -58.5 -158.5t-137.5 -121.5z" />
<glyph unicode="&#x147;" horiz-adv-x="1431" d="M59 0l301 1366h119l596 -1167l260 1167h117l-301 -1366h-115l-598 1184l-262 -1184h-117zM743 1786h78l125 -232l223 232h86l-262 -295h-110z" />
<glyph unicode="&#x148;" horiz-adv-x="1105" d="M59 0l220 989h106l-33 -149q76 75 168.5 124.5t188.5 49.5q131 0 209.5 -62t78.5 -180q0 -38 -12 -84l-151 -688h-107l147 672q13 58 13 71q0 88 -60 131.5t-161 43.5q-86 0 -175 -50t-159 -123l-166 -745h-107zM504 1434h78l125 -232l223 232h86l-262 -295h-111z" />
<glyph unicode="&#x149;" horiz-adv-x="1105" d="M59 0l220 989h106l-33 -149q76 75 168.5 124.5t188.5 49.5q131 0 209.5 -62t78.5 -180q0 -38 -12 -84l-151 -688h-107l147 672q13 58 13 71q0 88 -60 131.5t-161 43.5q-86 0 -175 -50t-159 -123l-166 -745h-107zM268 1182q56 30 98 75.5t54 90.5h-14q-25 0 -44.5 20 t-19.5 47q0 36 27 62t61 26q35 0 57.5 -23.5t22.5 -66.5q0 -78 -59 -158t-138 -122z" />
<glyph unicode="&#x14a;" horiz-adv-x="1431" d="M59 0l301 1366h119l596 -1167l260 1167h117l-299 -1356q-46 -209 -161.5 -310t-286.5 -101q-123 0 -216 47t-143 133l78 76q36 -73 106.5 -114.5t167.5 -41.5q130 0 214.5 78.5t121.5 226.5l-596 1180l-262 -1184h-117z" />
<glyph unicode="&#x14b;" horiz-adv-x="1105" d="M55 0l219 989h107l-33 -149q76 75 168.5 124.5t188.5 49.5q128 0 208 -61t80 -181q0 -22 -12 -84l-180 -813q-30 -137 -98.5 -206.5t-186.5 -69.5q-148 0 -219 88l63 82q56 -74 144 -74q75 0 122 43t68 137l176 797q13 58 13 73q0 89 -61.5 131t-159.5 42q-86 0 -175 -50 t-159 -123l-166 -745h-107z" />
<glyph unicode="&#x14c;" horiz-adv-x="1564" d="M137 567q0 170 60.5 323t162.5 262t241.5 173t293.5 64q127 0 238 -39.5t194.5 -113t131.5 -187t48 -252.5q0 -226 -101.5 -415.5t-275 -298t-378.5 -108.5q-128 0 -239.5 39.5t-195.5 113t-132 187t-48 252.5zM264 571q0 -116 39 -210t107 -154.5t157 -92.5t191 -32 q123 0 236.5 53.5t198.5 146t136 226.5t51 285q0 116 -39 210t-107 154.5t-157.5 92.5t-191.5 32q-123 0 -236.5 -53.5t-198.5 -146t-135.5 -226t-50.5 -285.5zM639 1534l16 78h742l-17 -78h-741z" />
<glyph unicode="&#x14d;" horiz-adv-x="1169" d="M92 410q0 156 70 294.5t196.5 224t278.5 85.5q199 0 317.5 -118.5t118.5 -315.5q0 -156 -70 -294.5t-196.5 -224.5t-278.5 -86q-199 0 -317.5 119t-118.5 316zM209 414q0 -157 85 -249.5t236 -92.5q120 0 219 72.5t153 187.5t54 243q0 157 -85 250t-236 93 q-120 0 -219 -72.5t-153 -188t-54 -243.5zM365 1186l16 78h741l-16 -78h-741z" />
<glyph unicode="&#x14e;" horiz-adv-x="1564" d="M137 567q0 170 60.5 323t162.5 262t241.5 173t293.5 64q127 0 238 -39.5t194.5 -113t131.5 -187t48 -252.5q0 -226 -101.5 -415.5t-275 -298t-378.5 -108.5q-128 0 -239.5 39.5t-195.5 113t-132 187t-48 252.5zM264 571q0 -116 39 -210t107 -154.5t157 -92.5t191 -32 q123 0 236.5 53.5t198.5 146t136 226.5t51 285q0 116 -39 210t-107 154.5t-157.5 92.5t-191.5 32q-123 0 -236.5 -53.5t-198.5 -146t-135.5 -226t-50.5 -285.5zM674 1665l67 51q36 -72 105.5 -112.5t161.5 -40.5q93 0 179.5 40.5t153.5 112.5l52 -51q-81 -84 -185 -132 t-213 -48q-108 0 -192 48t-129 132z" />
<glyph unicode="&#x14f;" horiz-adv-x="1169" d="M92 410q0 156 70 294.5t196.5 224t278.5 85.5q199 0 317.5 -118.5t118.5 -315.5q0 -156 -70 -294.5t-196.5 -224.5t-278.5 -86q-199 0 -317.5 119t-118.5 316zM209 414q0 -157 85 -249.5t236 -92.5q120 0 219 72.5t153 187.5t54 243q0 157 -85 250t-236 93 q-120 0 -219 -72.5t-153 -188t-54 -243.5zM412 1339l67 52q36 -72 105 -113t161 -41q93 0 179.5 41t154.5 113l51 -52q-81 -84 -184.5 -132t-212.5 -48q-108 0 -192 48t-129 132z" />
<glyph unicode="&#x150;" horiz-adv-x="1564" d="M137 567q0 170 60.5 323t162.5 262t241.5 173t293.5 64q127 0 238 -39.5t194.5 -113t131.5 -187t48 -252.5q0 -226 -101.5 -415.5t-275 -298t-378.5 -108.5q-128 0 -239.5 39.5t-195.5 113t-132 187t-48 252.5zM264 571q0 -116 39 -210t107 -154.5t157 -92.5t191 -32 q123 0 236.5 53.5t198.5 146t136 226.5t51 285q0 116 -39 210t-107 154.5t-157.5 92.5t-191.5 32q-123 0 -236.5 -53.5t-198.5 -146t-135.5 -226t-50.5 -285.5zM784 1491l265 295h116l-301 -295h-80zM1069 1491l264 295h117l-301 -295h-80z" />
<glyph unicode="&#x151;" horiz-adv-x="1169" d="M92 410q0 156 70 294.5t196.5 224t278.5 85.5q199 0 317.5 -118.5t118.5 -315.5q0 -156 -70 -294.5t-196.5 -224.5t-278.5 -86q-199 0 -317.5 119t-118.5 316zM209 414q0 -157 85 -249.5t236 -92.5q120 0 219 72.5t153 187.5t54 243q0 157 -85 250t-236 93 q-120 0 -219 -72.5t-153 -188t-54 -243.5zM508 1139l264 295h117l-301 -295h-80zM793 1139l264 295h117l-302 -295h-79z" />
<glyph unicode="&#x152;" horiz-adv-x="2283" d="M137 567q0 177 62 331t167 260t245.5 167t293.5 61q116 0 211.5 -32t176.5 -113t120 -207l72 332h866l-22 -106h-748l-113 -506h734l-25 -107h-733l-119 -541h748l-23 -106h-866l51 233q-89 -122 -221 -190t-301 -68q-257 0 -416.5 165.5t-159.5 426.5zM264 571 q0 -224 132.5 -356.5t348.5 -132.5q157 0 299.5 84t227.5 231l104 473q-28 195 -155 302.5t-322 107.5q-128 0 -244.5 -54t-202.5 -147t-137 -225.5t-51 -282.5z" />
<glyph unicode="&#x153;" horiz-adv-x="1996" d="M92 410q0 116 41 225.5t111 193t172 134.5t217 51q93 0 169.5 -32t122.5 -81.5t72 -100t31 -95.5q180 309 457 309q185 0 300.5 -116t115.5 -312q0 -55 -17 -125h-827q-4 -20 -4 -58q0 -144 93.5 -239.5t264.5 -95.5q79 0 157.5 28t137.5 78l43 -78q-70 -56 -159.5 -88.5 t-182.5 -32.5q-78 0 -147 20.5t-117.5 53t-85.5 74t-56.5 83t-23.5 79.5q-28 -47 -48.5 -78t-64 -79.5t-87.5 -78t-111 -52t-142 -22.5q-193 0 -312.5 117t-119.5 318zM209 414q0 -156 83.5 -249t233.5 -93q117 0 215 70t152.5 185.5t54.5 247.5q0 88 -26 156t-71 107.5 t-100.5 59.5t-119.5 20q-115 0 -213 -70t-153.5 -185.5t-55.5 -248.5zM1067 545h729q4 24 4 45q0 145 -85.5 238.5t-239.5 93.5q-79 0 -152.5 -35.5t-125.5 -91t-86 -121.5t-44 -129z" />
<glyph unicode="&#x154;" horiz-adv-x="1216" d="M59 0l301 1366h469q70 0 136 -23.5t118.5 -66t84.5 -109t32 -145.5q0 -193 -128.5 -319t-338.5 -132l268 -571h-133l-258 565h-309l-125 -565h-117zM326 672h376h5q172 0 269 99t97 245q0 104 -78 174t-178 70h-362zM702 1491l381 295h129l-417 -295h-93z" />
<glyph unicode="&#x155;" horiz-adv-x="649" d="M55 0l219 989h107l-37 -160q81 95 165 138t212 43l-27 -115q-36 6 -71 6q-85 0 -167 -53t-134 -127l-160 -721h-107zM399 1139l381 295h129l-417 -295h-93z" />
<glyph unicode="&#x156;" horiz-adv-x="1216" d="M59 0l301 1366h469q70 0 136 -23.5t118.5 -66t84.5 -109t32 -145.5q0 -193 -128.5 -319t-338.5 -132l268 -571h-133l-258 565h-309l-125 -565h-117zM299 -481q56 30 98 75.5t54 90.5h-15q-25 0 -44 20t-19 47q0 36 27 62t61 26q35 0 57.5 -23.5t22.5 -66.5 q0 -78 -59 -158t-138 -122zM326 672h376h5q172 0 269 99t97 245q0 104 -78 174t-178 70h-362z" />
<glyph unicode="&#x157;" horiz-adv-x="649" d="M14 -481q56 30 98 75.5t54 90.5h-14q-25 0 -44.5 20t-19.5 47q0 36 27 62t61 26q35 0 57.5 -23.5t22.5 -66.5q0 -78 -59 -158t-138 -122zM55 0l219 989h107l-37 -160q81 95 165 138t212 43l-27 -115q-36 6 -71 6q-85 0 -167 -53t-134 -127l-160 -721h-107z" />
<glyph unicode="&#x158;" horiz-adv-x="1216" d="M59 0l301 1366h469q70 0 136 -23.5t118.5 -66t84.5 -109t32 -145.5q0 -193 -128.5 -319t-338.5 -132l268 -571h-133l-258 565h-309l-125 -565h-117zM326 672h376h5q172 0 269 99t97 245q0 104 -78 174t-178 70h-362zM637 1786h78l125 -232l223 232h86l-262 -295h-111z " />
<glyph unicode="&#x159;" horiz-adv-x="649" d="M55 0l219 989h107l-37 -160q81 95 165 138t212 43l-27 -115q-36 6 -71 6q-85 0 -167 -53t-134 -127l-160 -721h-107zM332 1434h78l125 -232l223 232h86l-262 -295h-111z" />
<glyph unicode="&#x15a;" horiz-adv-x="1189" d="M49 215l86 84q72 -102 187.5 -159.5t259.5 -57.5q87 0 156 27.5t108.5 71.5t59.5 95t20 103q0 48 -23.5 88t-63 69t-90.5 55t-107.5 49t-113 47.5t-107.5 55t-90.5 66.5t-63 87t-23.5 112q0 157 134 269t327 112q155 0 281 -58t190 -155l-89 -82q-62 93 -167 140.5 t-226 47.5q-134 0 -228.5 -79.5t-94.5 -182.5q0 -49 29.5 -90t77.5 -69t109.5 -57.5t125.5 -54t125.5 -59.5t109.5 -73.5t77.5 -96t29.5 -127.5q0 -62 -19.5 -122t-60 -113.5t-97 -94t-136 -64.5t-171.5 -24q-171 0 -314 68t-208 172zM688 1491l381 295h129l-418 -295h-92z " />
<glyph unicode="&#x15b;" horiz-adv-x="940" d="M16 150l76 73q41 -66 128.5 -111.5t195.5 -45.5q118 0 190 60.5t72 143.5q0 43 -29 77t-75.5 58.5t-103 46.5t-113 46.5t-103 53t-75.5 72t-29 97.5q0 125 97 209t263 84q122 0 219 -46.5t141 -115.5l-69 -70q-33 60 -117.5 101t-181.5 41q-110 0 -177 -51t-67 -128 q0 -41 29 -73.5t75.5 -55t103 -44t113 -46.5t103 -54.5t75.5 -75.5t29 -103q0 -131 -100 -224.5t-272 -93.5q-273 0 -398 175zM487 1139l381 295h129l-417 -295h-93z" />
<glyph unicode="&#x15c;" horiz-adv-x="1189" d="M49 215l86 84q72 -102 187.5 -159.5t259.5 -57.5q87 0 156 27.5t108.5 71.5t59.5 95t20 103q0 48 -23.5 88t-63 69t-90.5 55t-107.5 49t-113 47.5t-107.5 55t-90.5 66.5t-63 87t-23.5 112q0 157 134 269t327 112q155 0 281 -58t190 -155l-89 -82q-62 93 -167 140.5 t-226 47.5q-134 0 -228.5 -79.5t-94.5 -182.5q0 -49 29.5 -90t77.5 -69t109.5 -57.5t125.5 -54t125.5 -59.5t109.5 -73.5t77.5 -96t29.5 -127.5q0 -62 -19.5 -122t-60 -113.5t-97 -94t-136 -64.5t-171.5 -24q-171 0 -314 68t-208 172zM465 1491l264 295h111l137 -295h-78 l-127 231l-221 -231h-86z" />
<glyph unicode="&#x15d;" horiz-adv-x="940" d="M16 150l76 73q41 -66 128.5 -111.5t195.5 -45.5q118 0 190 60.5t72 143.5q0 43 -29 77t-75.5 58.5t-103 46.5t-113 46.5t-103 53t-75.5 72t-29 97.5q0 125 97 209t263 84q122 0 219 -46.5t141 -115.5l-69 -70q-33 60 -117.5 101t-181.5 41q-110 0 -177 -51t-67 -128 q0 -41 29 -73.5t75.5 -55t103 -44t113 -46.5t103 -54.5t75.5 -75.5t29 -103q0 -131 -100 -224.5t-272 -93.5q-273 0 -398 175zM346 1139l264 295h111l137 -295h-78l-127 231l-221 -231h-86z" />
<glyph unicode="&#x15e;" horiz-adv-x="1189" d="M49 215l86 84q72 -102 187.5 -159.5t259.5 -57.5q87 0 156 27.5t108.5 71.5t59.5 95t20 103q0 48 -23.5 88t-63 69t-90.5 55t-107.5 49t-113 47.5t-107.5 55t-90.5 66.5t-63 87t-23.5 112q0 157 134 269t327 112q155 0 281 -58t190 -155l-89 -82q-62 93 -167 140.5 t-226 47.5q-134 0 -228.5 -79.5t-94.5 -182.5q0 -49 29.5 -90t77.5 -69t109.5 -57.5t125.5 -54t125.5 -59.5t109.5 -73.5t77.5 -96t29.5 -127.5q0 -62 -19.5 -122t-60 -113.5t-97 -94t-136 -64.5t-171.5 -24q-11 0 -69 5l-58 -95q33 23 70 23q53 0 86 -31t33 -86 q0 -79 -59.5 -128.5t-155.5 -49.5q-133 0 -213 76l47 61q66 -69 170 -69q66 0 100.5 29.5t34.5 74.5q0 31 -22 50.5t-60 19.5q-46 0 -76 -37l-49 32l80 140q-129 23 -230 83t-151 142z" />
<glyph unicode="&#x15f;" horiz-adv-x="940" d="M16 150l76 73q41 -66 128.5 -111.5t195.5 -45.5q118 0 190 60.5t72 143.5q0 43 -29 77t-75.5 58.5t-103 46.5t-113 46.5t-103 53t-75.5 72t-29 97.5q0 125 97 209t263 84q122 0 219 -46.5t141 -115.5l-69 -70q-33 60 -117.5 101t-181.5 41q-110 0 -177 -51t-67 -128 q0 -41 29 -73.5t75.5 -55t103 -44t113 -46.5t103 -54.5t75.5 -75.5t29 -103q0 -131 -100 -224.5t-272 -93.5q-27 0 -41 2l-56 -92q33 23 70 23q53 0 86 -31t33 -86q0 -79 -59.5 -128.5t-155.5 -49.5q-133 0 -213 76l47 61q66 -69 170 -69q66 0 100.5 29.5t34.5 74.5 q0 31 -22 50.5t-60 19.5q-46 0 -76 -37l-49 32l78 136q-189 27 -285 164z" />
<glyph unicode="&#x160;" horiz-adv-x="1189" d="M49 215l86 84q72 -102 187.5 -159.5t259.5 -57.5q87 0 156 27.5t108.5 71.5t59.5 95t20 103q0 48 -23.5 88t-63 69t-90.5 55t-107.5 49t-113 47.5t-107.5 55t-90.5 66.5t-63 87t-23.5 112q0 157 134 269t327 112q155 0 281 -58t190 -155l-89 -82q-62 93 -167 140.5 t-226 47.5q-134 0 -228.5 -79.5t-94.5 -182.5q0 -49 29.5 -90t77.5 -69t109.5 -57.5t125.5 -54t125.5 -59.5t109.5 -73.5t77.5 -96t29.5 -127.5q0 -62 -19.5 -122t-60 -113.5t-97 -94t-136 -64.5t-171.5 -24q-171 0 -314 68t-208 172zM608 1786h78l125 -232l223 232h86 l-262 -295h-110z" />
<glyph unicode="&#x161;" horiz-adv-x="940" d="M16 150l76 73q41 -66 128.5 -111.5t195.5 -45.5q118 0 190 60.5t72 143.5q0 43 -29 77t-75.5 58.5t-103 46.5t-113 46.5t-103 53t-75.5 72t-29 97.5q0 125 97 209t263 84q122 0 219 -46.5t141 -115.5l-69 -70q-33 60 -117.5 101t-181.5 41q-110 0 -177 -51t-67 -128 q0 -41 29 -73.5t75.5 -55t103 -44t113 -46.5t103 -54.5t75.5 -75.5t29 -103q0 -131 -100 -224.5t-272 -93.5q-273 0 -398 175zM412 1434h77l125 -232l224 232h86l-262 -295h-111z" />
<glyph unicode="&#x162;" horiz-adv-x="1155" d="M240 1260l22 106h1012l-23 -106h-446l-279 -1260h-118l278 1260h-446zM266 -481q56 30 98 75.5t54 90.5h-15q-25 0 -44 20t-19 47q0 36 27 62t61 26q35 0 57.5 -23.5t22.5 -66.5q0 -78 -59 -158t-138 -122z" />
<glyph unicode="&#x163;" horiz-adv-x="563" d="M-29 -481q56 30 98 75.5t54 90.5h-14q-25 0 -44.5 20t-19.5 47q0 36 27 62t61 26q35 0 57.5 -23.5t22.5 -66.5q0 -78 -59 -158t-138 -122zM111 139q0 30 8 54l155 702h-163l20 94h164l59 271h109l-60 -271h201l-22 -94h-201l-152 -686q-4 -24 -4 -43q0 -94 101 -94 q53 0 104 37l21 -86q-66 -48 -142 -48q-95 0 -146.5 40.5t-51.5 123.5z" />
<glyph unicode="&#x164;" horiz-adv-x="1155" d="M240 1260l22 106h1012l-23 -106h-446l-279 -1260h-118l278 1260h-446zM606 1786h78l125 -232l223 232h86l-262 -295h-111z" />
<glyph unicode="&#x165;" horiz-adv-x="583" d="M111 139q0 30 8 54l155 702h-163l20 94h164l59 271h109l-60 -271h201l-22 -94h-201l-152 -686q-4 -24 -4 -43q0 -94 101 -94q53 0 104 37l21 -86q-66 -48 -142 -48q-95 0 -146.5 40.5t-51.5 123.5zM551 1182q56 29 97.5 75t53.5 91h-14q-25 0 -44 20t-19 47q0 36 27 62 t61 26q35 0 57.5 -23.5t22.5 -66.5q0 -78 -59 -158t-138 -122z" />
<glyph unicode="&#x166;" horiz-adv-x="1155" d="M223 629l19 78h321l123 553h-446l22 106h1012l-23 -106h-446l-123 -553h324l-19 -78h-321l-140 -629h-118l139 629h-324z" />
<glyph unicode="&#x167;" horiz-adv-x="563" d="M18 479l17 78h164l75 338h-163l20 94h164l59 271h109l-60 -271h201l-22 -94h-201l-76 -338h146l-19 -78h-143l-60 -270q-4 -24 -4 -43q0 -94 101 -94q53 0 104 37l21 -86q-66 -48 -142 -48q-95 0 -146.5 40.5t-51.5 123.5q0 30 8 54l63 286h-164z" />
<glyph unicode="&#x168;" horiz-adv-x="1404" d="M166 420q0 47 10 104l184 842h119l-184 -840q-12 -48 -12 -92q0 -158 103 -255t286 -97q192 0 296.5 112t153.5 332l185 840h118l-184 -842q-29 -132 -72 -228.5t-109.5 -171t-163.5 -112t-224 -37.5q-235 0 -370.5 120t-135.5 325zM614 1499q25 123 83.5 199t146.5 76 q43 0 72 -21.5t45 -52t30 -61.5t36.5 -52.5t55.5 -21.5q94 0 144 196h73q-26 -124 -84.5 -199t-146.5 -75q-43 0 -72 21.5t-45 52.5t-30 61.5t-37 52t-56 21.5q-94 0 -141 -197h-74z" />
<glyph unicode="&#x169;" horiz-adv-x="1105" d="M111 217q0 38 12 84l149 688h109l-150 -670q-10 -45 -10 -73q0 -88 59.5 -131t159.5 -43q88 0 177.5 50t158.5 124l166 743h107l-220 -989h-106l33 150q-179 -175 -357 -175q-131 0 -209.5 62t-78.5 180zM381 1147q25 123 83 198.5t146 75.5q43 0 72 -21.5t45 -52.5 t30.5 -61.5t37 -52t55.5 -21.5q93 0 143 197h74q-26 -124 -84.5 -199t-146.5 -75q-43 0 -72 21.5t-45 52t-30 61t-37 52t-56 21.5q-94 0 -141 -196h-74z" />
<glyph unicode="&#x16a;" horiz-adv-x="1404" d="M166 420q0 47 10 104l184 842h119l-184 -840q-12 -48 -12 -92q0 -158 103 -255t286 -97q192 0 296.5 112t153.5 332l185 840h118l-184 -842q-30 -132 -73 -228.5t-109.5 -171t-163 -112t-223.5 -37.5q-235 0 -370.5 120t-135.5 325zM561 1534l17 78h741l-16 -78h-742z " />
<glyph unicode="&#x16b;" horiz-adv-x="1105" d="M111 217q0 38 12 84l149 688h109l-150 -670q-10 -45 -10 -73q0 -88 59.5 -131t159.5 -43q88 0 177.5 50t158.5 124l166 743h107l-220 -989h-106l33 150q-179 -175 -357 -175q-131 0 -209.5 62t-78.5 180zM334 1186l16 78h742l-17 -78h-741z" />
<glyph unicode="&#x16c;" horiz-adv-x="1404" d="M166 420q0 47 10 104l184 842h119l-184 -840q-12 -48 -12 -92q0 -158 103 -255t286 -97q192 0 296.5 112t153.5 332l185 840h118l-184 -842q-29 -132 -72 -228.5t-109.5 -171t-163.5 -112t-224 -37.5q-235 0 -370.5 120t-135.5 325zM606 1665l68 51q36 -72 105 -112.5 t161 -40.5q93 0 180 40.5t154 112.5l51 -51q-81 -84 -184.5 -132t-212.5 -48q-108 0 -192.5 48t-129.5 132z" />
<glyph unicode="&#x16d;" horiz-adv-x="1105" d="M111 217q0 38 12 84l149 688h109l-150 -670q-10 -45 -10 -73q0 -88 59.5 -131t159.5 -43q88 0 177.5 50t158.5 124l166 743h107l-220 -989h-106l33 150q-179 -175 -357 -175q-131 0 -209.5 62t-78.5 180zM381 1339l68 52q36 -72 105 -113t161 -41q93 0 179.5 41 t154.5 113l51 -52q-81 -84 -185 -132t-213 -48q-108 0 -192 48t-129 132z" />
<glyph unicode="&#x16e;" horiz-adv-x="1404" d="M166 420q0 47 10 104l184 842h119l-184 -840q-12 -48 -12 -92q0 -158 103 -255t286 -97q192 0 296.5 112t153.5 332l185 840h118l-184 -842q-29 -132 -72 -228.5t-109.5 -171t-163.5 -112t-224 -37.5q-235 0 -370.5 120t-135.5 325zM750 1595q0 87 64 151t151 64 q78 0 128 -50t50 -128q0 -87 -64 -151t-151 -64q-78 0 -128 50t-50 128zM815 1602q0 -53 31.5 -86t83.5 -33q59 0 103 42.5t44 100.5q0 53 -31.5 86t-82.5 33q-60 0 -104 -42.5t-44 -100.5z" />
<glyph unicode="&#x16f;" horiz-adv-x="1105" d="M111 217q0 38 12 84l149 688h109l-150 -670q-10 -45 -10 -73q0 -88 59.5 -131t159.5 -43q88 0 177.5 50t158.5 124l166 743h107l-220 -989h-106l33 150q-179 -175 -357 -175q-131 0 -209.5 62t-78.5 180zM539 1319q0 87 64 151t151 64q78 0 128 -50t50 -128 q0 -87 -64 -151t-151 -64q-78 0 -128 50t-50 128zM604 1325q0 -53 31.5 -86t83.5 -33q59 0 103 43t44 101q0 53 -31.5 85.5t-82.5 32.5q-60 0 -104 -42.5t-44 -100.5z" />
<glyph unicode="&#x170;" horiz-adv-x="1404" d="M166 420q0 47 10 104l184 842h119l-184 -840q-12 -48 -12 -92q0 -158 103 -255t286 -97q192 0 296.5 112t153.5 332l185 840h118l-184 -842q-29 -132 -72 -228.5t-109.5 -171t-163.5 -112t-224 -37.5q-235 0 -370.5 120t-135.5 325zM705 1491l264 295h116l-301 -295h-79z M989 1491l264 295h117l-301 -295h-80z" />
<glyph unicode="&#x171;" horiz-adv-x="1105" d="M111 217q0 38 12 84l149 688h109l-150 -670q-10 -45 -10 -73q0 -88 59.5 -131t159.5 -43q88 0 177.5 50t158.5 124l166 743h107l-220 -989h-106l33 150q-179 -175 -357 -175q-131 0 -209.5 62t-78.5 180zM475 1139l264 295h117l-301 -295h-80zM760 1139l264 295h117 l-301 -295h-80z" />
<glyph unicode="&#x172;" horiz-adv-x="1404" d="M166 420q0 47 10 104l184 842h119l-184 -840q-12 -48 -12 -92q0 -158 103 -255t286 -97q192 0 296.5 112t153.5 332l185 840h118l-184 -842q-47 -215 -138 -347t-247 -177q-213 -92 -213 -225q0 -43 25 -65.5t69 -22.5q71 0 121 88l53 -37q-74 -119 -184 -119 q-70 0 -114 37.5t-44 105.5q0 125 119 213h-16q-235 0 -370.5 120t-135.5 325z" />
<glyph unicode="&#x173;" horiz-adv-x="1105" d="M111 217q0 38 12 84l149 688h109l-150 -670q-10 -45 -10 -73q0 -88 59.5 -131t159.5 -43q88 0 177.5 50t158.5 124l166 743h107l-220 -989q-213 -92 -213 -225q0 -43 25.5 -65.5t69.5 -22.5q70 0 120 88l54 -37q-74 -119 -185 -119q-70 0 -113.5 37.5t-43.5 105.5 q0 155 182 252l31 136q-179 -175 -357 -175q-131 0 -209.5 62t-78.5 180z" />
<glyph unicode="&#x174;" horiz-adv-x="1775" d="M229 1366h129l62 -1202l602 1202h106l70 -1202l594 1202h135l-690 -1366h-131l-70 1174l-585 -1174h-132zM852 1491l264 295h111l137 -295h-78l-127 231l-221 -231h-86z" />
<glyph unicode="&#x175;" horiz-adv-x="1472" d="M143 989h109l78 -839l465 839h90l92 -839l450 839h119l-540 -989h-103l-90 846l-465 -846h-102zM623 1139l264 295h110l138 -295h-78l-127 231l-221 -231h-86z" />
<glyph unicode="&#x176;" horiz-adv-x="1265" d="M221 1366h131l314 -672l608 672h151l-714 -782l-129 -584h-119l131 584zM600 1491l264 295h111l137 -295h-78l-127 231l-221 -231h-86z" />
<glyph unicode="&#x177;" horiz-adv-x="985" d="M-94 -381l41 102q36 -18 96 -18q42 0 77.5 24.5t78.5 88.5l118 178l-194 995h115l165 -864l551 864h125l-780 -1206q-59 -94 -125.5 -139t-150.5 -45q-62 0 -117 20zM379 1139l264 295h111l137 -295h-78l-127 231l-221 -231h-86z" />
<glyph unicode="&#x178;" horiz-adv-x="1265" d="M221 1366h131l314 -672l608 672h151l-714 -782l-129 -584h-119l131 584zM592 1567q0 34 26 59t60 25q29 0 48 -19.5t19 -48.5q0 -34 -25.5 -59t-60.5 -25q-28 0 -47.5 19.5t-19.5 48.5zM1010 1567q0 34 26 59t60 25q29 0 48 -19.5t19 -48.5q0 -34 -25 -59t-59 -25 q-29 0 -49 19.5t-20 48.5z" />
<glyph unicode="&#x179;" horiz-adv-x="1189" d="M-8 0l22 102l1069 1158h-811l21 106h971l-21 -100l-1071 -1160h827l-22 -106h-985zM688 1491l381 295h129l-418 -295h-92z" />
<glyph unicode="&#x17a;" horiz-adv-x="960" d="M4 0l19 88l757 807h-577l20 94h723l-18 -86l-764 -809h590l-19 -94h-731zM496 1139l381 295h129l-418 -295h-92z" />
<glyph unicode="&#x17b;" horiz-adv-x="1189" d="M-8 0l22 102l1069 1158h-811l21 106h971l-21 -100l-1071 -1160h827l-22 -106h-985zM752 1569q0 34 26.5 60t61.5 26q29 0 49 -20.5t20 -49.5q0 -35 -26.5 -60.5t-61.5 -25.5q-29 0 -49 19.5t-20 50.5z" />
<glyph unicode="&#x17c;" horiz-adv-x="960" d="M4 0l19 88l757 807h-577l20 94h723l-18 -86l-764 -809h590l-19 -94h-731zM571 1262q0 34 26.5 60t61.5 26q29 0 49.5 -20.5t20.5 -49.5q0 -35 -26.5 -60.5t-61.5 -25.5q-30 0 -50 20t-20 50z" />
<glyph unicode="&#x17d;" horiz-adv-x="1189" d="M-8 0l22 102l1069 1158h-811l21 106h971l-21 -100l-1071 -1160h827l-22 -106h-985zM623 1786h77l125 -232l224 232h86l-263 -295h-110z" />
<glyph unicode="&#x17e;" horiz-adv-x="960" d="M4 0l19 88l757 807h-577l20 94h723l-18 -86l-764 -809h590l-19 -94h-731zM416 1434h78l124 -232l224 232h86l-262 -295h-111z" />
<glyph unicode="&#x17f;" horiz-adv-x="542" d="M90 0l199 895h-164l20 94h164l19 90q29 144 105.5 225.5t201.5 81.5q121 0 196 -75l-65 -76q-48 55 -129 55q-83 0 -130.5 -53.5t-70.5 -157.5l-237 -1079h-109z" />
<glyph unicode="&#x192;" horiz-adv-x="864" d="M-45 -330l192 862h-151v101h172l100 452q70 301 305 301q126 0 203 -77l-59 -82q-45 53 -125 53t-132.5 -55t-74.5 -154l-98 -438h309v-101h-330l-190 -862h-121z" />
<glyph unicode="&#x1fc;" horiz-adv-x="1923" d="M-82 0l1163 1366h910l-23 -106h-747l-113 -506h733l-22 -107h-736l-118 -541h747l-22 -106h-867l74 336h-555l-283 -336h-141zM426 442h496l174 789zM1085 1491l381 295h129l-417 -295h-93z" />
<glyph unicode="&#x1fd;" horiz-adv-x="1939" d="M92 381q0 168 63.5 311.5t183.5 232.5t271 89q119 0 212.5 -52.5t144.5 -140.5l37 168h108l-41 -186q73 98 171.5 154.5t209.5 56.5q188 0 288.5 -117.5t100.5 -306.5q0 -71 -14 -129h-826q-4 -24 -4 -58q0 -144 94.5 -239.5t268.5 -95.5q159 0 289 106l41 -78 q-157 -121 -330 -121q-165 0 -269.5 80.5t-138.5 214.5l-59 -270h-109l33 150q-62 -81 -149.5 -128t-188.5 -47q-173 0 -280 109t-107 297zM209 401q0 -151 81.5 -240t217.5 -89q99 0 189.5 54.5t146.5 135.5l104 475q-39 78 -125.5 129.5t-201.5 51.5q-119 0 -215.5 -75.5 t-146.5 -193t-50 -248.5zM897 1139l381 295h129l-418 -295h-92zM1012 545h725q4 20 4 45q0 150 -82.5 241t-237.5 91q-147 0 -264.5 -111t-144.5 -266z" />
<glyph unicode="&#x1fe;" horiz-adv-x="1564" d="M137 567q0 170 60.5 323t162.5 262t241.5 173t293.5 64q219 0 379 -111l76 88h106l-119 -139q170 -163 170 -430q0 -226 -101.5 -415.5t-275 -298t-378.5 -108.5q-230 0 -387 115l-78 -90h-105l121 141q-166 163 -166 426zM264 571q0 -208 117 -338l815 955 q-133 94 -311 94q-123 0 -236.5 -53.5t-198.5 -146t-135.5 -226t-50.5 -285.5zM440 180q128 -98 318 -98q123 0 236.5 53.5t198.5 146t136 226.5t51 285q0 207 -123 340zM879 1491l381 295h129l-418 -295h-92z" />
<glyph unicode="&#x1ff;" horiz-adv-x="1169" d="M39 0l135 135q-82 111 -82 275q0 156 70 294.5t196.5 224t278.5 85.5q184 0 301 -105l78 80h94l-125 -127q88 -114 88 -282q0 -156 -70 -294.5t-196.5 -224.5t-278.5 -86q-194 0 -311 111l-84 -86h-94zM209 414q0 -120 45 -197l608 617q-87 84 -227 84q-120 0 -219 -72.5 t-153 -188t-54 -243.5zM295 164q86 -92 235 -92q120 0 219 72.5t153 187.5t54 243q0 122 -53 205zM602 1139l381 295h129l-418 -295h-92z" />
<glyph unicode="&#x218;" horiz-adv-x="1196" d="M53 215l86 84q72 -102 187.5 -159.5t259.5 -57.5q87 0 156 27.5t108.5 71.5t59.5 95t20 103q0 48 -23.5 88t-63 69t-90.5 55t-107.5 49t-113 47.5t-107.5 55t-90.5 66.5t-63 87t-23.5 112q0 157 134 269t327 112q155 0 281 -58t190 -155l-88 -82q-62 93 -167.5 140.5 t-226.5 47.5q-134 0 -228.5 -79.5t-94.5 -182.5q0 -49 29.5 -90t77.5 -69t109.5 -57.5t125.5 -54t125.5 -59.5t109.5 -73.5t77.5 -96t29.5 -127.5q0 -62 -19.5 -122t-60 -113.5t-97 -94t-136 -64.5t-171.5 -24q-171 0 -314 68t-208 172zM279 -481q56 29 97.5 75t53.5 91h-14 q-25 0 -44.5 20t-19.5 47q0 36 27 62t61 26q35 0 57.5 -23.5t22.5 -66.5q0 -79 -58.5 -158.5t-137.5 -121.5z" />
<glyph unicode="&#x219;" horiz-adv-x="944" d="M16 150l76 73q41 -66 128.5 -111.5t195.5 -45.5q118 0 190 60.5t72 143.5q0 43 -29 77t-75.5 58.5t-103 46.5t-113 46.5t-103 53t-75.5 72t-29 97.5q0 125 97 209t263 84q122 0 219 -46.5t141 -115.5l-69 -70q-33 60 -117.5 101t-181.5 41q-110 0 -177 -51t-67 -128 q0 -41 29 -73.5t75.5 -55t103 -44t113 -46.5t103 -54.5t75.5 -75.5t29 -103q0 -131 -100 -224.5t-272 -93.5q-273 0 -398 175zM162 -481q56 29 97.5 75t53.5 91h-14q-25 0 -44 20t-19 47q0 36 27 62t61 26q35 0 57 -23.5t22 -66.5q0 -79 -58.5 -158.5t-137.5 -121.5z" />
<glyph unicode="&#x2b0;" horiz-adv-x="804" d="M264 668l197 888h86l-74 -342q45 48 108 80.5t128 32.5q94 0 146 -42t52 -118q0 -25 -8 -65l-96 -434h-88l94 424q4 20 4 41q0 59 -37.5 89.5t-107.5 30.5q-103 0 -213 -110l-105 -475h-86z" />
<glyph unicode="&#x2c6;" horiz-adv-x="512" d="M141 1139l265 295h110l137 -295h-78l-126 231l-222 -231h-86z" />
<glyph unicode="&#x2c7;" horiz-adv-x="512" d="M207 1434h78l125 -232l223 232h86l-262 -295h-111z" />
<glyph unicode="&#x2d8;" horiz-adv-x="718" d="M184 1339l68 52q36 -72 105 -113t161 -41q93 0 179.5 41t154.5 113l51 -52q-81 -84 -184.5 -132t-212.5 -48q-108 0 -192.5 48t-129.5 132z" />
<glyph unicode="&#x2d9;" horiz-adv-x="174" d="M178 1262q0 34 26.5 60t61.5 26q29 0 49.5 -20.5t20.5 -49.5q0 -35 -26.5 -60.5t-61.5 -25.5q-30 0 -50 20t-20 50z" />
<glyph unicode="&#x2da;" horiz-adv-x="391" d="M182 1319q0 87 64 151t151 64q78 0 128 -50t50 -128q0 -87 -64 -151t-151 -64q-78 0 -128 50t-50 128zM248 1325q0 -53 31 -86t83 -33q59 0 103.5 43t44.5 101q0 52 -32 85t-83 33q-60 0 -103.5 -42.5t-43.5 -100.5z" />
<glyph unicode="&#x2db;" horiz-adv-x="350" d="M-160 -238q0 175 236 279l51 -41q-213 -92 -213 -225q0 -43 25 -65.5t69 -22.5q71 0 121 88l53 -37q-74 -119 -184 -119q-70 0 -114 37.5t-44 105.5z" />
<glyph unicode="&#x2dc;" horiz-adv-x="628" d="M143 1147q25 123 83.5 198.5t146.5 75.5q43 0 72 -21.5t45 -52.5t30 -61.5t36.5 -52t55.5 -21.5q94 0 144 197h73q-26 -124 -84.5 -199t-146.5 -75q-43 0 -72 21.5t-45 52t-30 61t-37 52t-56 21.5q-94 0 -141 -196h-74z" />
<glyph unicode="&#x2dd;" horiz-adv-x="595" d="M137 1139l264 295h117l-301 -295h-80zM422 1139l264 295h117l-301 -295h-80z" />
<glyph unicode="&#x394;" horiz-adv-x="1325" d="M-80 0l860 1366h146l258 -1366h-1264zM121 106h919l-209 1135z" />
<glyph unicode="&#x3a9;" horiz-adv-x="1564" d="M47 0l23 106h321q-246 188 -246 486q0 123 34.5 241t101.5 218t157 176t208 119t249 43q275 0 442.5 -160t167.5 -434q0 -233 -123 -409t-329 -280h268l-23 -106h-464l22 106q219 44 369.5 235.5t150.5 449.5q0 224 -133 356.5t-350 132.5q-135 0 -253 -57t-200 -153 t-129 -226t-47 -273q0 -167 76 -283.5t195 -181.5l-23 -106h-465z" />
<glyph unicode="&#x3bc;" horiz-adv-x="1105" d="M-29 -377l303 1366h107l-154 -696q-6 -30 -6 -68q0 -86 49.5 -121.5t143.5 -35.5q92 0 192.5 49.5t165.5 118.5l170 753h107l-220 -989h-106l31 145q-81 -73 -187 -121.5t-207 -48.5q-128 0 -192 52l-90 -404h-107z" />
<glyph unicode="&#x3c0;" horiz-adv-x="1095" d="M123 0l205 926h-162l20 98h953l-21 -98h-164l-202 -926h-113l205 926h-406l-202 -926h-113z" />
<glyph unicode="&#x2000;" horiz-adv-x="907" />
<glyph unicode="&#x2001;" horiz-adv-x="1815" />
<glyph unicode="&#x2002;" horiz-adv-x="907" />
<glyph unicode="&#x2003;" horiz-adv-x="1815" />
<glyph unicode="&#x2004;" horiz-adv-x="605" />
<glyph unicode="&#x2005;" horiz-adv-x="453" />
<glyph unicode="&#x2006;" horiz-adv-x="302" />
<glyph unicode="&#x2007;" horiz-adv-x="302" />
<glyph unicode="&#x2008;" horiz-adv-x="226" />
<glyph unicode="&#x2009;" horiz-adv-x="363" />
<glyph unicode="&#x200a;" horiz-adv-x="100" />
<glyph unicode="&#x2010;" horiz-adv-x="614" d="M49 446l21 99h491l-20 -99h-492z" />
<glyph unicode="&#x2011;" horiz-adv-x="614" d="M49 446l21 99h491l-20 -99h-492z" />
<glyph unicode="&#x2012;" horiz-adv-x="614" d="M49 446l21 99h491l-20 -99h-492z" />
<glyph unicode="&#x2013;" horiz-adv-x="1214" d="M49 446l21 99h1091l-20 -99h-1092z" />
<glyph unicode="&#x2014;" horiz-adv-x="1705" d="M49 446l21 99h1583l-21 -99h-1583z" />
<glyph unicode="&#x2018;" horiz-adv-x="448" d="M238 1087q0 84 62.5 169t148.5 130l49 -53q-57 -29 -102 -77t-58 -95h14q28 0 49 -22t21 -54q0 -39 -28.5 -67.5t-67.5 -28.5t-63.5 25t-24.5 73z" />
<glyph unicode="&#x2019;" horiz-adv-x="448" d="M236 1042q57 29 101.5 77t57.5 95h-14q-28 0 -49 22t-21 52q0 41 29 69.5t68 28.5t63.5 -25t24.5 -73q0 -84 -62.5 -169t-148.5 -130z" />
<glyph unicode="&#x201a;" horiz-adv-x="448" d="M-37 -184q57 29 102 77t58 95h-14q-28 0 -49 21.5t-21 51.5q0 41 28.5 70t67.5 29q38 0 63 -26.5t25 -72.5q0 -85 -63 -170.5t-148 -128.5z" />
<glyph unicode="&#x201c;" horiz-adv-x="739" d="M258 1087q0 85 62 169.5t147 129.5l51 -53q-57 -29 -102 -77t-58 -95h15q28 0 48.5 -22t20.5 -54q0 -39 -29.5 -67.5t-68.5 -28.5q-37 0 -61.5 25.5t-24.5 72.5zM547 1087q0 85 62 169.5t147 129.5l49 -53q-57 -30 -102 -78t-58 -94h14q30 0 51 -22t21 -54 q0 -39 -29.5 -67.5t-68.5 -28.5q-38 0 -62 25t-24 73z" />
<glyph unicode="&#x201d;" horiz-adv-x="739" d="M236 1042q57 29 101.5 77t57.5 95h-14q-28 0 -49 22t-21 52q0 41 29 69.5t68 28.5t63.5 -25t24.5 -73q0 -84 -62.5 -169t-148.5 -130zM524 1042q57 29 102 77t58 95h-14q-29 0 -49.5 21.5t-20.5 52.5q0 41 28.5 69.5t67.5 28.5q38 0 62 -25t24 -73q0 -85 -62 -169.5 t-147 -129.5z" />
<glyph unicode="&#x201e;" horiz-adv-x="739" d="M-37 -184q57 29 102 77t58 95h-14q-28 0 -49 21.5t-21 51.5q0 41 28.5 70t67.5 29q38 0 63 -26.5t25 -72.5q0 -85 -63 -170.5t-148 -128.5zM252 -184q57 30 102 78t58 94h-15q-29 0 -50 21t-21 52q0 41 29.5 70t68.5 29q38 0 62 -26.5t24 -72.5q0 -85 -62 -170.5 t-147 -128.5z" />
<glyph unicode="&#x2020;" horiz-adv-x="526" d="M180 1096l17 71l180 -6l43 225h80l-60 -225l185 6l-17 -71l-180 8l-88 -434h-80l105 434z" />
<glyph unicode="&#x2021;" horiz-adv-x="526" d="M68 588l16 71l180 -8l101 453l-185 -8l17 71l180 -6l43 225h80l-60 -225l185 6l-17 -71l-180 8l-100 -453l184 8l-16 -71l-181 6l-43 -225h-79l59 225z" />
<glyph unicode="&#x2022;" horiz-adv-x="733" d="M154 477q0 93 70.5 161.5t164.5 68.5q82 0 136.5 -54.5t54.5 -136.5q0 -93 -71 -161t-165 -68q-82 0 -136 54t-54 136z" />
<glyph unicode="&#x2026;" horiz-adv-x="1345" d="M39 63q0 40 29 68.5t69 28.5q35 0 58.5 -24t23.5 -58q0 -41 -29 -69.5t-69 -28.5q-35 0 -58.5 24t-23.5 59zM487 63q0 40 29.5 68.5t69.5 28.5q35 0 58.5 -24t23.5 -58q0 -41 -29.5 -69.5t-69.5 -28.5q-35 0 -58.5 24t-23.5 59zM936 63q0 40 29 68.5t69 28.5 q35 0 58.5 -24t23.5 -58q0 -41 -28.5 -69.5t-69.5 -28.5q-34 0 -58 24t-24 59z" />
<glyph unicode="&#x202f;" horiz-adv-x="363" />
<glyph unicode="&#x2030;" horiz-adv-x="2185" d="M152 0l1173 1366h94l-1175 -1366h-92zM184 989q0 173 106.5 285t252.5 112q125 0 210 -76t85 -196q0 -173 -107 -286t-252 -113q-125 0 -210 76.5t-85 197.5zM279 997q0 -88 57.5 -145t146.5 -57q104 0 182 90t78 219q0 88 -57.5 145.5t-146.5 57.5q-105 0 -182.5 -89.5 t-77.5 -220.5zM715 250q0 173 106.5 285t251.5 112q127 0 212 -76.5t85 -197.5q0 -173 -106.5 -285.5t-251.5 -112.5q-126 0 -211.5 77t-85.5 198zM809 258q0 -88 58.5 -145.5t146.5 -57.5q105 0 182.5 89.5t77.5 220.5q0 88 -57.5 145t-145.5 57q-105 0 -183.5 -89.5 t-78.5 -219.5zM1425 250q0 173 107 285t252 112q127 0 212 -76.5t85 -197.5q0 -173 -107 -285.5t-252 -112.5q-126 0 -211.5 77t-85.5 198zM1522 258q0 -88 57 -145.5t145 -57.5q105 0 184 89.5t79 220.5q0 87 -58.5 144.5t-146.5 57.5q-105 0 -182.5 -89.5t-77.5 -219.5z " />
<glyph unicode="&#x2039;" horiz-adv-x="567" d="M59 498l410 362h125l-418 -373l238 -358h-109z" />
<glyph unicode="&#x203a;" horiz-adv-x="567" d="M-23 129l418 373l-237 358h108l246 -368l-410 -363h-125z" />
<glyph unicode="&#x2044;" horiz-adv-x="266" d="M-461 0l1174 1366h94l-1176 -1366h-92z" />
<glyph unicode="&#x205f;" horiz-adv-x="453" />
<glyph unicode="&#x2070;" d="M209 1165q0 47 9 101t27.5 115t50.5 115.5t73 99.5t101 71.5t130 26.5q135 0 207 -86.5t72 -231.5q0 -57 -12.5 -123.5t-42.5 -139t-73 -131t-112 -96.5t-152 -38q-134 0 -206 86.5t-72 230.5zM303 1163q0 -237 186 -237q64 0 116 32t84.5 81.5t54.5 111.5t31 119t9 108 q0 238 -186 238q-64 0 -116 -32t-84.5 -81.5t-54.5 -112t-31 -119.5t-9 -108z" />
<glyph unicode="&#x2074;" d="M197 1081l16 72l483 528h125l-116 -524h122l-14 -76h-123l-49 -219h-90l47 219h-401zM309 1157h305l97 432z" />
<glyph unicode="&#x2075;" d="M197 997l67 52q73 -123 228 -123q98 0 160.5 61t62.5 154q0 78 -55 120t-136 42q-106 0 -192 -80l-64 28l97 430h507l-16 -77h-416l-65 -297q79 69 184 69q102 0 176 -61t74 -162q0 -131 -90.5 -218t-226.5 -87q-105 0 -182 40t-113 109z" />
<glyph unicode="&#x2076;" d="M219 1141q0 145 51 271.5t144.5 204t208.5 77.5q82 0 151 -28t103 -75l-60 -63q-25 41 -76 64.5t-120 23.5q-58 0 -110 -29.5t-86 -74t-59.5 -96t-37 -94.5t-11.5 -71v-8q114 133 248 133q109 0 182.5 -58t73.5 -165q0 -79 -34.5 -147.5t-107 -113t-169.5 -44.5 q-143 0 -217 80t-74 213zM307 1124q0 -91 55.5 -144.5t145.5 -53.5q100 0 159.5 65t59.5 150q0 76 -53 117.5t-142 41.5q-115 0 -221 -131q-4 -10 -4 -45z" />
<glyph unicode="&#x2077;" horiz-adv-x="735" d="M248 862l516 742h-467l16 77h574l-15 -63l-522 -756h-102z" />
<glyph unicode="&#x2078;" d="M197 1063q0 88 74.5 152.5t189.5 76.5q-160 60 -160 176q0 72 44 125t107.5 77t135.5 24q71 0 135 -20.5t109 -67.5t45 -111q0 -86 -61.5 -146.5t-182.5 -74.5q71 -26 119.5 -76.5t48.5 -118.5q0 -100 -86 -165.5t-217 -65.5q-129 0 -215 57.5t-86 157.5zM289 1069 q0 -64 61.5 -105.5t143.5 -41.5q86 0 150.5 45.5t64.5 115.5q0 54 -46 98t-122 68q-115 -7 -183.5 -56.5t-68.5 -123.5zM391 1464q0 -42 34 -77t68 -50t64 -22q38 2 75 12t72.5 28t57.5 49.5t22 72.5q0 70 -54.5 105.5t-141.5 35.5q-81 0 -139 -42t-58 -112z" />
<glyph unicode="&#x2079;" d="M213 952l61 64q25 -41 76 -64.5t119 -23.5q58 0 109.5 29.5t86 73.5t59.5 95.5t36.5 94.5t11.5 71v8q-114 -133 -248 -133q-109 0 -182.5 58.5t-73.5 165.5q0 123 84.5 214t229.5 91q142 0 215 -80t73 -213q0 -145 -51 -271.5t-144 -204t-206 -77.5q-83 0 -152 27.5 t-104 74.5zM362 1403q0 -76 54 -118t143 -42q113 0 219 131q4 10 4 45q0 92 -54.5 145.5t-145.5 53.5q-99 0 -159.5 -65t-60.5 -150z" />
<glyph unicode="&#x207d;" horiz-adv-x="303" d="M201 1079q0 401 319 736l45 -25q-134 -189 -204 -366t-70 -375q0 -162 47 -295l-57 -25q-80 151 -80 350z" />
<glyph unicode="&#x207e;" horiz-adv-x="303" d="M106 754q135 188 205 365t70 376q0 162 -45 295l57 25q78 -153 78 -351q0 -402 -317 -735z" />
<glyph unicode="&#x207f;" horiz-adv-x="804" d="M170 668l141 643h88l-20 -97q45 48 107.5 80.5t127.5 32.5q94 0 146.5 -42t52.5 -118q0 -25 -8 -65l-96 -434h-88l94 424q4 20 4 41q0 59 -38 89.5t-108 30.5q-101 0 -213 -112l-102 -473h-88z" />
<glyph unicode="&#x2080;" d="M-29 4q0 57 12 123.5t42 139t73 131t112 96.5t152 38q135 0 207 -86t72 -231q0 -57 -12 -123.5t-42 -139t-73 -131t-112 -96.5t-152 -38q-134 0 -206.5 86.5t-72.5 230.5zM66 2q0 -238 186 -238q64 0 116 32t84.5 81.5t54.5 112t31 119.5t9 108q0 238 -187 238 q-64 0 -116 -32t-84 -81.5t-54 -112t-31 -119.5t-9 -108z" />
<glyph unicode="&#x2081;" horiz-adv-x="438" d="M-6 317l244 203h81l-180 -819h-94l152 690l-158 -135z" />
<glyph unicode="&#x2082;" d="M-70 -299l19 80q92 56 142 87t123.5 78.5t113.5 78t87.5 72t71 74t40 69.5t16.5 73q0 69 -55.5 105.5t-131.5 36.5q-144 0 -231 -97l-45 62q106 112 276 112q51 0 98.5 -12t89.5 -36t67.5 -67t25.5 -100q0 -42 -16.5 -84t-41.5 -79t-70 -79t-85.5 -74t-105 -75.5 t-111 -72.5t-121.5 -74h436l-16 -78h-576z" />
<glyph unicode="&#x2083;" d="M-43 -166l66 51q77 -121 243 -121q91 0 146 53t55 132q0 60 -59.5 98.5t-153.5 38.5q-43 0 -57 -2l16 78q62 -4 121 -4q92 0 148.5 42t56.5 115q0 64 -59 102t-142 38q-120 0 -223 -90l-41 59q51 46 122.5 77t145.5 31q123 0 206 -52.5t83 -151.5q0 -92 -64.5 -149.5 t-163.5 -65.5q63 -11 110.5 -59.5t47.5 -116.5q0 -97 -81 -173.5t-212 -76.5q-107 0 -188.5 38.5t-122.5 108.5z" />
<glyph unicode="&#x2084;" d="M-41 -80l16 72l484 528h125l-117 -524h123l-15 -76h-122l-50 -219h-90l47 219h-401zM72 -4h305l96 432z" />
<glyph unicode="&#x2085;" d="M-41 -164l68 51q73 -123 227 -123q98 0 160.5 61.5t62.5 154.5q0 78 -54 119.5t-136 41.5q-107 0 -193 -80l-63 29l96 430h508l-17 -78h-415l-66 -297q80 70 185 70q102 0 175.5 -61t73.5 -162q0 -131 -90.5 -218t-226.5 -87q-105 0 -182 40t-113 109z" />
<glyph unicode="&#x2086;" d="M-18 -20q0 145 50.5 271t144 203.5t208.5 77.5q82 0 151 -27.5t103 -74.5l-59 -63q-25 41 -76.5 64.5t-120.5 23.5q-72 0 -133 -44.5t-96 -106.5t-54.5 -120t-19.5 -94v-8q114 133 248 133q109 0 182.5 -58t73.5 -165q0 -59 -20.5 -113t-59 -97t-98.5 -69t-134 -26 q-143 0 -216.5 80t-73.5 213zM70 -37q0 -91 55 -145t145 -54q100 0 159.5 65t59.5 151q0 76 -53 117.5t-141 41.5q-115 0 -221 -131q-4 -10 -4 -45z" />
<glyph unicode="&#x2087;" horiz-adv-x="735" d="M10 -299l516 741h-467l17 78h573l-14 -63l-522 -756h-103z" />
<glyph unicode="&#x2088;" d="M-41 -98q0 88 74.5 152.5t189.5 76.5q-160 60 -160 176q0 72 44 125t107.5 76.5t135.5 23.5q71 0 135 -20.5t109 -67t45 -110.5q0 -86 -61.5 -146.5t-182.5 -74.5q71 -26 119.5 -76.5t48.5 -118.5q0 -100 -86 -165.5t-217 -65.5q-129 0 -215 57.5t-86 157.5zM51 -92 q0 -64 61.5 -106t143.5 -42q86 0 150.5 46t64.5 116q0 54 -46 98t-122 68q-115 -7 -183.5 -56.5t-68.5 -123.5zM154 303q0 -32 19 -60t47.5 -45.5t53 -28t45.5 -15.5q38 2 75 11.5t73 27.5t58 49.5t22 72.5q0 70 -55 106t-142 36q-81 0 -138.5 -42t-57.5 -112z" />
<glyph unicode="&#x2089;" d="M-25 -209l62 64q25 -41 75.5 -64.5t118.5 -23.5q58 0 110 29.5t86 73.5t59.5 95.5t37 94.5t11.5 71v8q-114 -133 -248 -133q-109 0 -182.5 58t-73.5 165q0 79 35 147.5t108 113.5t170 45q143 0 216 -80t73 -213q0 -145 -51 -271.5t-144.5 -204t-206.5 -77.5 q-83 0 -152 27.5t-104 74.5zM125 242q0 -76 54 -118t143 -42q113 0 219 131q4 10 4 45q0 92 -55 145.5t-146 53.5q-99 0 -159 -65t-60 -150z" />
<glyph unicode="&#x208d;" horiz-adv-x="303" d="M-55 -82q0 400 319 735l45 -24q-134 -189 -204 -366.5t-70 -375.5q0 -162 47 -295l-57 -24q-80 151 -80 350z" />
<glyph unicode="&#x208e;" horiz-adv-x="303" d="M-150 -408q135 187 205 365t70 377q0 162 -45 295l57 24q78 -153 78 -350q0 -402 -317 -735z" />
<glyph unicode="&#x20a1;" horiz-adv-x="1380" d="M143 567q0 181 64.5 337.5t171 261t242.5 164t280 59.5q75 0 158 -17l112 201h89l-125 -223q77 -26 145 -76l166 299h88l-195 -348q62 -62 99 -129l-113 -52q-7 12 -47 70l-573 -1030q18 -2 59 -2q206 0 387 156l82 -70q-99 -96 -223 -144.5t-252 -48.5q-32 0 -111 9 l-104 -189h-86l112 205q-75 16 -153 61l-148 -266h-88l172 309q-100 79 -154.5 197.5t-54.5 265.5zM270 571q0 -226 142 -362l592 1063q-44 10 -111 10q-117 0 -228.5 -50.5t-199.5 -140.5t-141.5 -226t-53.5 -294zM471 160q66 -42 154 -64l598 1075q-63 52 -144 80z" />
<glyph unicode="&#x20a3;" horiz-adv-x="1132" d="M-20 305l16 76h170l217 985h866l-22 -106h-750l-110 -506h733l-25 -107h-733l-59 -266h454l-16 -76h-455l-67 -305h-117l68 305h-170z" />
<glyph unicode="&#x20a4;" horiz-adv-x="1032" d="M2 84q136 54 237.5 148t127.5 198h-344l16 78h336q-5 72 -58 158h-243l18 79h174q-65 106 -65 201q0 83 37.5 163.5t101 141t153.5 98t189 37.5q136 0 250.5 -65t144.5 -166l-108 -49q-20 77 -99.5 127.5t-183.5 50.5q-147 0 -252.5 -94.5t-105.5 -247.5q0 -98 63 -197 h393l-16 -79h-328q47 -78 47 -158h244l-16 -78h-240q-24 -83 -89 -157t-138 -119q56 16 98 16q70 0 176 -45t166 -45q109 0 197 84l33 -96q-116 -97 -234 -97q-62 0 -118.5 15t-93 33.5t-92 33.5t-116.5 15q-96 0 -237 -82z" />
<glyph unicode="&#x20a6;" horiz-adv-x="1478" d="M23 504l18 78h168l49 219h-168l14 76h170l109 489h119l250 -489h495l111 489h117l-109 -489h166l-14 -76h-168l-50 -219h168l-18 -78h-166l-110 -504h-115l-256 504h-494l-110 -504h-117l111 504h-170zM328 582h436l-111 219h-278zM391 877h225l-155 307zM791 801 l110 -219h281l49 219h-440zM942 504l156 -305l67 305h-223z" />
<glyph unicode="&#x20a7;" horiz-adv-x="1277" d="M82 0l203 926h-168l18 82h168l80 358h489q148 0 248.5 -101.5t100.5 -240.5v-16h157l-18 -82h-150q-12 -57 -36.5 -107.5t-66.5 -97t-96.5 -80.5t-130.5 -54t-165 -20h-389l-127 -567h-117zM348 674h379q146 0 238 70t120 182h-682zM422 1008h674v8q0 99 -72.5 171.5 t-179.5 72.5h-367z" />
<glyph unicode="&#x20a8;" horiz-adv-x="2039" d="M59 0l301 1366h469q70 0 136 -23.5t118.5 -66t84.5 -109t32 -145.5q0 -193 -128.5 -319t-338.5 -132l268 -571h-133l-258 565h-309l-125 -565h-117zM326 672h376h5q172 0 269 99t97 245q0 104 -78 174t-178 70h-362zM1114 150l76 73q41 -66 128 -111.5t195 -45.5 q118 0 190.5 60.5t72.5 143.5q0 43 -29 77t-76 58.5t-103 46.5t-112.5 46.5t-103.5 53t-76 72t-29 97.5q0 125 97.5 209t263.5 84q122 0 219 -46.5t141 -115.5l-70 -70q-33 60 -117.5 101t-181.5 41q-110 0 -176.5 -51t-66.5 -128q0 -41 29 -73.5t75.5 -55t103 -44 t113 -46.5t103 -54.5t75.5 -75.5t29 -103q0 -130 -100.5 -224t-272.5 -94q-272 0 -397 175z" />
<glyph unicode="&#x20a9;" horiz-adv-x="1775" d="M49 504l17 78h215l-15 219h-151l16 76h131l-33 489h129l25 -489h393l246 489h106l29 -489h393l242 489h135l-248 -489h125l-14 -76h-150l-110 -219h211l-19 -78h-231l-254 -504h-131l-31 504h-373l-251 -504h-132l-32 504h-238zM387 801l10 -219h232l108 219h-350z M401 504l19 -340l170 340h-189zM741 582h330l-14 219h-207zM889 877h164l-17 297zM1161 801l13 -219h231l108 219h-352zM1178 504l20 -340l168 340h-188z" />
<glyph unicode="&#x20aa;" horiz-adv-x="1658" d="M55 0l248 1126h404q70 0 131.5 -10.5t118 -36t96.5 -64t64 -97t24 -132.5q0 -50 -17 -129l-73 -338h-109l76 343q12 50 12 100q0 132 -85.5 199t-223.5 67h-332l-227 -1028h-107zM459 0l178 805h106l-155 -707h424q151 0 237 82t123 254l152 692h108l-155 -696 q-48 -220 -155 -325t-316 -105h-547z" />
<glyph unicode="&#x20ac;" horiz-adv-x="1413" d="M70 496l18 84h94q0 97 27 208h-74l19 84h79q57 156 167.5 274.5t250.5 180.5t289 62q180 0 319.5 -76t217.5 -217l-113 -52q-68 122 -180 180t-252 58q-177 0 -333.5 -110.5t-233.5 -299.5h694l-21 -84h-702q-27 -111 -27 -208h684l-18 -84h-662q23 -191 154 -302.5 t336 -111.5q206 0 387 156l82 -70q-99 -96 -223 -144.5t-252 -48.5q-251 0 -419.5 142.5t-191.5 378.5h-116z" />
<glyph unicode="&#x2113;" horiz-adv-x="929" d="M90 127q0 -72 54.5 -112t142.5 -40q81 0 141 48l-20 83q-44 -38 -105 -38q-51 0 -76.5 25t-25.5 63q0 27 6 51l88 401l414 242q40 23 56 33t54.5 34.5t57 40t47 42t42 48.5t24.5 50.5t11 56.5q0 100 -95 165.5t-224 65.5q-158 0 -258 -86.5t-135 -242.5l-193 -864 q-6 -34 -6 -66zM322 723l71 326q27 124 104 190t185 66q83 0 148 -44t65 -112q0 -33 -15 -61.5t-50.5 -57t-62.5 -46t-83 -50.5z" />
<glyph unicode="&#x2116;" horiz-adv-x="2260" d="M59 0l301 1366h119l596 -1167l260 1167h117l-301 -1366h-115l-598 1184l-262 -1184h-117zM1622 1006q0 158 106.5 272.5t260.5 114.5q134 0 215.5 -79.5t81.5 -209.5q0 -158 -106.5 -272.5t-260.5 -114.5q-134 0 -215.5 79.5t-81.5 209.5zM1714 1006q0 -94 57 -153.5 t150 -59.5q121 0 197.5 92.5t76.5 218.5q0 94 -57 152.5t-149 58.5q-121 0 -198 -91.5t-77 -217.5z" />
<glyph unicode="&#x2117;" horiz-adv-x="1593" d="M131 684q0 191 94.5 354t257 258t353.5 95q143 0 274 -56t226 -151t151.5 -226t56.5 -274t-56.5 -274t-151.5 -226t-226 -151t-274 -56q-191 0 -353.5 95t-257 258t-94.5 354zM188 684q0 -175 87 -324.5t236.5 -237t324.5 -87.5t325 87.5t238 237t88 324.5t-88 324.5 t-238 237t-325 87.5t-324.5 -87.5t-236.5 -237t-87 -324.5zM516 268l182 830h263q107 0 176 -57.5t69 -151.5q0 -114 -83.5 -187t-209.5 -73h-251l-78 -361h-68zM678 694h248q96 0 154.5 53t58.5 138q0 68 -52 107.5t-137 39.5h-198z" />
<glyph unicode="&#x2120;" horiz-adv-x="974" d="M135 981l45 39q21 -29 60 -48.5t88 -19.5q50 0 78 23t28 59q0 26 -24 45.5t-58 33t-68.5 28.5t-58.5 40t-24 58q0 60 48.5 99.5t123.5 39.5q59 0 107 -20t69 -51l-47 -35q-40 57 -133 57q-44 0 -71.5 -22.5t-27.5 -53.5q0 -25 24.5 -43.5t59 -31t69 -27.5t59 -41 t24.5 -63q0 -65 -47.5 -106.5t-126.5 -41.5q-142 0 -197 82zM553 915l98 451h86l60 -328l202 328h91l-99 -451h-57l82 373l-236 -373h-16l-72 373l-82 -373h-57z" />
<glyph unicode="&#x2122;" horiz-adv-x="929" d="M215 1313l10 53h312l-11 -53h-127l-88 -398h-57l88 398h-127zM512 915l98 451h88l60 -328l203 328h88l-99 -451h-57l82 373l-236 -373h-16l-72 373l-82 -373h-57z" />
<glyph unicode="&#x212e;" horiz-adv-x="1724" d="M102 682q0 146 63.5 279.5t170.5 229.5t255 153t310 57t310 -57t255 -153t170.5 -229.5t63.5 -279.5l-2 -18h-1295q-8 0 -8 -11v-389q0 -31 19 -47q94 -99 221.5 -155t269.5 -56q152 0 284 62.5t228 173.5h117q-111 -130 -277 -204.5t-356 -74.5q-162 0 -310 57t-255 153 t-170.5 229.5t-63.5 279.5zM395 715q0 -13 11 -13h993q8 0 8 13v391q0 28 -21 49q-94 96 -219 149.5t-264 53.5q-141 0 -266.5 -55.5t-220.5 -153.5q-21 -21 -21 -49v-385z" />
<glyph unicode="&#x2153;" horiz-adv-x="1599" d="M86 0l1174 1366h94l-1176 -1366h-92zM180 1163l244 203h82l-180 -819h-95l152 690l-158 -135zM836 133l65 51q38 -59 101.5 -90t142.5 -31q91 0 146 53t55 132q0 60 -59.5 98.5t-153.5 38.5q-44 0 -58 -2l17 78q62 -4 120 -4q92 0 148.5 42t56.5 115q0 64 -58.5 102 t-141.5 38q-121 0 -224 -90l-41 59q51 46 123 77t146 31q122 0 205 -52.5t83 -151.5q0 -92 -64 -149.5t-163 -65.5q63 -11 110.5 -59.5t47.5 -116.5q0 -97 -81 -173.5t-212 -76.5q-107 0 -188.5 38.5t-122.5 108.5z" />
<glyph unicode="&#x2154;" horiz-adv-x="1839" d="M117 547l18 80q92 56 142 87t123.5 78.5t113.5 78t87.5 72t71 74t40 69.5t16.5 73q0 69 -55 105t-131 36q-145 0 -232 -96l-45 62q106 112 277 112q51 0 98.5 -12t89.5 -36t67 -67t25 -100q0 -42 -16.5 -84t-41.5 -79t-70 -79t-85.5 -74t-105 -75.5t-111 -72.5 t-121.5 -74h437l-17 -78h-575zM326 0l1173 1366h94l-1175 -1366h-92zM1075 133l66 51q77 -121 243 -121q91 0 146 53t55 132q0 60 -59.5 98.5t-153.5 38.5q-43 0 -57 -2l16 78q62 -4 121 -4q92 0 148.5 42t56.5 115q0 64 -59 102t-142 38q-120 0 -223 -90l-41 59 q51 46 122.5 77t145.5 31q123 0 206 -52.5t83 -151.5q0 -92 -64 -149.5t-163 -65.5q63 -11 110 -59.5t47 -116.5q0 -97 -81 -173.5t-212 -76.5q-107 0 -188.5 38.5t-122.5 108.5z" />
<glyph unicode="&#x215b;" horiz-adv-x="1599" d="M86 0l1174 1366h94l-1176 -1366h-92zM180 1163l244 203h82l-180 -819h-95l152 690l-158 -135zM838 201q0 88 74.5 152.5t189.5 76.5q-160 60 -160 176q0 72 44 125t107.5 76.5t135.5 23.5q71 0 135 -20.5t109 -67t45 -110.5q0 -86 -61.5 -146.5t-182.5 -74.5 q71 -26 119.5 -76.5t48.5 -118.5q0 -100 -86 -165.5t-217 -65.5q-129 0 -215 57.5t-86 157.5zM930 207q0 -64 61.5 -106t143.5 -42q86 0 150.5 46t64.5 116q0 54 -46 98t-122 68q-115 -7 -183.5 -56.5t-68.5 -123.5zM1032 602q0 -42 34 -77t68 -50t64 -22q38 2 75 11.5 t72.5 27.5t57.5 49.5t22 72.5q0 70 -54.5 106t-141.5 36q-81 0 -139 -42t-58 -112z" />
<glyph unicode="&#x215c;" horiz-adv-x="1839" d="M143 680l66 51q38 -59 101.5 -90t142.5 -31q91 0 145.5 53t54.5 132q0 60 -59.5 98.5t-153.5 38.5q-43 0 -57 -2l16 78q62 -4 121 -4q92 0 148.5 42t56.5 115q0 64 -59 101.5t-142 37.5q-120 0 -223 -90l-41 60q51 46 122.5 77t145.5 31q123 0 206 -52.5t83 -151.5 q0 -92 -64 -150t-163 -66q63 -11 110.5 -59.5t47.5 -116.5q0 -97 -81 -173.5t-212 -76.5q-107 0 -189 39t-123 109zM326 0l1173 1366h94l-1175 -1366h-92zM1077 201q0 88 74.5 152.5t189.5 76.5q-159 60 -159 176q0 72 44 125t107 76.5t135 23.5q71 0 135 -20.5t109 -67 t45 -110.5q0 -86 -61.5 -146.5t-182.5 -74.5q71 -26 119.5 -76.5t48.5 -118.5q0 -100 -86 -165.5t-217 -65.5q-129 0 -215 57.5t-86 157.5zM1169 207q0 -64 61.5 -106t143.5 -42q86 0 150.5 46t64.5 116q0 54 -46 98t-122 68q-115 -7 -183.5 -56.5t-68.5 -123.5zM1272 602 q0 -42 34 -77t68 -50t64 -22q38 2 75 11.5t72.5 27.5t57.5 49.5t22 72.5q0 70 -55 106t-142 36q-81 0 -138.5 -42t-57.5 -112z" />
<glyph unicode="&#x215d;" horiz-adv-x="1835" d="M145 682l68 51q73 -123 227 -123q98 0 161 61t63 154q0 78 -55 120t-136 42q-106 0 -192 -80l-64 29l96 430h508l-16 -78h-416l-65 -297q80 70 184 70q102 0 176 -61t74 -162q0 -131 -91 -218.5t-227 -87.5q-105 0 -182 40.5t-113 109.5zM324 0l1173 1366h94l-1175 -1366 h-92zM1073 201q0 88 74.5 152.5t189.5 76.5q-159 60 -159 176q0 72 44 125t107 76.5t135 23.5q71 0 135 -20.5t109 -67t45 -110.5q0 -86 -61.5 -146.5t-182.5 -74.5q71 -26 119.5 -76.5t48.5 -118.5q0 -100 -86 -165.5t-217 -65.5q-129 0 -215 57.5t-86 157.5zM1165 207 q0 -64 61.5 -106t143.5 -42q86 0 150.5 46t64.5 116q0 54 -46 98t-122 68q-115 -7 -183.5 -56.5t-68.5 -123.5zM1268 602q0 -42 34 -77t68 -50t64 -22q38 2 75 11.5t72.5 27.5t57.5 49.5t22 72.5q0 70 -55 106t-142 36q-81 0 -138.5 -42t-57.5 -112z" />
<glyph unicode="&#x215e;" horiz-adv-x="1660" d="M150 0l1173 1366h94l-1175 -1366h-92zM197 547l516 741h-467l16 78h574l-15 -63l-522 -756h-102zM899 201q0 88 74.5 152.5t189.5 76.5q-159 60 -159 176q0 72 44 125t107 76.5t135 23.5q71 0 135 -20.5t109 -67t45 -110.5q0 -86 -61.5 -146.5t-182.5 -74.5 q71 -26 119.5 -76.5t48.5 -118.5q0 -100 -86 -165.5t-217 -65.5q-129 0 -215 57.5t-86 157.5zM991 207q0 -64 61.5 -106t143.5 -42q86 0 150.5 46t64.5 116q0 54 -46 98t-122 68q-115 -7 -183.5 -56.5t-68.5 -123.5zM1094 602q0 -42 34 -77t68 -50t64 -22q38 2 75 11.5 t72.5 27.5t57.5 49.5t22 72.5q0 70 -55 106t-142 36q-81 0 -138.5 -42t-57.5 -112z" />
<glyph unicode="&#x2190;" horiz-adv-x="1191" d="M41 586l575 418l-24 -265h551v-307h-551l24 -266z" />
<glyph unicode="&#x2191;" horiz-adv-x="1191" d="M217 561l420 576l418 -576l-264 25v-551h-308v551z" />
<glyph unicode="&#x2192;" horiz-adv-x="1191" d="M137 432v307h549l-24 265l575 -418l-575 -420l24 266h-549z" />
<glyph unicode="&#x2193;" horiz-adv-x="1191" d="M219 610l264 -24v551h308v-551l266 24l-420 -575z" />
<glyph unicode="&#x2202;" horiz-adv-x="1169" d="M92 395q0 123 41.5 234.5t111.5 192t166 128t201 47.5t199.5 -52.5t144.5 -162.5q-117 311 -450 557l80 82q223 -162 355 -373t132 -432q0 -176 -68.5 -322.5t-192.5 -232.5t-277 -86q-195 0 -319 119.5t-124 300.5zM209 410q0 -150 87.5 -244t240.5 -94 q112 0 207.5 67.5t151.5 183t56 250.5q0 60 -19.5 116.5t-57.5 105t-103 77.5t-149 29q-169 0 -291.5 -142t-122.5 -349z" />
<glyph unicode="&#x220f;" horiz-adv-x="1378" d="M147 -184l320 1444h-227l22 106h1235l-22 -106h-228l-319 -1444h-119l319 1444h-542l-320 -1444h-119z" />
<glyph unicode="&#x2211;" horiz-adv-x="1169" d="M-33 -184h932l23 106h-783l643 678l-358 660h795l22 106h-930l-22 -106l352 -650l-651 -688z" />
<glyph unicode="&#x2212;" horiz-adv-x="1015" d="M90 641l19 86h899l-21 -86h-897z" />
<glyph unicode="&#x221a;" horiz-adv-x="1523" d="M178 635l449 166l131 -686l788 1251h96l-860 -1366h-94l-131 692l-367 -137z" />
<glyph unicode="&#x221e;" horiz-adv-x="1314" d="M94 627q0 156 97 271.5t247 115.5q103 0 177.5 -65t101.5 -171q141 236 313 236q125 0 196.5 -73t71.5 -196q0 -101 -42 -189t-122.5 -143t-181.5 -55q-102 0 -175.5 65t-100.5 169q-142 -234 -314 -234q-125 0 -196.5 73t-71.5 196zM182 633q0 -83 52 -136t137 -53 q88 0 156 66.5t130 181.5q-17 114 -74.5 175t-148.5 61q-113 0 -182.5 -85.5t-69.5 -209.5zM737 682q17 -115 74 -176.5t147 -61.5q112 0 182 86.5t70 210.5q0 83 -51.5 135t-136.5 52q-46 0 -87.5 -19.5t-77 -57t-62.5 -76t-58 -93.5z" />
<glyph unicode="&#x222b;" horiz-adv-x="690" d="M-121 -205l19 88h127q66 0 111 44t63 122l282 1270q27 126 101 190t184 64h127l-21 -88h-127q-66 0 -111 -44t-63 -122l-282 -1270q-29 -126 -102 -190t-183 -64h-125z" />
<glyph unicode="&#x2248;" horiz-adv-x="1015" d="M45 442l23 97q81 -72 208 -72q66 0 126.5 20t101 43.5t106 43.5t140.5 20q129 0 215 -59l-23 -97q-82 70 -211 70q-66 0 -126.5 -19.5t-101 -43t-105.5 -43t-140 -19.5q-127 0 -213 59zM133 834l21 96q85 -70 208 -70q66 0 126.5 19.5t101.5 43t107 43t141 19.5 q125 0 213 -57l-21 -99q-84 72 -211 72q-66 0 -126.5 -19.5t-101 -43t-106.5 -43t-141 -19.5q-129 0 -211 58z" />
<glyph unicode="&#x2260;" horiz-adv-x="1015" d="M45 442l21 84h296l273 316h-500l19 86h555l213 248h100l-213 -248h242l-19 -86h-297l-272 -316h500l-19 -84h-553l-217 -252h-98l215 252h-246z" />
<glyph unicode="&#x2264;" horiz-adv-x="1015" d="M-51 0l18 84h897l-18 -84h-897zM92 655l19 78l999 465l-25 -106l-878 -404l700 -399l-20 -94z" />
<glyph unicode="&#x2265;" horiz-adv-x="1015" d="M-53 0l18 84h897l-16 -84h-899zM-10 195l24 104l881 399l-702 404l20 96l795 -465l-17 -78z" />
<glyph unicode="&#x22b2;" horiz-adv-x="1202" d="M152 -47v1266l1095 -633z" />
<glyph unicode="&#x22b3;" horiz-adv-x="1202" d="M41 586l1096 633v-1266z" />
<glyph unicode="&#x2318;" horiz-adv-x="1366" d="M37 285q0 100 77.5 179t178.5 79h186l64 280h-135q-93 0 -149 59.5t-56 155.5q0 98 79.5 170t180.5 72q86 0 143.5 -57.5t57.5 -143.5q0 -24 -7 -59l-28 -129h280l39 178q22 94 92.5 152.5t163.5 58.5q85 0 145 -57.5t60 -141.5q0 -101 -77.5 -179.5t-178.5 -78.5h-186 l-64 -280h129q95 0 153 -59.5t58 -155.5q0 -98 -80 -170t-182 -72q-86 0 -143.5 57.5t-57.5 143.5q0 29 6 59l31 129h-280l-41 -178q-22 -94 -92.5 -152.5t-163.5 -58.5q-85 0 -144 57.5t-59 141.5zM111 293q0 -59 38.5 -99t96.5 -40q73 0 121 42.5t63 116.5l35 162h-176 q-73 0 -125.5 -54t-52.5 -128zM272 1036q0 -65 41.5 -105t108.5 -40h133l33 141q4 16 4 43q0 63 -39 100t-102 37q-73 0 -126 -51.5t-53 -124.5zM551 543h280l64 280h-281zM854 291q0 -63 39 -100t102 -37q73 0 126 51.5t53 124.5q0 65 -41.5 105t-108.5 40h-135l-31 -141 q-4 -16 -4 -43zM981 891h176q73 0 125.5 54.5t52.5 127.5q0 59 -38.5 99t-96.5 40q-72 0 -119 -42t-65 -117z" />
<glyph unicode="&#x25a0;" horiz-adv-x="1353" d="M137 0v1171h1170v-1171h-1170z" />
<glyph unicode="&#x25b2;" horiz-adv-x="1261" d="M37 61l633 1096l635 -1098z" />
<glyph unicode="&#x25bc;" horiz-adv-x="1261" d="M37 1044h1268l-635 -1095z" />
<glyph unicode="&#x25ca;" horiz-adv-x="768" d="M80 684l473 682h43l174 -682l-475 -684h-43zM156 676l135 -584l403 600l-137 582z" />
<glyph unicode="&#x25cf;" horiz-adv-x="1423" d="M143 584q0 165 81.5 305t222 221.5t305.5 81.5t305 -81.5t221.5 -221.5t81.5 -305t-81.5 -305.5t-221.5 -222t-305 -81.5q-124 0 -236.5 48.5t-194 130t-130 194t-48.5 236.5z" />
<glyph unicode="&#x25fc;" horiz-adv-x="993" d="M0 0v993h993v-993h-993z" />
<glyph unicode="&#x2605;" horiz-adv-x="1554" d="M41 862h594l182 565l184 -565h594l-481 -350l184 -563l-481 348l-479 -348l182 563z" />
<glyph unicode="&#x2610;" horiz-adv-x="1353" d="M133 0v1171h1170v-1171h-1170zM223 84h989v1003h-989v-1003z" />
<glyph unicode="&#x2611;" horiz-adv-x="1353" d="M174 0v1171h1043l165 308l74 -49l-141 -259h28v-1171h-1169zM264 84h989v971l-471 -869l-413 504l67 64l334 -412l401 745h-907v-1003z" />
<glyph unicode="&#x2666;" horiz-adv-x="1026" d="M41 584l512 514l514 -514l-514 -512z" />
<glyph unicode="&#x2713;" horiz-adv-x="1087" d="M41 690l68 64l333 -412l613 1137l73 -49l-673 -1244z" />
<glyph unicode="&#xf628;" horiz-adv-x="1775" d="M47 0l1032 1126h95l-1035 -1126h-92zM129 831q0 128 87 224t214 96q108 0 175 -66t67 -174q0 -128 -86.5 -222.5t-214.5 -94.5q-109 0 -175.5 64.5t-66.5 172.5zM213 834q0 -72 43 -121t117 -49q90 0 151.5 73.5t61.5 169.5q0 74 -42 124t-116 50q-90 0 -152.5 -74.5 t-62.5 -172.5zM547 215q0 128 87 224t214 96q108 0 175 -66t67 -176q0 -128 -87 -223t-215 -95q-108 0 -174.5 65.5t-66.5 174.5zM631 217q0 -72 43 -121t117 -49q90 0 151.5 73.5t61.5 170.5q0 73 -41.5 122.5t-116.5 49.5q-90 0 -152.5 -74.5t-62.5 -171.5zM1130 215 q0 128 86.5 224t213.5 96q108 0 174.5 -66t66.5 -176q0 -128 -86.5 -223t-214.5 -95q-108 0 -174 65t-66 175zM1214 217q0 -72 42.5 -121t117.5 -49q89 0 151 74t62 170q0 73 -42.5 122.5t-117.5 49.5q-90 0 -151.5 -74.5t-61.5 -171.5z" />
<glyph unicode="&#xf638;" horiz-adv-x="1236" d="M35 0l158 190q-64 125 -64 310q0 120 27 244.5t81.5 239t128.5 204.5t176.5 144t217.5 54q203 0 313 -135l96 115h111l-158 -190q64 -125 64 -312q0 -120 -26.5 -244.5t-80.5 -240t-127 -206t-175 -144.5t-216 -54q-204 0 -319 140l-97 -115h-110zM252 492 q0 -112 27 -197l716 862q-79 123 -247 123q-89 0 -169 -49t-138.5 -130t-102 -183.5t-65 -212.5t-21.5 -213zM317 209q81 -127 252 -127q110 0 206 75t158 192t97 255t35 268q0 106 -29 201z" />
<glyph unicode="&#xf639;" horiz-adv-x="1204" d="M113 500q0 120 27 244.5t81 239t128 204.5t176.5 144t217.5 54q209 0 317.5 -139.5t108.5 -382.5q0 -100 -19 -204t-54.5 -203t-90.5 -186.5t-122.5 -153.5t-154.5 -104t-183 -38q-209 0 -320.5 141.5t-111.5 383.5zM236 492q0 -89 17.5 -162t54.5 -129.5t99.5 -87.5 t145.5 -31q110 0 206 75t158 192t97 255t35 268q0 89 -18 161.5t-55 128.5t-99 87t-146 31q-89 0 -169 -49t-138.5 -130t-101.5 -183.5t-64.5 -212.5t-21.5 -213z" />
<glyph unicode="&#xf63a;" horiz-adv-x="1204" d="M31 0l28 123q137 87 225 144.5t201.5 136t184.5 136t147.5 128t119 128.5t70 122t27.5 124q0 111 -87 174.5t-228 63.5q-217 0 -354 -137l-64 82q73 73 186 117t236 44q86 0 162.5 -20.5t138.5 -61t98.5 -107t36.5 -150.5q0 -69 -27.5 -140.5t-71.5 -136t-116.5 -137 t-144.5 -133t-174.5 -134t-187.5 -130t-201 -130.5h718l-22 -106h-901z" />
<glyph unicode="&#xf63b;" horiz-adv-x="1204" d="M74 260l94 62q45 -110 153.5 -175t241.5 -65q164 0 262.5 92t98.5 236q0 108 -89.5 174.5t-236.5 66.5q-71 0 -117 -4l27 111q18 -2 182 -2q94 0 172.5 30t130 95t51.5 155q0 104 -91 174t-240 70q-198 0 -351 -143l-57 82q76 78 187 122.5t227 44.5q197 0 320.5 -89.5 t123.5 -249.5q0 -78 -33 -144.5t-87 -110t-118.5 -69.5t-131.5 -31q106 -25 176.5 -101t70.5 -188q0 -86 -34.5 -164t-95.5 -136.5t-151 -93t-194 -34.5q-168 0 -306 79.5t-185 205.5z" />
<glyph unicode="&#xf63c;" horiz-adv-x="1204" d="M88 373l27 112l790 881h166l-197 -887h201l-22 -106h-201l-82 -373h-117l82 373h-647zM231 479h527l170 770z" />
<glyph unicode="&#xf63d;" horiz-adv-x="1204" d="M92 252l94 67q104 -237 385 -237q155 0 266 108t111 265q0 137 -92 213.5t-238 76.5q-158 0 -299 -102l-77 45l149 678h789l-23 -106h-672l-112 -506q51 40 128.5 67t164.5 27q109 0 199.5 -42t148 -131t57.5 -210q0 -131 -64 -242.5t-182 -179.5t-264 -68 q-340 0 -469 277z" />
<glyph unicode="&#xf63e;" horiz-adv-x="1204" d="M137 467q0 93 16.5 193.5t49.5 204.5t87.5 197t123.5 165.5t164.5 115.5t205.5 43q138 0 239.5 -55.5t154.5 -156.5l-88 -76q-38 87 -119 134.5t-193 47.5q-85 0 -159 -35.5t-126.5 -92.5t-96 -136t-70.5 -157.5t-47 -166.5q-5 -15 -11 -39q64 73 178 132t232 59 q182 0 294.5 -95.5t112.5 -259.5q0 -135 -65.5 -253t-183.5 -189.5t-261 -71.5q-211 0 -324.5 128t-113.5 364zM250 436q0 -160 86.5 -257t243.5 -97q108 0 197 55.5t137.5 145t48.5 190.5q0 124 -88 196t-234 72q-212 0 -387 -196q-4 -36 -4 -109z" />
<glyph unicode="&#xf63f;" horiz-adv-x="1204" d="M225 0l848 1260h-749l22 106h895l-18 -82l-863 -1284h-135z" />
<glyph unicode="&#xf640;" horiz-adv-x="1204" d="M92 317q0 156 117.5 261.5t310.5 140.5q-103 39 -176.5 114.5t-73.5 178.5q0 74 27.5 137t73 106t105.5 73t124.5 44t130.5 14q117 0 216 -38t161.5 -114t62.5 -177q0 -149 -110.5 -244t-290.5 -121q47 -20 90 -47t85.5 -67t67.5 -95t25 -118q0 -110 -64.5 -200 t-173.5 -140t-239 -50q-134 0 -239 38.5t-167.5 117t-62.5 186.5zM217 338q0 -121 99.5 -188.5t246.5 -67.5q89 0 169.5 33.5t134 101.5t53.5 156q0 53 -27.5 102t-71.5 83.5t-91.5 58.5t-94.5 36q-182 -12 -300 -98.5t-118 -216.5zM389 1006q0 -61 44.5 -116t103.5 -88 t120 -48q175 14 282.5 89t107.5 201q0 99 -93.5 166.5t-226.5 67.5q-139 0 -238.5 -73.5t-99.5 -198.5z" />
<glyph unicode="&#xf641;" horiz-adv-x="1204" d="M106 190l87 76q39 -87 119.5 -134.5t193.5 -47.5q85 0 158.5 35.5t126 92.5t96.5 136t71.5 157.5t47.5 166.5q8 36 8 39q-64 -73 -178 -132t-232 -59q-183 0 -295 95t-112 259q0 135 66 253t184 190t260 72q211 0 324.5 -128t113.5 -364q0 -79 -11.5 -164.5t-37 -175.5 t-62 -173.5t-90 -158t-118 -129.5t-149 -87t-179.5 -32q-137 0 -238 56t-154 157zM319 891q0 -124 88 -196t234 -72q107 0 207 52t180 144q4 36 4 109q0 160 -85.5 257t-244.5 97q-162 0 -272.5 -117.5t-110.5 -273.5z" />
<glyph unicode="&#xf642;" horiz-adv-x="1191" d="M47 0l1032 1126h95l-1035 -1126h-92zM129 831q0 128 87 224t214 96q108 0 175 -66t67 -174q0 -128 -86.5 -222.5t-214.5 -94.5q-109 0 -175.5 64.5t-66.5 172.5zM213 834q0 -72 43 -121t117 -49q90 0 151.5 73.5t61.5 169.5q0 74 -42 124t-116 50q-90 0 -152.5 -74.5 t-62.5 -172.5zM547 215q0 128 87 224t214 96q108 0 175 -66t67 -176q0 -128 -87 -223t-215 -95q-108 0 -174.5 65.5t-66.5 174.5zM631 217q0 -72 43 -121t117 -49q90 0 151.5 73.5t61.5 170.5q0 73 -41.5 122.5t-116.5 49.5q-90 0 -152.5 -74.5t-62.5 -171.5z" />
<glyph unicode="&#xf643;" horiz-adv-x="1204" d="M94 455q0 85 22.5 178.5t70.5 186t114 166t162.5 119.5t206.5 46q227 0 346 -128t119 -351q0 -85 -22.5 -178.5t-70.5 -186t-114 -166.5t-161.5 -120t-205.5 -46q-228 0 -347.5 128t-119.5 352zM217 461q0 -183 86.5 -281t257.5 -98q89 0 165 40t127.5 102.5t88.5 141 t53.5 155.5t16.5 145q0 183 -86 280.5t-258 97.5q-74 0 -140 -28t-114 -75t-86.5 -106.5t-62 -125t-36 -129t-12.5 -119.5z" />
<glyph unicode="&#xf644;" horiz-adv-x="1204" d="M422 809l371 317h106l-248 -1126h-116l210 967l-268 -234z" />
<glyph unicode="&#xf645;" horiz-adv-x="1204" d="M55 0l21 102q170 67 304 130t249 132t191 136.5t118.5 142t42.5 150.5q0 112 -87 181.5t-220 69.5q-224 0 -389 -159l-62 80q186 186 459 186q182 0 302 -91t120 -251q0 -88 -44 -174t-117.5 -158t-178 -141t-214.5 -124t-239 -106h617l-23 -106h-850z" />
<glyph unicode="&#xf646;" horiz-adv-x="1204" d="M20 2l95 61q45 -109 153.5 -174t241.5 -65q164 0 262 92t98 236q0 108 -89 174.5t-236 66.5q-71 0 -117 -4l27 111q18 -2 182 -2q94 0 172.5 30t130 95t51.5 155q0 104 -91.5 174t-240.5 70q-197 0 -350 -143l-57 82q76 78 187 122.5t227 44.5q196 0 320 -90t124 -250 q0 -78 -33 -144.5t-87.5 -110t-119 -69t-131.5 -30.5q106 -25 177 -101t71 -188q0 -86 -34.5 -164t-95.5 -136.5t-151 -93t-194 -34.5q-168 0 -306.5 80t-185.5 205z" />
<glyph unicode="&#xf647;" horiz-adv-x="1204" d="M35 135l24 107l801 884h158l-195 -884h199l-23 -107h-198l-84 -375h-117l82 375h-647zM178 242h527l169 768z" />
<glyph unicode="&#xf648;" horiz-adv-x="1204" d="M39 12l94 68q104 -238 385 -238q155 0 266 108t111 265q0 137 -92 214t-238 77q-157 0 -299 -103l-78 46l150 677h788l-22 -106h-672l-113 -506q51 40 128.5 67t164.5 27q109 0 199.5 -42t148.5 -131t58 -210q0 -98 -38 -187t-104 -156t-162 -106.5t-206 -39.5 q-340 0 -469 276z" />
<glyph unicode="&#xf649;" horiz-adv-x="1204" d="M137 467q0 93 16.5 193.5t49.5 204.5t87.5 197t123.5 165.5t164.5 115.5t205.5 43q138 0 239.5 -55.5t154.5 -156.5l-88 -76q-38 87 -119 134.5t-193 47.5q-85 0 -159 -35.5t-126.5 -92.5t-96 -136t-70.5 -157.5t-47 -166.5q-5 -15 -11 -39q64 73 178 132t232 59 q182 0 294.5 -95.5t112.5 -259.5q0 -135 -65.5 -253t-183.5 -189.5t-261 -71.5q-211 0 -324.5 128t-113.5 364zM250 436q0 -160 86.5 -257t243.5 -97q108 0 197 55.5t137.5 145t48.5 190.5q0 124 -88 196t-234 72q-212 0 -387 -196q-4 -36 -4 -109z" />
<glyph unicode="&#xf64a;" horiz-adv-x="1204" d="M172 -240l848 1260h-750l23 106h895l-19 -82l-862 -1284h-135z" />
<glyph unicode="&#xf64b;" horiz-adv-x="1204" d="M92 317q0 156 117.5 261.5t310.5 140.5q-103 39 -176.5 114.5t-73.5 178.5q0 74 27.5 137t73 106t105.5 73t124.5 44t130.5 14q117 0 216 -38t161.5 -114t62.5 -177q0 -149 -110.5 -244t-290.5 -121q47 -20 90 -47t85.5 -67t67.5 -95t25 -118q0 -110 -64.5 -200 t-173.5 -140t-239 -50q-134 0 -239 38.5t-167.5 117t-62.5 186.5zM217 338q0 -121 99.5 -188.5t246.5 -67.5q89 0 169.5 33.5t134 101.5t53.5 156q0 53 -27.5 102t-71.5 83.5t-91.5 58.5t-94.5 36q-182 -12 -300 -98.5t-118 -216.5zM389 1006q0 -61 44.5 -116t103.5 -88 t120 -48q175 14 282.5 89t107.5 201q0 99 -93.5 166.5t-226.5 67.5q-139 0 -238.5 -73.5t-99.5 -198.5z" />
<glyph unicode="&#xf64c;" horiz-adv-x="1204" d="M53 -49l86 76q39 -87 120 -135t194 -48q85 0 158.5 35.5t126 92.5t96 136.5t71 157.5t47.5 166q2 7 4 16t3.5 14t1.5 9q-64 -73 -177.5 -131.5t-232.5 -58.5q-183 0 -295.5 95.5t-112.5 258.5q0 135 66 253t184 189.5t260 71.5q212 0 325.5 -128t113.5 -364 q0 -93 -16.5 -193.5t-49.5 -204.5t-87 -196.5t-123.5 -165.5t-165.5 -116t-206 -43q-137 0 -237.5 56t-153.5 157zM266 651q0 -124 88 -196t234 -72q107 0 206.5 52.5t180.5 144.5q4 36 4 108q0 160 -85.5 257t-244.5 97q-162 0 -272.5 -117.5t-110.5 -273.5z" />
<glyph unicode="&#xf64d;" horiz-adv-x="1189" d="M111 485q0 133 54 256.5t143.5 213t212 143t253.5 53.5q42 0 82 -6l47 82h74l-53 -97q65 -19 114 -47l80 144h78l-100 -180q65 -50 114 -125l-96 -50q-25 42 -72 80l-483 -868q44 -8 103 -8q206 0 348 145l77 -63q-189 -183 -428 -183q-70 0 -153 17l-55 -101h-74l65 119 q-56 19 -112 53l-97 -172h-75l118 213q-165 140 -165 381zM227 492q0 -172 107 -285l469 842q-10 2 -31 2q-105 0 -204.5 -43.5t-174.5 -117.5t-120.5 -178.5t-45.5 -219.5zM383 162q51 -38 111 -60l493 889q-58 33 -115 47z" />
<glyph unicode="&#xf64e;" horiz-adv-x="1249" d="M49 397l14 76h107v12q0 90 20 166h-86l17 78h96q76 186 246 304t371 118q139 0 256 -62t180 -167l-96 -50q-51 81 -144.5 130t-198.5 49q-155 0 -289 -88.5t-202 -233.5h561l-18 -78h-574q-22 -80 -22 -159v-19h557l-17 -76h-532q31 -147 147 -234t279 -87q206 0 348 145 l78 -63q-189 -183 -428 -183q-218 0 -366 114t-177 308h-127z" />
<glyph unicode="&#xf64f;" horiz-adv-x="724" d="M-57 -244l155 697h-110v84h127l69 307q33 152 103 228.5t186 76.5q97 0 162 -62l-57 -83q-28 38 -93 38q-75 0 -117.5 -54.5t-64.5 -153.5l-67 -297h239v-84h-258l-156 -697h-118z" />
<glyph unicode="&#xf650;" horiz-adv-x="999" d="M8 0l182 332h-180l43 80h185l172 311h-185l39 76h187l184 327h92l-184 -327h194l187 327h92l-187 -327h187l-39 -76h-189l-172 -311h191l-43 -80h-193l-184 -332h-92l184 332h-196l-183 -332h-92zM328 412h196l170 311h-192z" />
<glyph unicode="&#xf651;" horiz-adv-x="849" d="M-23 72q132 51 212.5 135.5t80.5 171.5q0 31 -14 78h-238l19 80h182q-25 48 -37.5 74t-25.5 72t-13 89q0 159 112.5 268t274.5 109q113 0 209 -57t127 -152l-96 -39q-21 78 -87 120t-148 42q-116 0 -198.5 -77.5t-82.5 -194.5q0 -35 9.5 -74t17 -58t30 -66.5t25.5 -55.5 h274l-18 -80h-225q8 -31 8 -66q0 -73 -53 -149.5t-117 -112.5q21 6 47 6q62 0 154 -31.5t135 -31.5q90 0 155 65l37 -82q-84 -80 -203 -80q-77 0 -173.5 36t-168.5 36q-74 0 -188 -65z" />
<glyph unicode="&#xf652;" horiz-adv-x="1103" d="M-12 238l16 77h455l37 164h-455l18 80h396l-293 567h131l276 -544l510 544h138l-537 -567h387l-18 -80h-443l-37 -164h443l-17 -77h-442l-51 -238h-113l51 238h-452z" />
<glyph unicode="&#xf654;" horiz-adv-x="1189" d="M111 485q0 133 54 256.5t143.5 213t212 143t253.5 53.5h27l24 113h90l-28 -125q105 -22 188.5 -78t134.5 -139l-96 -50q-39 62 -104.5 105.5t-145.5 62.5l-213 -964h11q206 0 348 145l77 -63q-189 -183 -428 -183h-30l-39 -172h-88l39 183q-195 31 -312.5 164.5 t-117.5 334.5zM227 492q0 -160 92 -269t244 -139l215 967h-6q-105 0 -204.5 -43.5t-174.5 -117.5t-120.5 -178.5t-45.5 -219.5z" />
<glyph unicode="&#xf655;" d="M37 303q0 57 12 123.5t42 139t73 131t112 96.5t152 38q135 0 207 -86t72 -231q0 -57 -12.5 -123.5t-42.5 -139t-73 -131t-112 -96.5t-152 -38q-134 0 -206 86.5t-72 230.5zM131 301q0 -238 186 -238q64 0 116 32t84.5 81.5t54.5 112t31 119.5t9 108q0 238 -186 238 q-64 0 -116 -32t-84.5 -81.5t-54.5 -112t-31 -119.5t-9 -108z" />
<glyph unicode="&#xf656;" horiz-adv-x="438" d="M59 616l244 203h82l-180 -819h-94l151 690l-158 -135z" />
<glyph unicode="&#xf657;" d="M-4 0l18 80q92 56 142 87t123.5 78.5t113.5 78t87.5 72t71 74t40 69.5t16.5 73q0 69 -55 105.5t-131 36.5q-145 0 -232 -97l-45 62q106 112 277 112q51 0 98.5 -12t89.5 -36t67 -67t25 -100q0 -42 -16.5 -84t-41.5 -79t-70 -79t-85 -74t-104.5 -75.5t-111.5 -72.5 t-121 -74h436l-17 -78h-575z" />
<glyph unicode="&#xf658;" d="M23 133l65 51q38 -59 101.5 -90t142.5 -31q91 0 145.5 53t54.5 132q0 60 -59.5 98.5t-153.5 38.5q-43 0 -57 -2l17 78q62 -4 120 -4q92 0 148.5 42t56.5 115q0 64 -59 102t-142 38q-120 0 -223 -90l-41 59q51 46 123 77t146 31q122 0 205 -52.5t83 -151.5 q0 -92 -64 -149.5t-163 -65.5q63 -11 110.5 -59.5t47.5 -116.5q0 -97 -81 -173.5t-212 -76.5q-107 0 -188.5 38.5t-122.5 108.5z" />
<glyph unicode="&#xf659;" d="M25 219l16 72l483 528h125l-117 -524h123l-14 -76h-123l-49 -219h-90l47 219h-401zM137 295h305l97 432z" />
<glyph unicode="&#xf65a;" d="M25 135l67 51q73 -123 227 -123q98 0 161 61.5t63 154.5q0 78 -54.5 119.5t-136.5 41.5q-106 0 -192 -80l-64 29l97 430h507l-16 -78h-416l-65 -297q80 70 184 70q102 0 176 -61t74 -162q0 -131 -91 -218t-227 -87q-105 0 -181.5 40t-112.5 109z" />
<glyph unicode="&#xf65b;" d="M47 279q0 145 51 271t144.5 203.5t208.5 77.5q82 0 151 -27.5t103 -74.5l-60 -63q-25 41 -76 64.5t-120 23.5q-58 0 -110 -29.5t-86 -74t-59.5 -96t-37 -94.5t-11.5 -71v-8q114 133 248 133q109 0 182.5 -58t73.5 -165q0 -79 -34.5 -147.5t-107 -113t-169.5 -44.5 q-143 0 -217 80t-74 213zM135 262q0 -91 55.5 -145t145.5 -54q100 0 159.5 65t59.5 151q0 76 -53 117.5t-142 41.5q-115 0 -221 -131q-4 -10 -4 -45z" />
<glyph unicode="&#xf65c;" horiz-adv-x="735" d="M76 0l516 741h-467l16 78h574l-15 -63l-522 -756h-102z" />
<glyph unicode="&#xf65d;" d="M25 201q0 88 74.5 152.5t189.5 76.5q-160 60 -160 176q0 72 44 125t107.5 76.5t135.5 23.5q71 0 135 -20.5t109 -67t45 -110.5q0 -86 -61.5 -146.5t-182.5 -74.5q71 -26 119.5 -76.5t48.5 -118.5q0 -100 -86 -165.5t-217 -65.5q-129 0 -215 57.5t-86 157.5zM117 207 q0 -64 61.5 -106t143.5 -42q86 0 150.5 46t64.5 116q0 54 -46 98t-122 68q-115 -7 -183.5 -56.5t-68.5 -123.5zM219 602q0 -42 34 -77t68 -50t64 -22q38 2 75 11.5t72.5 27.5t57.5 49.5t22 72.5q0 70 -54.5 106t-141.5 36q-81 0 -139 -42t-58 -112z" />
<glyph unicode="&#xf65e;" d="M41 90l61 64q25 -41 76 -64.5t119 -23.5q58 0 109.5 29.5t86 73.5t59.5 95.5t36.5 94.5t11.5 71v8q-114 -133 -248 -133q-109 0 -182.5 58t-73.5 165q0 79 35 147.5t108.5 113.5t170.5 45q142 0 215 -80t73 -213q0 -145 -51 -271.5t-144 -204t-206 -77.5q-83 0 -152 27.5 t-104 74.5zM190 541q0 -76 54 -118t143 -42q113 0 219 131q4 10 4 45q0 92 -54.5 145.5t-145.5 53.5q-99 0 -159.5 -65t-60.5 -150z" />
<glyph unicode="&#xf661;" d="M158 850q0 57 12 123.5t42 139t73 131t112 96.5t152 38q135 0 206.5 -86t71.5 -231q0 -47 -9 -101t-27.5 -115t-50.5 -115.5t-73 -99.5t-101 -71.5t-130 -26.5q-134 0 -206 87t-72 231zM252 848q0 -238 186 -238q64 0 116 32t84.5 81.5t54.5 112t31 119.5t9 108 q0 237 -186 237q-64 0 -116 -32t-84.5 -81.5t-54.5 -111.5t-31 -119t-9 -108z" />
<glyph unicode="&#xf662;" horiz-adv-x="438" d="M180 1163l244 203h82l-180 -819h-95l152 690l-158 -135z" />
<glyph unicode="&#xf663;" d="M117 547l18 80q92 56 142 87t123.5 78.5t113.5 78t87.5 72t71 74t40 69.5t16.5 73q0 69 -55 105t-131 36q-145 0 -232 -96l-45 62q106 112 277 112q51 0 98.5 -12t89.5 -36t67 -67t25 -100q0 -42 -16.5 -84t-41.5 -79t-70 -79t-85.5 -74t-105 -75.5t-111 -72.5 t-121.5 -74h437l-17 -78h-575z" />
<glyph unicode="&#xf664;" d="M143 680l66 51q38 -59 101.5 -90t142.5 -31q91 0 145.5 53t54.5 132q0 60 -59.5 98.5t-153.5 38.5q-43 0 -57 -2l16 78q62 -4 121 -4q92 0 148.5 42t56.5 115q0 64 -59 101.5t-142 37.5q-120 0 -223 -90l-41 60q51 46 122.5 77t145.5 31q123 0 206 -52.5t83 -151.5 q0 -92 -64 -150t-163 -66q63 -11 110.5 -59.5t47.5 -116.5q0 -97 -81 -173.5t-212 -76.5q-107 0 -189 39t-123 109z" />
<glyph unicode="&#xf665;" d="M145 766l17 72l483 528h125l-117 -524h123l-14 -76h-123l-49 -219h-90l47 219h-402zM258 842h305l96 432z" />
<glyph unicode="&#xf666;" d="M145 682l68 51q73 -123 227 -123q98 0 161 61t63 154q0 78 -55 120t-136 42q-106 0 -192 -80l-64 29l96 430h508l-16 -78h-416l-65 -297q80 70 184 70q102 0 176 -61t74 -162q0 -131 -91 -218.5t-227 -87.5q-105 0 -182 40.5t-113 109.5z" />
<glyph unicode="&#xf667;" d="M168 825q0 145 50.5 271.5t144 204t208.5 77.5q82 0 151 -27.5t103 -74.5l-59 -64q-25 41 -76.5 64.5t-120.5 23.5q-58 0 -109.5 -29.5t-86 -73.5t-59.5 -95.5t-36.5 -94.5t-11.5 -71v-8q114 133 248 133q109 0 182.5 -58t73.5 -165q0 -124 -83.5 -215t-227.5 -91 q-143 0 -217 80t-74 213zM256 809q0 -91 55.5 -145t145.5 -54q100 0 159.5 65t59.5 150q0 76 -53.5 118t-141.5 42q-115 0 -221 -131q-4 -10 -4 -45z" />
<glyph unicode="&#xf668;" horiz-adv-x="735" d="M197 547l516 741h-467l16 78h574l-15 -63l-522 -756h-102z" />
<glyph unicode="&#xf669;" d="M145 748q0 88 75 152.5t190 76.5q-160 60 -160 176q0 72 44 125t107.5 76.5t135.5 23.5q71 0 134.5 -20.5t108.5 -67t45 -110.5q0 -86 -61 -147t-182 -75q71 -26 119.5 -76t48.5 -118q0 -100 -86.5 -166t-217.5 -66q-129 0 -215 58t-86 158zM238 754q0 -64 61 -106 t143 -42q86 0 150.5 46t64.5 116q0 54 -46 98t-122 68q-115 -7 -183 -56.5t-68 -123.5zM340 1149q0 -32 19 -60t47.5 -46t54 -28.5t45.5 -15.5q38 2 75 12t72.5 28t57.5 49.5t22 72.5q0 70 -54.5 106t-141.5 36q-81 0 -139 -42t-58 -112z" />
<glyph unicode="&#xf66a;" d="M162 637l61 63q25 -41 76 -64.5t119 -23.5q72 0 133 44.5t96 106.5t54.5 120t19.5 94v8q-114 -133 -248 -133q-109 0 -182.5 58t-73.5 165q0 79 35 147.5t108 113t170 44.5q143 0 216 -80t73 -213q0 -145 -51 -271t-144 -203.5t-206 -77.5q-83 0 -152 27.5t-104 74.5z M311 1087q0 -76 54 -117.5t143 -41.5q113 0 219 131q4 10 4 45q0 92 -55 145.5t-146 53.5q-99 0 -159 -65.5t-60 -150.5z" />
<glyph unicode="&#xf66d;" horiz-adv-x="1150" d="M-86 0l733 1126h131l238 -1126h-123l-57 272h-615l-174 -272h-133zM281 373h538l-129 631zM420 1421l67 52q36 -72 105.5 -113t161.5 -41q93 0 179 41t154 113l52 -52q-81 -84 -185 -132t-213 -48q-108 0 -192 48t-129 132z" />
<glyph unicode="&#xf66e;" horiz-adv-x="1150" d="M-86 0l733 1126h131l238 -1126h-123l-57 272h-615l-174 -272h-133zM281 373h538l-129 631zM381 1290l16 78h742l-17 -78h-741z" />
<glyph unicode="&#xf66f;" horiz-adv-x="1150" d="M-86 0l733 1126h131l238 -1126h-2q-213 -92 -213 -225q0 -43 25 -65.5t69 -22.5q71 0 121 88l53 -37q-74 -119 -184 -119q-70 0 -114 37.5t-44 105.5q0 74 43.5 136t120.5 106l-55 268h-615l-174 -272h-133zM281 373h538l-129 631z" />
<glyph unicode="&#xf670;" horiz-adv-x="1660" d="M-86 0l975 1126h794l-20 -100h-643l-88 -397h629l-21 -101h-631l-94 -428h643l-22 -100h-756l61 272h-460l-234 -272h-133zM358 373h404l141 631zM883 1241l381 295h129l-418 -295h-92z" />
<glyph unicode="&#xf671;" horiz-adv-x="1189" d="M111 485q0 133 54 256.5t143.5 213t212 143t253.5 53.5q139 0 256 -62t180 -167l-96 -50q-51 82 -144.5 130.5t-197.5 48.5q-105 0 -204.5 -43.5t-174.5 -117.5t-120.5 -178.5t-45.5 -219.5q0 -186 122.5 -301t312.5 -115q206 0 348 145l77 -63q-189 -183 -428 -183 q-242 0 -395 139.5t-153 370.5zM745 1241l381 295h129l-417 -295h-93z" />
<glyph unicode="&#xf672;" horiz-adv-x="1189" d="M111 485q0 133 54 256.5t143.5 213t212 143t253.5 53.5q139 0 256 -62t180 -167l-96 -50q-51 82 -144.5 130.5t-197.5 48.5q-105 0 -204.5 -43.5t-174.5 -117.5t-120.5 -178.5t-45.5 -219.5q0 -186 122.5 -301t312.5 -115q206 0 348 145l77 -63q-189 -183 -428 -183 q-242 0 -395 139.5t-153 370.5zM684 1536h78l125 -231l223 231h86l-262 -295h-111z" />
<glyph unicode="&#xf673;" horiz-adv-x="1189" d="M111 485q0 133 54 256.5t143.5 213t212 143t253.5 53.5q139 0 256 -62t180 -167l-96 -50q-51 82 -144.5 130.5t-197.5 48.5q-105 0 -204.5 -43.5t-174.5 -117.5t-120.5 -178.5t-45.5 -219.5q0 -186 122.5 -301t312.5 -115q206 0 348 145l77 -63q-189 -183 -428 -183 q-242 0 -395 139.5t-153 370.5zM618 1241l265 295h110l137 -295h-77l-127 232l-221 -232h-87z" />
<glyph unicode="&#xf674;" horiz-adv-x="1189" d="M111 485q0 133 54 256.5t143.5 213t212 143t253.5 53.5q139 0 256 -62t180 -167l-96 -50q-51 82 -144.5 130.5t-197.5 48.5q-105 0 -204.5 -43.5t-174.5 -117.5t-120.5 -178.5t-45.5 -219.5q0 -186 122.5 -301t312.5 -115q206 0 348 145l77 -63q-189 -183 -428 -183 q-242 0 -395 139.5t-153 370.5zM825 1370q0 34 26.5 60t61.5 26q29 0 49.5 -20.5t20.5 -49.5q0 -35 -26.5 -60.5t-61.5 -25.5q-30 0 -50 20t-20 50z" />
<glyph unicode="&#xf675;" horiz-adv-x="1251" d="M27 0l247 1126h340q116 0 215.5 -39t166.5 -105.5t105 -155t38 -187.5q0 -93 -27.5 -183.5t-85.5 -173t-140 -145.5t-200 -100t-256 -37h-403zM160 100h291q134 0 244.5 46.5t180 123t107 170.5t37.5 193q0 172 -116 282.5t-306 110.5h-233zM571 1536h78l125 -231 l223 231h86l-262 -295h-110z" />
<glyph unicode="&#xf676;" horiz-adv-x="1273" d="M29 532l20 84h137l113 510h340q154 0 275 -67t185 -177.5t64 -242.5q0 -93 -27.5 -183.5t-85 -173t-139.5 -145.5t-200 -100t-256 -37h-404l117 532h-139zM184 100h291q134 0 244.5 46.5t180 123t107 170.5t37.5 193q0 172 -115.5 282.5t-305.5 110.5h-234l-92 -410h291 l-19 -84h-290z" />
<glyph unicode="&#xf677;" horiz-adv-x="1034" d="M55 0l248 1126h754l-23 -100h-639l-90 -397h631l-23 -101h-630l-95 -428h641l-20 -100h-754zM381 1421l68 52q36 -72 105 -113t161 -41q93 0 179.5 41t154.5 113l51 -52q-81 -84 -185 -132t-213 -48q-108 0 -192 48t-129 132z" />
<glyph unicode="&#xf678;" horiz-adv-x="1034" d="M55 0l248 1126h754l-23 -100h-639l-90 -397h631l-23 -101h-630l-95 -428h641l-20 -100h-754zM518 1536h78l125 -231l223 231h86l-262 -295h-111z" />
<glyph unicode="&#xf679;" horiz-adv-x="1034" d="M55 0l248 1126h754l-23 -100h-639l-90 -397h631l-23 -101h-630l-95 -428h641l-20 -100h-754zM668 1370q0 34 26.5 60t61.5 26q29 0 49 -20.5t20 -49.5q0 -35 -26.5 -60.5t-61.5 -25.5q-29 0 -49 20t-20 50z" />
<glyph unicode="&#xf67a;" horiz-adv-x="1034" d="M55 0l248 1126h754l-23 -100h-639l-90 -397h631l-23 -101h-630l-95 -428h641l-20 -100h-754zM340 1290l16 78h742l-17 -78h-741z" />
<glyph unicode="&#xf67b;" horiz-adv-x="1280" d="M55 0l248 1126h115l512 -950l209 950h112l-260 -1185q-73 -342 -393 -342q-227 0 -313 159l80 72q70 -131 227 -131q122 0 193 68.5t94 185.5l10 51l-510 961l-211 -965h-113z" />
<glyph unicode="&#xf67c;" horiz-adv-x="1034" d="M55 0l248 1126h754l-23 -100h-639l-90 -397h631l-23 -101h-630l-95 -428h641l-20 -100h-2q-213 -92 -213 -225q0 -43 25 -65.5t69 -22.5q71 0 121 88l53 -37q-74 -119 -184 -119q-70 0 -114 37.5t-44 105.5q0 140 156 238h-621z" />
<glyph unicode="&#xf67d;" horiz-adv-x="1290" d="M109 477q0 131 51 253.5t138.5 215.5t212.5 149t265 56q137 0 257 -61t192 -162l-97 -56q-50 75 -148.5 127t-209.5 52q-151 0 -277 -80t-196 -210t-70 -278q0 -178 125.5 -293.5t311.5 -115.5q173 0 301 90l67 307h-381l21 96h493l-98 -456q-176 -136 -405 -136 q-154 0 -279.5 61t-199.5 176.5t-74 264.5zM551 1421l67 52q36 -72 105.5 -113t161.5 -41q93 0 179.5 41t154.5 113l51 -52q-81 -84 -185 -132t-213 -48q-108 0 -192 48t-129 132z" />
<glyph unicode="&#xf67e;" horiz-adv-x="1290" d="M109 477q0 131 51 253.5t138.5 215.5t212.5 149t265 56q137 0 257 -61t192 -162l-97 -56q-50 75 -148.5 127t-209.5 52q-151 0 -277 -80t-196 -210t-70 -278q0 -178 125.5 -293.5t311.5 -115.5q173 0 301 90l67 307h-381l21 96h493l-98 -456q-176 -136 -405 -136 q-154 0 -279.5 61t-199.5 176.5t-74 264.5zM614 1241l265 295h110l137 -295h-77l-127 232l-222 -232h-86z" />
<glyph unicode="&#xf67f;" horiz-adv-x="1290" d="M109 477q0 131 51 253.5t138.5 215.5t212.5 149t265 56q137 0 257 -61t192 -162l-97 -56q-50 75 -148.5 127t-209.5 52q-151 0 -277 -80t-196 -210t-70 -278q0 -178 125.5 -293.5t311.5 -115.5q173 0 301 90l67 307h-381l21 96h493l-98 -456q-176 -136 -405 -136 q-154 0 -279.5 61t-199.5 176.5t-74 264.5zM391 -481q56 30 98 75.5t54 90.5h-15q-25 0 -44 20t-19 47q0 36 27 62t61 26q35 0 57.5 -23.5t22.5 -66.5q0 -78 -59 -158t-138 -122z" />
<glyph unicode="&#xf680;" horiz-adv-x="1290" d="M109 477q0 131 51 253.5t138.5 215.5t212.5 149t265 56q137 0 257 -61t192 -162l-97 -56q-50 75 -148.5 127t-209.5 52q-151 0 -277 -80t-196 -210t-70 -278q0 -178 125.5 -293.5t311.5 -115.5q173 0 301 90l67 307h-381l21 96h493l-98 -456q-176 -136 -405 -136 q-154 0 -279.5 61t-199.5 176.5t-74 264.5zM825 1370q0 34 26.5 60t61.5 26q29 0 49.5 -20.5t20.5 -49.5q0 -35 -26.5 -60.5t-61.5 -25.5q-30 0 -50 20t-20 50z" />
<glyph unicode="&#xf681;" horiz-adv-x="1288" d="M55 0l248 1126h113l-111 -497h733l111 497h111l-248 -1126h-111l117 530h-733l-117 -530h-113zM547 1241l264 295h111l137 -295h-78l-127 232l-221 -232h-86z" />
<glyph unicode="&#xf682;" horiz-adv-x="1331" d="M78 0l184 842h-164l19 78h164l45 206h112l-47 -206h733l47 206h111l-45 -206h160l-17 -78h-161l-185 -842h-110l116 530h-733l-117 -530h-112zM328 629h733l47 213h-733z" />
<glyph unicode="&#xf683;" horiz-adv-x="440" d="M55 0l248 1126h113l-248 -1126h-113zM57 1421l68 52q36 -72 105 -113t161 -41q93 0 179.5 41t154.5 113l51 -52q-81 -84 -184.5 -132t-212.5 -48q-108 0 -192.5 48t-129.5 132z" />
<glyph unicode="&#xf684;" horiz-adv-x="1296" d="M55 0l248 1126h113l-248 -1126h-113zM385 135l80 72q72 -131 227 -131q232 0 287 252l176 798h113l-176 -802q-77 -349 -394 -349q-225 0 -313 160z" />
<glyph unicode="&#xf685;" horiz-adv-x="440" d="M27 1290l16 78h741l-16 -78h-741zM55 0l248 1126h113l-248 -1126h-113z" />
<glyph unicode="&#xf686;" horiz-adv-x="440" d="M-119 -238q0 150 176 248l246 1116h113l-248 -1126q-213 -92 -213 -225q0 -43 25 -65.5t69 -22.5q71 0 121 88l53 -37q-74 -119 -184 -119q-70 0 -114 37.5t-44 105.5z" />
<glyph unicode="&#xf687;" horiz-adv-x="440" d="M55 0l248 1126h113l-248 -1126h-113zM70 1227q25 123 83 198.5t146 75.5q43 0 72 -21.5t45 -52.5t30.5 -61.5t37 -52t55.5 -21.5q93 0 143 197h74q-26 -124 -85 -199.5t-147 -75.5q-43 0 -72 21.5t-44.5 52t-29.5 61.5t-37 52.5t-56 21.5q-95 0 -142 -196h-73z" />
<glyph unicode="&#xf688;" horiz-adv-x="854" d="M-57 135l80 72q72 -131 227 -131q232 0 287 252l176 798h112l-176 -802q-39 -178 -137 -263.5t-256 -85.5q-225 0 -313 160zM539 1241l264 295h110l138 -295h-78l-127 232l-221 -232h-86z" />
<glyph unicode="&#xf689;" horiz-adv-x="1067" d="M55 0l248 1126h113l-131 -596l684 596h147l-624 -536l423 -590h-139l-368 526l-154 -135l-86 -391h-113zM221 -481q56 30 98 75.5t54 90.5h-15q-25 0 -44 20t-19 47q0 36 27 62t61 26q35 0 57.5 -23.5t22.5 -66.5q0 -78 -59 -158t-138 -122z" />
<glyph unicode="&#xf68a;" horiz-adv-x="929" d="M55 0l248 1126h113l-228 -1026h570l-23 -100h-680zM553 1241l381 295h129l-418 -295h-92z" />
<glyph unicode="&#xf68b;" horiz-adv-x="929" d="M55 0l248 1126h113l-228 -1026h570l-23 -100h-680zM506 825q56 29 97.5 75t53.5 91h-14q-25 0 -44 20t-19 48q0 36 27 62t61 26q35 0 57.5 -23.5t22.5 -66.5q0 -79 -59 -159t-138 -122z" />
<glyph unicode="&#xf68c;" horiz-adv-x="929" d="M55 0l248 1126h113l-228 -1026h570l-23 -100h-680zM182 -481q56 30 98 75.5t54 90.5h-15q-25 0 -44 20t-19 47q0 36 27 62t61 26q35 0 57.5 -23.5t22.5 -66.5q0 -78 -59 -158t-138 -122z" />
<glyph unicode="&#xf68d;" horiz-adv-x="944" d="M55 0l248 1126h113l-228 -1026h570l-23 -100h-680zM631 586q0 41 29 68.5t71 27.5q34 0 58 -23.5t24 -58.5q0 -40 -29 -68t-69 -28q-35 0 -59.5 24t-24.5 58z" />
<glyph unicode="&#xf68e;" horiz-adv-x="1280" d="M55 0l248 1126h115l512 -950l209 950h112l-247 -1126h-111l-514 965l-211 -965h-113zM676 1241l381 295h129l-418 -295h-92z" />
<glyph unicode="&#xf68f;" horiz-adv-x="1280" d="M55 0l248 1126h115l512 -950l209 950h112l-247 -1126h-111l-514 965l-211 -965h-113zM614 1536h78l125 -231l223 231h86l-262 -295h-110z" />
<glyph unicode="&#xf690;" horiz-adv-x="1280" d="M55 0l248 1126h115l512 -950l209 950h112l-247 -1126h-111l-514 965l-211 -965h-113zM311 -481q56 30 98 75.5t54 90.5h-14q-25 0 -44.5 20t-19.5 47q0 36 27 62t61 26q35 0 57.5 -23.5t22.5 -66.5q0 -78 -59 -158t-138 -122z" />
<glyph unicode="&#xf691;" horiz-adv-x="1363" d="M111 487q0 172 81.5 324t229.5 246t326 94q246 0 388 -142.5t142 -369.5q0 -128 -49 -249.5t-132 -212.5t-203 -146.5t-253 -55.5q-246 0 -388 142.5t-142 369.5zM225 492q0 -182 111.5 -299t304.5 -117q151 0 271.5 79.5t184.5 206.5t64 273q0 182 -111.5 299 t-304.5 117q-113 0 -211 -46.5t-165 -124t-105.5 -178.5t-38.5 -210zM524 1421l68 52q36 -72 105 -113t161 -41q93 0 179.5 41t154.5 113l51 -52q-81 -84 -184.5 -132t-212.5 -48q-108 0 -192.5 48t-129.5 132z" />
<glyph unicode="&#xf692;" horiz-adv-x="1363" d="M111 487q0 172 81.5 324t229.5 246t326 94q246 0 388 -142.5t142 -369.5q0 -128 -49 -249.5t-132 -212.5t-203 -146.5t-253 -55.5q-246 0 -388 142.5t-142 369.5zM225 492q0 -182 111.5 -299t304.5 -117q151 0 271.5 79.5t184.5 206.5t64 273q0 182 -111.5 299 t-304.5 117q-113 0 -211 -46.5t-165 -124t-105.5 -178.5t-38.5 -210zM635 1241l264 295h117l-301 -295h-80zM920 1241l264 295h116l-301 -295h-79z" />
<glyph unicode="&#xf693;" horiz-adv-x="1363" d="M111 487q0 172 81.5 324t229.5 246t326 94q246 0 388 -142.5t142 -369.5q0 -128 -49 -249.5t-132 -212.5t-203 -146.5t-253 -55.5q-246 0 -388 142.5t-142 369.5zM225 492q0 -182 111.5 -299t304.5 -117q151 0 271.5 79.5t184.5 206.5t64 273q0 182 -111.5 299 t-304.5 117q-113 0 -211 -46.5t-165 -124t-105.5 -178.5t-38.5 -210zM485 1307l17 77h741l-16 -77h-742z" />
<glyph unicode="&#xf694;" horiz-adv-x="1363" d="M111 0l125 135q-125 137 -125 352q0 172 81.5 324t229.5 246t326 94q206 0 342 -104l75 79h105l-123 -131q131 -137 131 -356q0 -128 -49 -249.5t-132 -212.5t-203 -146.5t-253 -55.5q-210 0 -348 107l-78 -82h-104zM225 492q0 -161 88 -275l701 748q-114 86 -269 86 q-113 0 -211 -46.5t-165 -124t-105.5 -178.5t-38.5 -210zM369 164q109 -88 272 -88q151 0 271.5 79.5t184.5 206.5t64 273q0 164 -92 276zM725 1241l381 295h129l-418 -295h-92z" />
<glyph unicode="&#xf695;" horiz-adv-x="1091" d="M55 0l248 1126h406q151 0 244.5 -81t93.5 -207q0 -56 -14.5 -108t-46 -100t-78 -84t-114.5 -58.5t-151 -24.5l238 -463h-136l-221 459h-256l-100 -459h-113zM291 559h325h19q137 0 215 78t78 194q0 88 -66 141.5t-170 53.5h-297zM567 1241l381 295h129l-418 -295h-92z " />
<glyph unicode="&#xf696;" horiz-adv-x="1091" d="M55 0l248 1126h406q151 0 244.5 -81t93.5 -207q0 -56 -14.5 -108t-46 -100t-78 -84t-114.5 -58.5t-151 -24.5l238 -463h-136l-221 459h-256l-100 -459h-113zM291 559h325h19q137 0 215 78t78 194q0 88 -66 141.5t-170 53.5h-297zM504 1536h78l125 -231l223 231h86 l-262 -295h-111z" />
<glyph unicode="&#xf697;" horiz-adv-x="1091" d="M55 0l248 1126h406q151 0 244.5 -81t93.5 -207q0 -56 -14.5 -108t-46 -100t-78 -84t-114.5 -58.5t-151 -24.5l238 -463h-136l-221 459h-256l-100 -459h-113zM221 -481q56 30 98 75.5t54 90.5h-15q-25 0 -44 20t-19 47q0 36 27 62t61 26q35 0 57.5 -23.5t22.5 -66.5 q0 -78 -59 -158t-138 -122zM291 559h325h19q137 0 215 78t78 194q0 88 -66 141.5t-170 53.5h-297z" />
<glyph unicode="&#xf698;" horiz-adv-x="1021" d="M20 176l84 74q55 -79 157.5 -126.5t225.5 -47.5q79 0 137.5 20.5t90.5 55t47.5 74t15.5 83.5q0 53 -33 93.5t-85.5 67.5t-116 51.5t-127 51.5t-116 60t-85.5 85t-33 118q0 131 121 223t283 92q132 0 240 -50.5t169 -131.5l-80 -74q-46 72 -138 114t-193 42 q-116 0 -198.5 -61t-82.5 -152q0 -48 33 -84.5t85.5 -61.5t116 -48t127 -50.5t116 -62.5t85.5 -90.5t33 -127.5q0 -63 -24 -121.5t-72 -108t-130.5 -79t-189.5 -29.5q-150 0 -271.5 50.5t-191.5 150.5zM551 1241l381 295h129l-418 -295h-92z" />
<glyph unicode="&#xf699;" horiz-adv-x="1021" d="M20 176l84 74q55 -79 157.5 -126.5t225.5 -47.5q79 0 137.5 20.5t90.5 55t47.5 74t15.5 83.5q0 53 -33 93.5t-85.5 67.5t-116 51.5t-127 51.5t-116 60t-85.5 85t-33 118q0 131 121 223t283 92q132 0 240 -50.5t169 -131.5l-80 -74q-46 72 -138 114t-193 42 q-116 0 -198.5 -61t-82.5 -152q0 -48 33 -84.5t85.5 -61.5t116 -48t127 -50.5t116 -62.5t85.5 -90.5t33 -127.5q0 -63 -24 -121.5t-72 -108t-130.5 -79t-189.5 -29.5q-10 0 -31.5 1t-31.5 1l-55 -92q33 23 69 23q53 0 86 -31t33 -86q0 -79 -59.5 -128.5t-155.5 -49.5 q-133 0 -213 76l47 61q66 -69 170 -69q66 0 100.5 29.5t34.5 74.5q0 31 -22 50.5t-60 19.5q-46 0 -76 -37l-49 32l80 138q-222 37 -330 188z" />
<glyph unicode="&#xf69a;" horiz-adv-x="1021" d="M20 176l84 74q55 -79 157.5 -126.5t225.5 -47.5q79 0 137.5 20.5t90.5 55t47.5 74t15.5 83.5q0 53 -33 93.5t-85.5 67.5t-116 51.5t-127 51.5t-116 60t-85.5 85t-33 118q0 131 121 223t283 92q132 0 240 -50.5t169 -131.5l-80 -74q-46 72 -138 114t-193 42 q-116 0 -198.5 -61t-82.5 -152q0 -48 33 -84.5t85.5 -61.5t116 -48t127 -50.5t116 -62.5t85.5 -90.5t33 -127.5q0 -63 -24 -121.5t-72 -108t-130.5 -79t-189.5 -29.5q-150 0 -271.5 50.5t-191.5 150.5zM422 1241l264 295h111l137 -295h-78l-127 232l-221 -232h-86z" />
<glyph unicode="&#xf69b;" horiz-adv-x="1021" d="M20 176l84 74q55 -79 157.5 -126.5t225.5 -47.5q79 0 137.5 20.5t90.5 55t47.5 74t15.5 83.5q0 53 -33 93.5t-85.5 67.5t-116 51.5t-127 51.5t-116 60t-85.5 85t-33 118q0 131 121 223t283 92q132 0 240 -50.5t169 -131.5l-80 -74q-46 72 -138 114t-193 42 q-116 0 -198.5 -61t-82.5 -152q0 -48 33 -84.5t85.5 -61.5t116 -48t127 -50.5t116 -62.5t85.5 -90.5t33 -127.5q0 -63 -24 -121.5t-72 -108t-130.5 -79t-189.5 -29.5q-150 0 -271.5 50.5t-191.5 150.5zM199 -481q56 29 97.5 75t53.5 91h-14q-25 0 -44.5 20t-19.5 47 q0 36 27 62t61 26q35 0 57.5 -23.5t22.5 -66.5q0 -79 -58.5 -158.5t-137.5 -121.5z" />
<glyph unicode="&#xf69c;" horiz-adv-x="952" d="M174 524l19 78h247l95 424h-361l23 100h835l-22 -100h-363l-94 -424h256l-18 -78h-254l-115 -524h-113l115 524h-250z" />
<glyph unicode="&#xf69d;" horiz-adv-x="952" d="M174 1026l23 100h835l-22 -100h-363l-225 -1026h-113l226 1026h-361zM451 1536h77l125 -231l224 231h86l-263 -295h-110z" />
<glyph unicode="&#xf69e;" horiz-adv-x="952" d="M156 -481q56 29 97.5 75t53.5 91h-14q-25 0 -44.5 20t-19.5 47q0 36 27 62t61 26q35 0 57.5 -23.5t22.5 -66.5q0 -79 -58.5 -158.5t-137.5 -121.5zM174 1026l23 100h835l-22 -100h-363l-225 -1026h-113l226 1026h-361z" />
<glyph unicode="&#xf69f;" horiz-adv-x="1255" d="M135 336q0 32 12 94l156 696h113l-154 -692q-8 -58 -8 -82q0 -134 89 -205t243 -71q156 0 246 89.5t129 268.5l153 692h113l-154 -696q-49 -228 -162.5 -341.5t-322.5 -113.5q-213 0 -333 96t-120 265zM467 1421l68 52q36 -72 105 -113t161 -41q93 0 179.5 41t154.5 113 l51 -52q-81 -84 -185 -132t-213 -48q-108 0 -192 48t-129 132z" />
<glyph unicode="&#xf6a0;" horiz-adv-x="1255" d="M135 336q0 32 12 94l156 696h113l-154 -692q-8 -58 -8 -82q0 -134 89 -205t243 -71q156 0 246 89.5t129 268.5l153 692h113l-154 -696q-49 -228 -162.5 -341.5t-322.5 -113.5q-213 0 -333 96t-120 265zM575 1241l265 295h116l-301 -295h-80zM860 1241l264 295h117 l-301 -295h-80z" />
<glyph unicode="&#xf6a1;" horiz-adv-x="1255" d="M135 336q0 32 12 94l156 696h113l-154 -692q-8 -58 -8 -82q0 -134 89 -205t243 -71q156 0 246 89.5t129 268.5l153 692h113l-154 -696q-49 -228 -162.5 -341.5t-322.5 -113.5q-213 0 -333 96t-120 265zM436 1290l17 78h741l-16 -78h-742z" />
<glyph unicode="&#xf6a2;" horiz-adv-x="1255" d="M135 336q0 32 12 94l156 696h113l-154 -692q-8 -58 -8 -82q0 -134 89 -205t243 -71q156 0 246 89.5t129 268.5l153 692h113l-154 -696q-38 -175 -113 -282.5t-200 -147.5q-213 -92 -213 -225q0 -43 25 -65.5t69 -22.5q71 0 121 88l53 -37q-74 -119 -184 -119 q-70 0 -114 37.5t-44 105.5q0 125 119 213h-4q-213 0 -333 96t-120 265z" />
<glyph unicode="&#xf6a3;" horiz-adv-x="1255" d="M135 336q0 32 12 94l156 696h113l-154 -692q-8 -58 -8 -82q0 -134 89 -205t243 -71q156 0 246 89.5t129 268.5l153 692h113l-154 -696q-49 -228 -162.5 -341.5t-322.5 -113.5q-213 0 -333 96t-120 265zM641 1421q0 87 64 151t151 64q78 0 128 -50t50 -128q0 -87 -64 -151 t-151 -64q-78 0 -128 50t-50 128zM707 1427q0 -53 31 -85.5t83 -32.5q59 0 103.5 42.5t44.5 100.5q0 53 -32 86t-83 33q-60 0 -103.5 -42.5t-43.5 -101.5z" />
<glyph unicode="&#xf6a4;" horiz-adv-x="1255" d="M135 336q0 32 12 94l156 696h113l-154 -692q-8 -58 -8 -82q0 -134 89 -205t243 -71q156 0 246 89.5t129 268.5l153 692h113l-154 -696q-49 -228 -162.5 -341.5t-322.5 -113.5q-213 0 -333 96t-120 265zM479 1249q25 123 83.5 199t146.5 76q43 0 72 -21.5t45 -52t30 -61.5 t36.5 -52.5t55.5 -21.5q94 0 144 196h73q-26 -124 -84.5 -199t-146.5 -75q-43 0 -72 21.5t-45 52.5t-30 61.5t-37 52t-56 21.5q-94 0 -141 -197h-74z" />
<glyph unicode="&#xf6a6;" horiz-adv-x="1533" d="M168 1126h121l65 -964l498 964h100l72 -966l492 966h124l-585 -1126h-119l-72 948l-487 -948h-119zM676 1241l264 295h111l137 -295h-78l-127 232l-221 -232h-86z" />
<glyph unicode="&#xf6a9;" horiz-adv-x="1103" d="M162 1126h131l276 -544l510 544h138l-611 -645l-104 -481h-113l107 481zM465 1241l264 295h111l137 -295h-78l-127 232l-221 -232h-86z" />
<glyph unicode="&#xf6ab;" horiz-adv-x="1050" d="M-27 0l19 88l926 938h-717l20 100h869l-19 -90l-926 -936h732l-21 -100h-883zM563 1241l381 295h129l-418 -295h-92z" />
<glyph unicode="&#xf6ac;" horiz-adv-x="1050" d="M-27 0l19 88l926 938h-717l20 100h869l-19 -90l-926 -936h732l-21 -100h-883zM651 1370q0 34 26.5 60t61.5 26q29 0 49.5 -20.5t20.5 -49.5q0 -35 -26.5 -60.5t-61.5 -25.5q-30 0 -50 20t-20 50z" />
<glyph unicode="&#xf6ad;" horiz-adv-x="385" d="M27 0l247 1126h113l-248 -1126h-112zM307 1370q0 34 26.5 60t61.5 26q29 0 49.5 -20.5t20.5 -49.5q0 -35 -26.5 -60.5t-61.5 -25.5q-30 0 -50 20t-20 50z" />
<glyph unicode="&#xf6ae;" horiz-adv-x="464" d="M92 356q0 317 131.5 631.5t382.5 599.5l53 -53q-220 -296 -336 -597.5t-116 -629.5q0 -211 74 -489l-74 -41q-115 269 -115 579z" />
<glyph unicode="&#xf6af;" horiz-adv-x="464" d="M-115 -170q221 296 337 598t116 629q0 211 -74 489l74 41q115 -269 115 -579q0 -317 -131.5 -631.5t-382.5 -599.5z" />
<glyph unicode="&#xf6b0;" horiz-adv-x="466" d="M-80 -205l393 1778h357l-21 -88h-264l-356 -1602h264l-19 -88h-354z" />
<glyph unicode="&#xf6b1;" horiz-adv-x="466" d="M-121 -205l21 88h262l356 1602h-266l20 88h357l-396 -1778h-354z" />
<glyph unicode="&#xf6b2;" horiz-adv-x="509" d="M10 -6q0 34 8 55l101 449q4 24 4 37q0 46 -22 77t-58 31l18 82q57 0 92 40.5t48 104.5l100 449q29 124 103.5 189t181.5 65h127l-21 -88h-127q-67 0 -112 -43.5t-62 -122.5l-104 -465q-30 -141 -131 -178q59 -32 59 -111q0 -36 -8 -69l-98 -447q-5 -30 -5 -43 q0 -54 34 -88.5t85 -34.5h115l-21 -88h-100q-82 0 -144.5 55.5t-62.5 143.5z" />
<glyph unicode="&#xf6b3;" horiz-adv-x="509" d="M-123 -205l21 88h125q68 0 113.5 43.5t62.5 122.5l102 465q29 139 133 180q-59 27 -59 109q0 36 8 69l98 447q4 24 4 43q0 54 -33.5 88.5t-84.5 34.5h-115l20 88h101q82 0 143.5 -55t61.5 -144q0 -34 -7 -55l-100 -449q-4 -24 -4 -36q0 -46 22 -77.5t58 -31.5l-19 -82 q-57 0 -91.5 -40.5t-47.5 -104.5l-100 -449q-29 -124 -103.5 -189t-181.5 -65h-127z" />
<glyph unicode="&#xf6b4;" horiz-adv-x="448" d="M43 0l250 1010h84l-197 -1010h-137zM307 1288q0 41 29.5 69.5t69.5 28.5q35 0 58 -24t23 -59q0 -40 -29 -68.5t-69 -28.5q-35 0 -58.5 24t-23.5 58z" />
<glyph unicode="&#xf6b5;" horiz-adv-x="950" d="M25 268q0 75 30 135.5t78 101t106 74.5t116 62.5t106 58t78 68.5t30 86q0 51 -41 92l95 49q53 -64 53 -145q0 -60 -29 -108.5t-75 -81.5t-102 -63t-112 -59.5t-102 -63t-75 -82.5t-29 -109q0 -92 75.5 -148.5t208.5 -56.5q201 0 342 147l58 -80q-177 -174 -410 -174 q-180 0 -290.5 82.5t-110.5 214.5zM578 1280q0 41 29 68.5t69 27.5q35 0 58.5 -23.5t23.5 -58.5q0 -40 -29 -68t-70 -28q-34 0 -57.5 24t-23.5 58z" />
<glyph unicode="&#xf6b6;" horiz-adv-x="823" d="M104 700l410 363h125l-418 -373l238 -358h-109zM360 700l410 363h125l-418 -373l238 -358h-109z" />
<glyph unicode="&#xf6b7;" horiz-adv-x="823" d="M23 332l417 373l-237 358h108l246 -369l-410 -362h-124zM276 332l420 373l-237 358h108l246 -369l-410 -362h-127z" />
<glyph unicode="&#xf6b8;" horiz-adv-x="567" d="M104 700l410 363h125l-418 -373l238 -358h-109z" />
<glyph unicode="&#xf6b9;" horiz-adv-x="567" d="M23 332l417 373l-237 358h108l246 -369l-410 -362h-124z" />
<glyph unicode="&#xf6ba;" horiz-adv-x="614" d="M94 649l21 99h491l-20 -99h-492z" />
<glyph unicode="&#xf6bb;" horiz-adv-x="1214" d="M94 649l21 99h1091l-20 -99h-1092z" />
<glyph unicode="&#xf6bc;" horiz-adv-x="1705" d="M94 649l21 99h1583l-21 -99h-1583z" />
<glyph unicode="&#xf6bd;" horiz-adv-x="448" d="M176 694q0 41 29 69t71 28q34 0 58 -23.5t24 -58.5q0 -40 -29 -68.5t-69 -28.5q-35 0 -59.5 24t-24.5 58z" />
<glyph unicode="&#xf6be;" horiz-adv-x="733" d="M199 680q0 93 70.5 161t164.5 68q82 0 136.5 -54t54.5 -136q0 -93 -71 -161.5t-165 -68.5q-82 0 -136 54.5t-54 136.5z" />
<glyph unicode="&#xf6bf;" horiz-adv-x="1011" d="M135 600q0 160 71.5 297.5t197.5 219.5t276 83l33 143h90l-35 -149q184 -26 270 -174l-82 -62q-68 119 -208 142l-187 -842h25q81 0 150 34t118 93l61 -74q-146 -149 -340 -149h-36l-39 -180h-90l43 192q-146 33 -232 144t-86 282zM248 598q0 -131 60.5 -214t164.5 -112 l186 830q-124 -8 -219 -81.5t-143.5 -184.5t-48.5 -238z" />
<glyph unicode="&#xf6c3;" horiz-adv-x="448" d="M-98 -481q56 29 97.5 75t53.5 91h-14q-25 0 -44.5 20t-19.5 47q0 36 27 62t61 26q35 0 57.5 -23.5t22.5 -66.5q0 -79 -58.5 -158.5t-137.5 -121.5z" />
<glyph unicode="&#xf6dc;" horiz-adv-x="1204" d="M475 1049l371 317h106l-301 -1366h-116l264 1206l-269 -233z" />
<glyph unicode="&#xf6dd;" horiz-adv-x="2258" d="M59 0l301 1366h469q70 0 136 -23.5t118.5 -66t84.5 -109t32 -145.5q0 -193 -128.5 -319t-338.5 -132l268 -571h-133l-258 565h-309l-125 -565h-117zM326 672h376h5q172 0 269 99t97 245q0 104 -78 174t-178 70h-362zM1069 -377l303 1366h107l-33 -149q62 81 149.5 127.5 t190.5 46.5q172 0 278.5 -109t106.5 -297q0 -167 -63.5 -310.5t-183.5 -233t-271 -89.5q-119 0 -211.5 52.5t-145.5 140.5l-120 -545h-107zM1315 252q39 -78 125.5 -129t201.5 -51q120 0 216 75t146 192t50 249q0 151 -81.5 240.5t-217.5 89.5q-99 0 -189.5 -54.5 t-146.5 -136.5z" />
<glyph unicode="&#xf6df;" horiz-adv-x="624" d="M-29 66q0 142 97 247.5t237 108.5l21 86h67l-20 -92q114 -20 166 -111l-68 -43q-39 70 -113 86l-106 -481h2q93 0 164 80l51 -51q-93 -97 -217 -97h-16l-23 -108h-68l25 116q-93 22 -146 91t-53 168zM59 68q0 -71 33 -121.5t94 -69.5l105 473q-100 -9 -166 -92.5 t-66 -189.5z" />
<glyph unicode="&#xf6e0;" horiz-adv-x="624" d="M227 1227q0 142 97 247.5t237 108.5l21 86h67l-20 -92q114 -20 166 -111l-68 -43q-39 70 -113 86l-106 -481h2q93 0 164 80l51 -51q-92 -96 -217 -96h-16l-23 -109h-68l25 117q-93 22 -146 90.5t-53 167.5zM315 1229q0 -73 33 -123.5t94 -69.5l105 475 q-100 -9 -166 -92.5t-66 -189.5z" />
<glyph unicode="&#xf6e1;" horiz-adv-x="268" d="M-147 -412q35 20 63.5 50.5t34.5 56.5q-4 -2 -8 -2q-19 0 -33 15t-14 40q0 30 21 50t50 20q24 0 41 -18t17 -46q0 -56 -43 -116.5t-95 -90.5z" />
<glyph unicode="&#xf6e2;" horiz-adv-x="268" d="M109 750q35 20 63.5 50t34.5 56q-4 -2 -8 -2q-19 0 -33 15t-14 40q0 30 21 50t50 20q24 0 41 -18t17 -46q0 -56 -43 -116t-95 -90z" />
<glyph unicode="&#xf6e3;" horiz-adv-x="747" d="M-78 -164l70 58q69 -101 194 -125l72 317q-42 15 -68 26t-60.5 30.5t-53.5 40t-33 52t-14 68.5q0 92 83 160.5t214 68.5q20 0 28 -2l27 115h68l-29 -125q68 -15 122.5 -48.5t84.5 -76.5l-66 -51q-49 78 -155 107l-66 -295q50 -18 84 -35t69.5 -43.5t53.5 -63.5t18 -84 q0 -98 -76.5 -170.5t-226.5 -72.5h-26l-23 -109h-68l25 117q-175 27 -248 141zM127 311q0 -46 38.5 -74.5t113.5 -56.5l61 281h-14q-84 0 -141.5 -42.5t-57.5 -107.5zM252 -240h10q94 0 149.5 45t55.5 117q0 51 -37.5 81t-110.5 58z" />
<glyph unicode="&#xf6e4;" horiz-adv-x="747" d="M178 997l70 58q67 -103 194 -127l72 319q-42 15 -68 26t-60.5 30.5t-53.5 40t-33 52t-14 68.5q0 92 83 161t214 69q20 0 28 -2l27 114h68l-29 -125q68 -15 122.5 -48.5t84.5 -76.5l-66 -51q-49 78 -155 107l-66 -295q50 -18 84 -35t69.5 -43t53.5 -63t18 -84 q0 -46 -17.5 -88t-52.5 -77.5t-95.5 -57t-137.5 -21.5h-26l-23 -109h-68l25 115q-179 28 -248 143zM383 1473q0 -47 38.5 -75.5t113.5 -56.5l61 281h-14q-84 0 -141.5 -42t-57.5 -107zM508 922h10q94 0 149.5 44.5t55.5 116.5q0 50 -38.5 81.5t-109.5 58.5z" />
<glyph unicode="&#xf6e5;" horiz-adv-x="376" d="M-57 72l14 73h303l-14 -73h-303z" />
<glyph unicode="&#xf6e6;" horiz-adv-x="376" d="M199 1235l14 74h303l-14 -74h-303z" />
<glyph unicode="&#xf6e7;" horiz-adv-x="278" d="M-94 -252q0 27 23 48.5t51 21.5q25 0 41 -16.5t16 -41.5q0 -27 -23 -48t-51 -21q-25 0 -41 16t-16 41z" />
<glyph unicode="&#xf6e8;" horiz-adv-x="278" d="M162 909q0 27 23 48.5t51 21.5q25 0 41 -16t16 -41q0 -27 -23 -48.5t-51 -21.5q-25 0 -41 16t-16 41z" />
<glyph unicode="&#xf6e9;" horiz-adv-x="768" d="M186 928q0 104 44.5 195.5t125.5 147.5t179 56q80 0 141.5 -31t97.5 -86l23 101h88l-144 -643h-88l23 102q-96 -119 -232 -119q-108 0 -183 72t-75 205zM279 934q0 -100 52.5 -155.5t139.5 -55.5q119 0 221 117l70 311q-26 47 -85 75.5t-130 28.5q-113 0 -190.5 -95 t-77.5 -226z" />
<glyph unicode="&#xf6ea;" horiz-adv-x="835" d="M170 668l197 888h88l-78 -348q101 119 231 119q110 0 184 -71.5t74 -204.5q0 -104 -44 -195.5t-124.5 -148t-179.5 -56.5q-80 0 -141.5 31t-97.5 86l-21 -100h-88zM293 829q26 -49 84 -77.5t131 -28.5q111 0 188.5 95t77.5 226q0 100 -52.5 155.5t-139.5 55.5 q-120 0 -222 -114z" />
<glyph unicode="&#xf6eb;" horiz-adv-x="837" d="M186 928q0 104 44.5 195.5t125.5 147.5t179 56q80 0 141.5 -31t97.5 -86l76 346h88l-197 -888h-88l23 102q-96 -119 -232 -119q-108 0 -183 72t-75 205zM279 934q0 -100 52.5 -155.5t139.5 -55.5q119 0 221 117l70 311q-26 47 -85 75.5t-130 28.5q-113 0 -190.5 -95 t-77.5 -226z" />
<glyph unicode="&#xf6ec;" horiz-adv-x="821" d="M190 944q0 154 110.5 268.5t262.5 114.5q127 0 205 -76.5t78 -201.5q0 -55 -8 -88h-555q-2 -12 -2 -25q0 -92 63.5 -154.5t169.5 -62.5q117 0 207 74l31 -58q-111 -84 -242 -84q-146 0 -233 78.5t-87 214.5zM291 1028h473h2q2 2 2 19q0 93 -57 153t-152 60 q-104 0 -175.5 -70t-92.5 -162z" />
<glyph unicode="&#xf6ed;" horiz-adv-x="311" d="M147 668l142 643h88l-141 -643h-89zM307 1466q0 29 22 50.5t50 21.5q23 0 38 -16t15 -39q0 -28 -21.5 -49t-50.5 -21q-22 0 -37.5 15.5t-15.5 37.5z" />
<glyph unicode="&#xf6ee;" horiz-adv-x="352" d="M170 668l197 888h88l-197 -888h-88z" />
<glyph unicode="&#xf6ef;" horiz-adv-x="1148" d="M170 668l141 643h88l-20 -97q33 42 91.5 77.5t123.5 35.5q67 0 114 -34.5t58 -86.5q41 51 100.5 86t126.5 35q73 0 119.5 -39.5t46.5 -113.5q0 -29 -6 -54l-100 -452h-86l96 438q6 24 6 45q0 48 -30.5 75t-88.5 27q-48 0 -100.5 -33t-91.5 -79l-103 -473h-86l97 438 q6 24 6 45q0 48 -31 75t-90 27q-47 0 -98 -32.5t-93 -79.5l-102 -473h-88z" />
<glyph unicode="&#xf6f0;" horiz-adv-x="829" d="M190 940q0 158 106.5 272.5t260.5 114.5q134 0 215.5 -79.5t81.5 -209.5q0 -158 -106.5 -272.5t-260.5 -114.5q-134 0 -215.5 79.5t-81.5 209.5zM283 940q0 -95 56.5 -154t149.5 -59q121 0 198 92.5t77 218.5q0 94 -57.5 152.5t-149.5 58.5q-121 0 -197.5 -91.5 t-76.5 -217.5z" />
<glyph unicode="&#xf6f1;" horiz-adv-x="477" d="M170 668l141 643h88l-24 -107q64 63 120.5 92t129.5 29l-21 -88q-8 4 -37 4q-55 0 -115 -31.5t-94 -76.5l-100 -465h-88z" />
<glyph unicode="&#xf6f2;" horiz-adv-x="671" d="M133 774l55 47q30 -46 88 -75t127 -29q74 0 121 35t47 84q0 42 -36.5 71t-88.5 46.5t-104 37.5t-88.5 57.5t-36.5 92.5q0 73 68 129.5t180 56.5q84 0 148 -30.5t100 -79.5l-54 -50q-32 43 -84 69t-114 26q-72 0 -114 -33t-42 -84q0 -31 26 -53.5t65.5 -35t85.5 -29.5 t85.5 -36.5t65.5 -57.5t26 -91q0 -72 -68.5 -131.5t-187.5 -59.5q-176 0 -270 123z" />
<glyph unicode="&#xf6f3;" horiz-adv-x="395" d="M182 1243l15 68h110l39 176h86l-39 -176h135l-16 -68h-133l-94 -432q-4 -20 -4 -33q0 -55 63 -55q35 0 68 25l14 -64q-45 -33 -102 -33q-58 0 -96 25.5t-38 85.5q0 14 5 39l96 442h-109z" />
<glyph unicode="&#xf6f9;" horiz-adv-x="987" d="M-6 379l24 108l230 117l114 522h113l-102 -456l233 118l-24 -108l-232 -119l-102 -461h569l-22 -100h-680l108 496z" />
<glyph unicode="&#xf6fa;" horiz-adv-x="1974" d="M111 487q0 128 48 248.5t131 212.5t203 147.5t255 55.5q151 0 268 -71t168 -218l57 264h756l-23 -100h-641l-90 -397h631l-23 -101h-628l-95 -428h641l-20 -100h-756l43 197q-76 -112 -183 -167t-230 -55q-235 0 -373.5 141t-138.5 371zM225 492q0 -190 116.5 -303 t299.5 -113q144 0 259 81t177 232l78 346q-24 109 -89.5 182.5t-145.5 103.5t-172 30q-144 0 -264.5 -75.5t-189.5 -204t-69 -279.5z" />
<glyph unicode="&#xf6fd;" horiz-adv-x="1021" d="M20 176l84 74q55 -79 157.5 -126.5t225.5 -47.5q79 0 137.5 20.5t90.5 55t47.5 74t15.5 83.5q0 53 -33 93.5t-85.5 67.5t-116 51.5t-127 51.5t-116 60t-85.5 85t-33 118q0 131 121 223t283 92q132 0 240 -50.5t169 -131.5l-80 -74q-46 72 -138 114t-193 42 q-116 0 -198.5 -61t-82.5 -152q0 -48 33 -84.5t85.5 -61.5t116 -48t127 -50.5t116 -62.5t85.5 -90.5t33 -127.5q0 -63 -24 -121.5t-72 -108t-130.5 -79t-189.5 -29.5q-150 0 -271.5 50.5t-191.5 150.5zM487 1536h78l125 -231l223 231h86l-262 -295h-110z" />
<glyph unicode="&#xf6ff;" horiz-adv-x="1050" d="M-27 0l19 88l926 938h-717l20 100h869l-19 -90l-926 -936h732l-21 -100h-883zM492 1536h77l125 -231l224 231h86l-263 -295h-110z" />
<glyph unicode="&#xf721;" horiz-adv-x="360" d="M-6 63q0 40 28.5 68.5t69.5 28.5q34 0 58 -24t24 -58q0 -41 -29 -69.5t-69 -28.5q-35 0 -58.5 24t-23.5 59zM96 305l154 821h133l-207 -821h-80z" />
<glyph unicode="&#xf724;" horiz-adv-x="1021" d="M20 176l84 74q86 -128 275 -164l102 461q-54 20 -90 36.5t-79 42.5t-69 54t-43.5 68.5t-17.5 87.5q0 131 121 223t283 92q5 0 14 -1t14 -1l31 137h88l-33 -147q96 -19 172.5 -63.5t122.5 -106.5l-80 -74q-36 54 -99 92t-138 53l-92 -415q70 -26 116 -48.5t96 -59.5 t75.5 -88t25.5 -116q0 -63 -24 -121.5t-72 -108t-130.5 -79t-189.5 -29.5q-29 0 -41 2l-28 -129h-88l30 138q-229 37 -336 190zM303 838q0 -63 52 -104t151 -79l86 396h-8q-116 0 -198.5 -61t-82.5 -152zM465 76h22q79 0 137.5 20.5t90.5 55t47.5 74t15.5 83.5 q0 71 -56.5 117t-160.5 88z" />
<glyph unicode="&#xf726;" horiz-adv-x="1130" d="M10 276q0 77 27 138t79.5 104.5t106 72.5t129.5 58q-47 112 -47 197q0 129 93.5 217t219.5 88q102 0 175 -53t73 -152q0 -55 -21 -100.5t-53.5 -76.5t-82.5 -59.5t-97 -48.5t-108 -43q-11 -4 -17 -6q37 -71 109 -174q72 -110 127 -184q116 122 205 289l82 -45 q-122 -201 -236 -318q6 -8 146 -180h-136q-48 57 -88 109q-163 -134 -338 -134q-156 0 -252 79.5t-96 221.5zM121 285q0 -99 66.5 -161.5t181.5 -62.5q130 0 274 117q-62 83 -137 197q-61 91 -119 198q-60 -25 -103.5 -49t-83 -58.5t-59.5 -79.5t-20 -101zM410 846 q0 -65 43 -162q61 22 97 36.5t82.5 39t72 48t43.5 58.5t18 76q0 61 -38 94t-105 33q-91 0 -152 -63t-61 -160z" />
<glyph unicode="&#xf730;" horiz-adv-x="1245" d="M115 455q0 85 22.5 178.5t70.5 186t114 166t162 119.5t206 46q227 0 346 -128t119 -351q0 -85 -22.5 -178.5t-70 -186t-113.5 -166.5t-161.5 -120t-205.5 -46q-228 0 -347.5 128t-119.5 352zM238 461q0 -183 86.5 -281t257.5 -98q89 0 165 40t127 102.5t88 141 t53.5 155.5t16.5 145q0 183 -86 280.5t-258 97.5q-88 0 -164 -39.5t-127.5 -102.5t-88 -141.5t-53.5 -155t-17 -144.5z" />
<glyph unicode="&#xf731;" horiz-adv-x="630" d="M121 809l371 317h106l-248 -1126h-117l211 967l-268 -234z" />
<glyph unicode="&#xf732;" horiz-adv-x="1179" d="M20 0l21 102q170 67 304 130t249 132t191 136.5t118.5 142t42.5 150.5q0 112 -87 181.5t-220 69.5q-224 0 -389 -159l-62 80q186 186 459 186q182 0 302 -91t120 -251q0 -88 -44 -174t-117.5 -158t-178 -141t-214.5 -124t-239 -106h617l-23 -106h-850z" />
<glyph unicode="&#xf733;" horiz-adv-x="1110" d="M-55 20l94 62q45 -110 153.5 -175t241.5 -65q164 0 262.5 92t98.5 236q0 108 -89.5 175t-236.5 67q-71 0 -117 -4l27 110q18 -2 182 -2q94 0 172.5 30t130 95.5t51.5 155.5q0 104 -91 173.5t-240 69.5q-198 0 -351 -143l-57 82q76 78 187 123t227 45q196 0 320 -90 t124 -250q0 -78 -33 -144.5t-87 -110t-118.5 -69t-131.5 -30.5q106 -25 176.5 -101t70.5 -188q0 -86 -34.5 -164t-95.5 -136.5t-151 -93t-194 -34.5q-168 0 -306 79.5t-185 204.5z" />
<glyph unicode="&#xf734;" horiz-adv-x="1107" d="M-10 135l24 107l801 884h158l-195 -884h199l-23 -107h-198l-84 -375h-117l82 375h-647zM133 242h526l170 768z" />
<glyph unicode="&#xf735;" horiz-adv-x="1191" d="M33 12l94 68q104 -238 385 -238q155 0 266 108t111 265q0 137 -92 214t-238 77q-157 0 -299 -103l-78 46l150 677h788l-22 -106h-672l-113 -506q51 40 128.5 67t164.5 27q109 0 199.5 -42t148.5 -131t58 -210q0 -98 -38 -187t-104 -156t-162 -106.5t-206 -39.5 q-340 0 -469 276z" />
<glyph unicode="&#xf736;" horiz-adv-x="1196" d="M125 467q0 93 16.5 193.5t49.5 204.5t87.5 197t123.5 165.5t164.5 115.5t205.5 43q138 0 239 -55.5t154 -156.5l-88 -76q-39 87 -119 134.5t-192 47.5q-85 0 -159 -35.5t-127 -92.5t-96.5 -136t-70.5 -157.5t-47 -166.5q-1 -3 -10 -39q64 73 178 132t232 59 q182 0 294.5 -95.5t112.5 -259.5q0 -135 -65.5 -253t-183.5 -189.5t-261 -71.5q-211 0 -324.5 128t-113.5 364zM238 436q0 -160 86 -257t243 -97q108 0 197 55.5t137.5 145t48.5 190.5q0 124 -87.5 196t-233.5 72q-212 0 -387 -196q-4 -36 -4 -109z" />
<glyph unicode="&#xf737;" horiz-adv-x="1028" d="M84 -240l848 1260h-750l23 106h895l-19 -82l-862 -1284h-135z" />
<glyph unicode="&#xf738;" horiz-adv-x="1169" d="M76 317q0 156 117.5 261.5t310.5 140.5q-103 39 -176.5 114.5t-73.5 178.5q0 74 27.5 137t73 106t105.5 73t124.5 44t130.5 14q117 0 216 -38t161.5 -114t62.5 -177q0 -149 -110.5 -244t-290.5 -121q47 -20 90 -47t85.5 -67t67.5 -95t25 -118q0 -110 -64.5 -200 t-173.5 -140t-239 -50q-134 0 -239 38.5t-167.5 117t-62.5 186.5zM201 338q0 -121 99.5 -188.5t246.5 -67.5q89 0 169 33.5t133.5 101.5t53.5 156q0 53 -27.5 102t-71.5 83.5t-91.5 58.5t-94.5 36q-182 -12 -299.5 -98.5t-117.5 -216.5zM373 1006q0 -61 44.5 -116t103.5 -88 t120 -48q175 14 282 89t107 201q0 99 -93 166.5t-226 67.5q-139 0 -238.5 -73.5t-99.5 -198.5z" />
<glyph unicode="&#xf739;" horiz-adv-x="1196" d="M57 -49l86 76q39 -87 120 -135t194 -48q85 0 158.5 35.5t126 92.5t96 136.5t71 157.5t47.5 166q2 7 4 16t3.5 14t1.5 9q-64 -73 -177.5 -131.5t-232.5 -58.5q-183 0 -295.5 95.5t-112.5 258.5q0 135 66 253t184 189.5t260 71.5q212 0 325.5 -128t113.5 -364 q0 -79 -11.5 -164.5t-37 -175.5t-62 -173t-90 -157.5t-118 -129.5t-149 -87t-179.5 -32q-137 0 -238 56t-154 157zM270 651q0 -124 88 -196t234 -72q107 0 206.5 52.5t180.5 144.5q4 36 4 108q0 160 -85.5 257t-244.5 97q-162 0 -272.5 -117.5t-110.5 -273.5z" />
<glyph unicode="&#xf73f;" horiz-adv-x="813" d="M109 987q75 77 174 119.5t206 42.5q159 0 257 -70.5t98 -181.5q0 -62 -26 -111.5t-67 -82.5t-91 -60t-100.5 -49.5t-91.5 -45t-67 -52.5t-26 -66q0 -38 45 -78l-86 -43q-58 55 -58 117q0 50 25 90.5t64.5 67t88 50.5t96.5 47.5t87.5 50t64.5 65.5t25 88q0 81 -67 125.5 t-181 44.5q-173 0 -317 -144zM201 63q0 40 29.5 68.5t70.5 28.5q34 0 58 -24t24 -58q0 -41 -29.5 -69.5t-70.5 -28.5q-34 0 -58 24t-24 59z" />
<glyph unicode="&#xf761;" horiz-adv-x="1150" d="M-86 0l733 1126h131l238 -1126h-123l-57 272h-615l-174 -272h-133zM281 373h538l-129 631z" />
<glyph unicode="&#xf762;" horiz-adv-x="1107" d="M55 0l248 1126h436q140 0 233 -65t93 -189q0 -108 -68 -193.5t-188 -107.5q70 -25 116 -91.5t46 -141.5q0 -149 -104 -243.5t-287 -94.5h-525zM188 100h396q116 0 192 68t76 172q0 84 -56 136t-155 52h-358zM303 629h367h35q111 0 175 68t64 161q0 84 -63.5 126 t-163.5 42h-322z" />
<glyph unicode="&#xf763;" horiz-adv-x="1189" d="M111 485q0 133 54 256.5t143.5 213t212 143t253.5 53.5q139 0 256 -62t180 -167l-96 -50q-51 82 -144.5 130.5t-197.5 48.5q-105 0 -204.5 -43.5t-174.5 -117.5t-120.5 -178.5t-45.5 -219.5q0 -186 122.5 -301t312.5 -115q206 0 348 145l77 -63q-189 -183 -428 -183 q-242 0 -395 139.5t-153 370.5z" />
<glyph unicode="&#xf764;" horiz-adv-x="1251" d="M55 0l248 1126h340q154 0 275 -67t185 -177.5t64 -242.5q0 -93 -27.5 -183.5t-85 -173t-139.5 -145.5t-200 -100t-256 -37h-404zM188 100h291q134 0 244.5 46.5t180.5 123t107.5 170.5t37.5 193q0 172 -116 282.5t-306 110.5h-234z" />
<glyph unicode="&#xf765;" horiz-adv-x="1034" d="M55 0l248 1126h754l-23 -100h-639l-90 -397h631l-23 -101h-630l-95 -428h641l-20 -100h-754z" />
<glyph unicode="&#xf766;" horiz-adv-x="989" d="M55 0l248 1126h754l-23 -100h-639l-90 -397h631l-23 -101h-630l-115 -528h-113z" />
<glyph unicode="&#xf767;" horiz-adv-x="1290" d="M109 477q0 131 51 253.5t138.5 215.5t212.5 149t265 56q137 0 257 -61t192 -162l-97 -56q-50 75 -148.5 127t-209.5 52q-151 0 -277 -80t-196 -210t-70 -278q0 -178 125.5 -293.5t311.5 -115.5q173 0 301 90l67 307h-381l21 96h493l-98 -456q-176 -136 -405 -136 q-154 0 -279.5 61t-199.5 176.5t-74 264.5z" />
<glyph unicode="&#xf768;" horiz-adv-x="1288" d="M55 0l248 1126h113l-111 -497h733l111 497h111l-248 -1126h-111l117 530h-733l-117 -530h-113z" />
<glyph unicode="&#xf769;" horiz-adv-x="442" d="M55 0l248 1126h113l-248 -1126h-113z" />
<glyph unicode="&#xf76a;" horiz-adv-x="854" d="M-57 135l80 72q72 -131 227 -131q232 0 287 252l176 798h112l-176 -802q-39 -178 -137 -263.5t-256 -85.5q-225 0 -313 160z" />
<glyph unicode="&#xf76b;" horiz-adv-x="1067" d="M55 0l248 1126h113l-131 -596l684 596h147l-624 -536l423 -590h-139l-368 526l-154 -135l-86 -391h-113z" />
<glyph unicode="&#xf76c;" horiz-adv-x="929" d="M55 0l248 1126h113l-228 -1026h570l-23 -100h-680z" />
<glyph unicode="&#xf76d;" horiz-adv-x="1439" d="M55 0l248 1126h154l192 -925l602 925h160l-248 -1126h-112l215 973l-633 -973h-47l-203 973l-215 -973h-113z" />
<glyph unicode="&#xf76e;" horiz-adv-x="1280" d="M55 0l248 1126h115l512 -950l209 950h112l-247 -1126h-111l-514 965l-211 -965h-113z" />
<glyph unicode="&#xf76f;" horiz-adv-x="1363" d="M111 487q0 172 81.5 324t229.5 246t326 94q246 0 388 -142.5t142 -369.5q0 -128 -49 -249.5t-132 -212.5t-203 -146.5t-253 -55.5q-246 0 -388 142.5t-142 369.5zM225 492q0 -182 111.5 -299t304.5 -117q151 0 271.5 79.5t184.5 206.5t64 273q0 182 -111.5 299 t-304.5 117q-113 0 -211 -46.5t-165 -124t-105.5 -178.5t-38.5 -210z" />
<glyph unicode="&#xf770;" horiz-adv-x="1042" d="M55 0l248 1126h399q156 0 249 -78.5t93 -205.5q0 -159 -111.5 -271t-295.5 -112h-369l-100 -459h-113zM291 559h348h4q129 0 206 80t77 199q0 88 -63 138t-177 50h-291z" />
<glyph unicode="&#xf771;" horiz-adv-x="1363" d="M111 487q0 172 81.5 324t229.5 246t326 94q246 0 388 -142.5t142 -369.5q0 -157 -70.5 -299.5t-191.5 -235.5l71 -100l-86 -59l-73 102q-129 -72 -287 -72q-246 0 -388 142.5t-142 369.5zM225 492q0 -182 111.5 -299t304.5 -117q126 0 229 53l-143 205l84 61l145 -209 q97 79 151 198t54 251q0 182 -111.5 299t-304.5 117q-113 0 -211 -46.5t-165 -124t-105.5 -178.5t-38.5 -210z" />
<glyph unicode="&#xf772;" horiz-adv-x="1091" d="M55 0l248 1126h406q151 0 244.5 -81t93.5 -207q0 -56 -14.5 -108t-46 -100t-78 -84t-114.5 -58.5t-151 -24.5l238 -463h-136l-221 459h-256l-100 -459h-113zM291 559h325h19q137 0 215 78t78 194q0 88 -66 141.5t-170 53.5h-297z" />
<glyph unicode="&#xf773;" horiz-adv-x="1021" d="M20 176l84 74q55 -79 157.5 -126.5t225.5 -47.5q79 0 137.5 20.5t90.5 55t47.5 74t15.5 83.5q0 53 -33 93.5t-85.5 67.5t-116 51.5t-127 51.5t-116 60t-85.5 85t-33 118q0 131 121 223t283 92q132 0 240 -50.5t169 -131.5l-80 -74q-46 72 -138 114t-193 42 q-116 0 -198.5 -61t-82.5 -152q0 -48 33 -84.5t85.5 -61.5t116 -48t127 -50.5t116 -62.5t85.5 -90.5t33 -127.5q0 -63 -24 -121.5t-72 -108t-130.5 -79t-189.5 -29.5q-150 0 -271.5 50.5t-191.5 150.5z" />
<glyph unicode="&#xf774;" horiz-adv-x="952" d="M174 1026l23 100h835l-22 -100h-363l-225 -1026h-113l226 1026h-361z" />
<glyph unicode="&#xf775;" horiz-adv-x="1255" d="M135 336q0 32 12 94l156 696h113l-154 -692q-8 -58 -8 -82q0 -134 89 -205t243 -71q156 0 246 89.5t129 268.5l153 692h113l-154 -696q-49 -228 -162.5 -341.5t-322.5 -113.5q-213 0 -333 96t-120 265z" />
<glyph unicode="&#xf776;" horiz-adv-x="1150" d="M162 1126h125l202 -999l646 999h129l-734 -1126h-131z" />
<glyph unicode="&#xf777;" horiz-adv-x="1533" d="M168 1126h121l65 -964l498 964h100l72 -966l492 966h124l-585 -1126h-119l-72 948l-487 -948h-119z" />
<glyph unicode="&#xf778;" horiz-adv-x="1146" d="M-82 0l602 578l-327 548h135l274 -469l483 469h144l-570 -546l349 -580h-136l-297 500l-514 -500h-143z" />
<glyph unicode="&#xf779;" horiz-adv-x="1103" d="M162 1126h131l276 -544l510 544h138l-611 -645l-104 -481h-113l107 481z" />
<glyph unicode="&#xf77a;" horiz-adv-x="1050" d="M-27 0l19 88l926 938h-717l20 100h869l-19 -90l-926 -936h732l-21 -100h-883z" />
<glyph unicode="&#xf7a1;" horiz-adv-x="360" d="M-23 0l207 821h80l-153 -821h-134zM186 1049q0 41 29.5 69.5t69.5 28.5q35 0 58.5 -24.5t23.5 -59.5q0 -40 -29 -68t-70 -28q-34 0 -58 24t-24 58z" />
<glyph unicode="&#xf7b8;" horiz-adv-x="813" d="M-31 229q0 62 26 111.5t67 82.5t91.5 60t100.5 49.5t91 45t67 52.5t26 66q0 38 -45 78l86 43q58 -55 58 -117q0 -50 -25 -90t-64.5 -67t-87.5 -50.5t-96.5 -47t-88 -50t-64.5 -65.5t-25 -88q0 -81 67 -125.5t181 -44.5q174 0 317 143l54 -76q-75 -77 -174.5 -119.5 t-206.5 -42.5q-159 0 -257 70.5t-98 181.5zM430 1049q0 41 29.5 69.5t70.5 28.5q34 0 58 -24.5t24 -59.5q0 -40 -29.5 -68t-70.5 -28q-34 0 -58 24t-24 58z" />
<glyph unicode="&#xf7e0;" horiz-adv-x="1150" d="M-86 0l733 1126h131l238 -1126h-123l-57 272h-615l-174 -272h-133zM281 373h538l-129 631zM487 1536h127l250 -295h-90z" />
<glyph unicode="&#xf7e1;" horiz-adv-x="1150" d="M-86 0l733 1126h131l238 -1126h-123l-57 272h-615l-174 -272h-133zM281 373h538l-129 631zM616 1241l381 295h129l-417 -295h-93z" />
<glyph unicode="&#xf7e2;" horiz-adv-x="1150" d="M-86 0l733 1126h131l238 -1126h-123l-57 272h-615l-174 -272h-133zM281 373h538l-129 631zM487 1241l265 295h110l137 -295h-77l-127 232l-222 -232h-86z" />
<glyph unicode="&#xf7e3;" horiz-adv-x="1150" d="M-86 0l733 1126h131l238 -1126h-123l-57 272h-615l-174 -272h-133zM281 373h538l-129 631zM428 1249q25 123 83 199t146 76q43 0 72 -21.5t45 -52t30.5 -61.5t37 -52.5t55.5 -21.5q93 0 143 196h74q-26 -124 -84.5 -199t-146.5 -75q-43 0 -72 21.5t-45 52.5t-30 61.5 t-37 52t-56 21.5q-94 0 -141 -197h-74z" />
<glyph unicode="&#xf7e4;" horiz-adv-x="1150" d="M-86 0l733 1126h131l238 -1126h-123l-57 272h-615l-174 -272h-133zM281 373h538l-129 631zM475 1331q0 34 26 59t60 25q29 0 48.5 -19t19.5 -48q0 -34 -25.5 -59t-60.5 -25q-28 0 -48 19t-20 48zM893 1331q0 34 26 59t60 25q29 0 48.5 -19t19.5 -48q0 -34 -25 -59 t-59 -25q-30 0 -50 19t-20 48z" />
<glyph unicode="&#xf7e5;" horiz-adv-x="1150" d="M-86 0l733 1126h131l238 -1126h-123l-57 272h-615l-174 -272h-133zM281 373h538l-129 631zM586 1421q0 87 64 151t151 64q78 0 128 -50t50 -128q0 -87 -64 -151t-151 -64q-78 0 -128 50t-50 128zM651 1427q0 -53 31.5 -85.5t83.5 -32.5q59 0 103 42.5t44 100.5 q0 53 -31.5 86t-82.5 33q-60 0 -104 -43t-44 -101z" />
<glyph unicode="&#xf7e6;" horiz-adv-x="1660" d="M-86 0l975 1126h794l-20 -100h-643l-88 -397h629l-21 -101h-631l-94 -428h643l-22 -100h-756l61 272h-460l-234 -272h-133zM358 373h404l141 631z" />
<glyph unicode="&#xf7e7;" horiz-adv-x="1189" d="M111 485q0 133 54 256.5t143.5 213t212 143t253.5 53.5q139 0 256 -62t180 -167l-96 -50q-51 82 -144.5 130.5t-197.5 48.5q-105 0 -204.5 -43.5t-174.5 -117.5t-120.5 -178.5t-45.5 -219.5q0 -186 122.5 -301t312.5 -115q206 0 348 145l77 -63q-189 -183 -428 -183 q-26 0 -38 2l-56 -92q33 23 70 23q53 0 86 -31t33 -86q0 -79 -59.5 -128.5t-155.5 -49.5q-133 0 -213 76l47 61q66 -69 170 -69q66 0 100.5 29.5t34.5 74.5q0 31 -22 50.5t-60 19.5q-46 0 -76 -37l-49 32l78 134q-199 31 -318.5 164.5t-119.5 336.5z" />
<glyph unicode="&#xf7e8;" horiz-adv-x="1034" d="M55 0l248 1126h754l-23 -100h-639l-90 -397h631l-23 -101h-630l-95 -428h641l-20 -100h-754zM459 1536h127l250 -295h-91z" />
<glyph unicode="&#xf7e9;" horiz-adv-x="1034" d="M55 0l248 1126h754l-23 -100h-639l-90 -397h631l-23 -101h-630l-95 -428h641l-20 -100h-754zM588 1241l381 295h129l-418 -295h-92z" />
<glyph unicode="&#xf7ea;" horiz-adv-x="1034" d="M55 0l248 1126h754l-23 -100h-639l-90 -397h631l-23 -101h-630l-95 -428h641l-20 -100h-754zM459 1241l264 295h111l137 -295h-78l-127 232l-221 -232h-86z" />
<glyph unicode="&#xf7eb;" horiz-adv-x="1034" d="M55 0l248 1126h754l-23 -100h-639l-90 -397h631l-23 -101h-630l-95 -428h641l-20 -100h-754zM438 1331q0 34 26 59t60 25q29 0 48.5 -19t19.5 -48q0 -34 -25.5 -59t-60.5 -25q-28 0 -48 19t-20 48zM856 1331q0 34 26 59t60 25q29 0 48.5 -19t19.5 -48q0 -34 -25 -59 t-59 -25q-30 0 -50 19t-20 48z" />
<glyph unicode="&#xf7ec;" horiz-adv-x="440" d="M55 0l248 1126h113l-248 -1126h-113zM131 1536h127l250 -295h-90z" />
<glyph unicode="&#xf7ed;" horiz-adv-x="440" d="M55 0l248 1126h113l-248 -1126h-113zM262 1241l381 295h129l-418 -295h-92z" />
<glyph unicode="&#xf7ee;" horiz-adv-x="440" d="M55 0l248 1126h113l-248 -1126h-113zM131 1241l264 295h111l137 -295h-78l-127 232l-221 -232h-86z" />
<glyph unicode="&#xf7ef;" horiz-adv-x="440" d="M55 0l248 1126h113l-248 -1126h-113zM121 1331q0 34 26 59t60 25q29 0 48 -19t19 -48q0 -34 -25.5 -59t-60.5 -25q-28 0 -47.5 19t-19.5 48zM539 1331q0 34 26 59t60 25q29 0 48 -19t19 -48q0 -34 -25 -59t-59 -25q-29 0 -49 19t-20 48z" />
<glyph unicode="&#xf7f0;" horiz-adv-x="1273" d="M29 532l20 84h137l113 510h340q154 0 275 -67t185 -177.5t64 -242.5q0 -93 -27.5 -183.5t-85 -173t-139.5 -145.5t-200 -100t-256 -37h-404l117 532h-139zM184 100h291q134 0 244.5 46.5t180 123t107 170.5t37.5 193q0 172 -115.5 282.5t-305.5 110.5h-234l-92 -410h291 l-19 -84h-290z" />
<glyph unicode="&#xf7f1;" horiz-adv-x="1280" d="M55 0l248 1126h115l512 -950l209 950h112l-247 -1126h-111l-514 965l-211 -965h-113zM489 1249q25 123 83.5 199t146.5 76q43 0 72 -21.5t45 -52t30 -61.5t36.5 -52.5t55.5 -21.5q94 0 144 196h74q-26 -123 -85 -198.5t-147 -75.5q-43 0 -72 21.5t-44.5 52.5t-29.5 61.5 t-37 52t-56 21.5q-95 0 -142 -197h-74z" />
<glyph unicode="&#xf7f2;" horiz-adv-x="1363" d="M111 487q0 172 81.5 324t229.5 246t326 94q246 0 388 -142.5t142 -369.5q0 -128 -49 -249.5t-132 -212.5t-203 -146.5t-253 -55.5q-246 0 -388 142.5t-142 369.5zM225 492q0 -182 111.5 -299t304.5 -117q151 0 271.5 79.5t184.5 206.5t64 273q0 182 -111.5 299 t-304.5 117q-113 0 -211 -46.5t-165 -124t-105.5 -178.5t-38.5 -210zM592 1536h127l250 -295h-90z" />
<glyph unicode="&#xf7f3;" horiz-adv-x="1363" d="M111 487q0 172 81.5 324t229.5 246t326 94q246 0 388 -142.5t142 -369.5q0 -128 -49 -249.5t-132 -212.5t-203 -146.5t-253 -55.5q-246 0 -388 142.5t-142 369.5zM225 492q0 -182 111.5 -299t304.5 -117q151 0 271.5 79.5t184.5 206.5t64 273q0 182 -111.5 299 t-304.5 117q-113 0 -211 -46.5t-165 -124t-105.5 -178.5t-38.5 -210zM725 1241l381 295h129l-418 -295h-92z" />
<glyph unicode="&#xf7f4;" horiz-adv-x="1363" d="M111 487q0 172 81.5 324t229.5 246t326 94q246 0 388 -142.5t142 -369.5q0 -128 -49 -249.5t-132 -212.5t-203 -146.5t-253 -55.5q-246 0 -388 142.5t-142 369.5zM225 492q0 -182 111.5 -299t304.5 -117q151 0 271.5 79.5t184.5 206.5t64 273q0 182 -111.5 299 t-304.5 117q-113 0 -211 -46.5t-165 -124t-105.5 -178.5t-38.5 -210zM594 1241l264 295h111l137 -295h-78l-127 232l-221 -232h-86z" />
<glyph unicode="&#xf7f5;" horiz-adv-x="1363" d="M111 487q0 172 81.5 324t229.5 246t326 94q246 0 388 -142.5t142 -369.5q0 -128 -49 -249.5t-132 -212.5t-203 -146.5t-253 -55.5q-246 0 -388 142.5t-142 369.5zM225 492q0 -182 111.5 -299t304.5 -117q151 0 271.5 79.5t184.5 206.5t64 273q0 182 -111.5 299 t-304.5 117q-113 0 -211 -46.5t-165 -124t-105.5 -178.5t-38.5 -210zM539 1249q25 123 83 199t146 76q43 0 72 -21.5t45 -52t30.5 -61.5t37 -52.5t55.5 -21.5q93 0 143 196h74q-26 -123 -85 -198.5t-147 -75.5q-43 0 -72 21.5t-44.5 52.5t-29.5 61.5t-37 52t-56 21.5 q-95 0 -142 -197h-73z" />
<glyph unicode="&#xf7f6;" horiz-adv-x="1363" d="M111 487q0 172 81.5 324t229.5 246t326 94q246 0 388 -142.5t142 -369.5q0 -128 -49 -249.5t-132 -212.5t-203 -146.5t-253 -55.5q-246 0 -388 142.5t-142 369.5zM225 492q0 -182 111.5 -299t304.5 -117q151 0 271.5 79.5t184.5 206.5t64 273q0 182 -111.5 299 t-304.5 117q-113 0 -211 -46.5t-165 -124t-105.5 -178.5t-38.5 -210zM584 1331q0 34 26 59t60 25q29 0 48 -19t19 -48q0 -34 -25.5 -59t-60.5 -25q-28 0 -47.5 19t-19.5 48zM1001 1331q0 34 26 59t60 25q29 0 48.5 -19t19.5 -48q0 -34 -25 -59t-59 -25q-30 0 -50 19t-20 48z " />
<glyph unicode="&#xf7f8;" horiz-adv-x="1363" d="M109 0l127 135q-125 137 -125 352q0 172 81.5 324t229.5 246t326 94q200 0 339 -102l74 77h111l-123 -133q129 -138 129 -354q0 -128 -49 -249.5t-132 -212.5t-203 -146.5t-253 -55.5q-206 0 -346 105l-76 -80h-110zM225 492q0 -164 86 -273l701 748q-112 84 -267 84 q-113 0 -211 -46.5t-165 -124t-105.5 -178.5t-38.5 -210zM371 162q106 -86 270 -86q151 0 271.5 79.5t184.5 206.5t64 273q0 163 -90 276z" />
<glyph unicode="&#xf7f9;" horiz-adv-x="1255" d="M135 336q0 32 12 94l156 696h113l-154 -692q-8 -58 -8 -82q0 -134 89 -205t243 -71q156 0 246 89.5t129 268.5l153 692h113l-154 -696q-49 -228 -162.5 -341.5t-322.5 -113.5q-213 0 -333 96t-120 265zM537 1536h127l249 -295h-90z" />
<glyph unicode="&#xf7fa;" horiz-adv-x="1255" d="M135 336q0 32 12 94l156 696h113l-154 -692q-8 -58 -8 -82q0 -134 89 -205t243 -71q156 0 246 89.5t129 268.5l153 692h113l-154 -696q-49 -228 -162.5 -341.5t-322.5 -113.5q-213 0 -333 96t-120 265zM672 1241l381 295h129l-418 -295h-92z" />
<glyph unicode="&#xf7fb;" horiz-adv-x="1255" d="M135 336q0 32 12 94l156 696h113l-154 -692q-8 -58 -8 -82q0 -134 89 -205t243 -71q156 0 246 89.5t129 268.5l153 692h113l-154 -696q-49 -228 -162.5 -341.5t-322.5 -113.5q-213 0 -333 96t-120 265zM537 1241l264 295h110l138 -295h-78l-127 232l-221 -232h-86z" />
<glyph unicode="&#xf7fc;" horiz-adv-x="1255" d="M135 336q0 32 12 94l156 696h113l-154 -692q-8 -58 -8 -82q0 -134 89 -205t243 -71q156 0 246 89.5t129 268.5l153 692h113l-154 -696q-49 -228 -162.5 -341.5t-322.5 -113.5q-213 0 -333 96t-120 265zM526 1331q0 34 26 59t60 25q29 0 48.5 -19t19.5 -48 q0 -34 -25.5 -59t-60.5 -25q-28 0 -48 19t-20 48zM944 1331q0 34 26 59t60 25q29 0 48.5 -19t19.5 -48q0 -34 -25 -59t-59 -25q-30 0 -50 19t-20 48z" />
</font>
</defs>
</svg>
